<?xml version="1.0" encoding="UTF-8"?>
<svg version="1.1" xmlns="http://www.w3.org/2000/svg" width="14" height="14" viewBox="0 0 128 128"
     preserveAspectRatio="xMidYMid meet">
    <path d="M0 0 C10.45150955 8.26577412 20.31273028 19.46643564 22.31564331 33.15762329 C22.77713708 38.14113566 22.84224736 43.11409711 22.81665039 48.11621094 C22.81252511 50.73406388 22.87769073 53.3441348 22.94726562 55.9609375 C23.12409141 72.41262959 17.33391072 84.94820242 6 97 C5.35933594 97.69351563 4.71867187 98.38703125 4.05859375 99.1015625 C-9.90591024 112.8275835 -28.16238085 116.59912245 -47.01513672 116.55297852 C-64.23861252 116.21199509 -78.44342912 109.63395606 -91.1640625 97.92578125 C-103.25826906 85.23973054 -107.05174117 71.95069881 -106.89208984 54.95385742 C-106.87507665 52.19990675 -106.93271295 49.45430592 -106.99609375 46.70117188 C-107.12321998 30.539535 -102.14517255 18.64319246 -91.40234375 6.39453125 C-67.95300085 -16.97855362 -26.36362067 -20.00415187 0 0 Z " fill="#CBCFD1" transform="translate(106,12)"/>
    <path d="M0 0 C50.46987952 0 50.46987952 0 61 10 C61.82951172 10.78697266 61.82951172 10.78697266 62.67578125 11.58984375 C71.05569538 20.42722217 72.4908064 31.88111575 72.27734375 43.58203125 C71.81863751 53.89036989 69.52461454 64.54808705 62 72 C61.48695312 72.54914063 60.97390625 73.09828125 60.4453125 73.6640625 C45.46980237 88.20965368 16.64951582 83 0 83 C0 55.61 0 28.22 0 0 Z " fill="#5F1AE9" transform="translate(30,26)"/>
    <path d="M0 0 C1.5625 1.375 1.5625 1.375 3 3 C5.09989652 4.17574711 5.09989652 4.17574711 7 5 C5.71246616 8.96989599 4.43275725 10.6745838 1 13 C0.67 13.66 0.34 14.32 0 15 C-0.66 14.67 -1.32 14.34 -2 14 C-2.33 15.32 -2.66 16.64 -3 18 C-3.99 18 -4.98 18 -6 18 C-5.938125 18.94875 -5.87625 19.8975 -5.8125 20.875 C-5.9053125 22.421875 -5.9053125 22.421875 -6 24 C-9.04681061 26.03120707 -9.60118324 26.24659875 -13.01171875 26.1953125 C-13.76904297 26.18886719 -14.52636719 26.18242187 -15.30664062 26.17578125 C-16.48516602 26.15064453 -16.48516602 26.15064453 -17.6875 26.125 C-18.48478516 26.11597656 -19.28207031 26.10695313 -20.10351562 26.09765625 C-22.069139 26.07411585 -24.03460775 26.03824547 -26 26 C-26 29.63 -26 33.26 -26 37 C-27.32 37.66 -28.64 38.32 -30 39 C-30.91214879 42.85909105 -31.26132231 45.21603308 -30 49 C-30.66 49 -31.32 49 -32 49 C-31.34 50.65 -30.68 52.3 -30 54 C-33.465 54.495 -33.465 54.495 -37 55 C-37 55.66 -37 56.32 -37 57 C-37.66 57 -38.32 57 -39 57 C-38.67 58.98 -38.34 60.96 -38 63 C-39.32 63 -40.64 63 -42 63 C-41.67 64.65 -41.34 66.3 -41 68 C-41.639375 68.433125 -42.27875 68.86625 -42.9375 69.3125 C-45.26746003 70.91239177 -45.26746003 70.91239177 -46 74 C-46.66 74 -47.32 74 -48 74 C-47.814375 75.19625 -47.62875 76.3925 -47.4375 77.625 C-46.9688803 81.28283707 -47.18518987 84.37862166 -48 88 C-47.01 88 -46.02 88 -45 88 C-43.338845 90.99007901 -42.66703237 93.66483813 -42 97 C-41.34249689 98.33787589 -40.6743074 99.67051448 -40 101 C-39.27612918 102.74363045 -38.56818048 104.49394279 -37.875 106.25 C-37.34519531 107.58804688 -37.34519531 107.58804688 -36.8046875 108.953125 C-36.53914063 109.62859375 -36.27359375 110.3040625 -36 111 C-35.34 111 -34.68 111 -34 111 C-34 111.66 -34 112.32 -34 113 C-33.34 113 -32.68 113 -32 113 C-32 112.01 -32 111.02 -32 110 C-28.94736336 109.01879536 -27.05263664 109.01879536 -24 110 C-24 111.32 -24 112.64 -24 114 C-22.39592672 114.02708567 -20.7917215 114.04643483 -19.1875 114.0625 C-18.29417969 114.07410156 -17.40085938 114.08570312 -16.48046875 114.09765625 C-13.86586209 114.11009967 -13.86586209 114.11009967 -11 113 C-10.01 113.99 -9.02 114.98 -8 116 C-7.67 114.02 -7.34 112.04 -7 110 C-3.04 110 0.92 110 5 110 C4.93489583 112.01822917 4.86979167 114.03645833 4.8046875 116.0546875 C4.81668311 118.23863645 4.81668311 118.23863645 7 120 C9.49248003 119.75879226 10.64630823 119.41967097 12.27734375 117.484375 C14.67579673 115.41768083 16.50194087 115.56522405 19.625 115.4375 C22.51172091 115.35452296 22.51172091 115.35452296 25 115 C25.33 114.34 25.66 113.68 26 113 C28.09230769 117.43076923 28.09230769 117.43076923 27.625 120.3125 C27.41875 120.869375 27.2125 121.42625 27 122 C25.35 122.33 23.7 122.66 22 123 C22 123.66 22 124.32 22 125 C24.31 125 26.62 125 29 125 C17.79186045 131.00436047 -1.10947585 130.04925791 -13.0859375 126.90625 C-31.01717955 120.96927467 -44.39638314 108.89789993 -53.15625 92.46484375 C-56.92379877 84.13509318 -56.97692713 75.98582694 -56.89208984 66.95385742 C-56.87507665 64.19990675 -56.93271295 61.45430592 -56.99609375 58.70117188 C-57.12321998 42.539535 -52.14517255 30.64319246 -41.40234375 18.39453125 C-30.74897243 7.77580504 -15.45849152 -0.83418504 0 0 Z " fill="#DCE0E3" transform="translate(56,0)"/>
    <path d="M0 0 C0 23.76 0 47.52 0 72 C9.0028125 71.8453125 9.0028125 71.8453125 18.1875 71.6875 C20.98577271 71.65015747 20.98577271 71.65015747 23.84057617 71.61206055 C37.79019864 71.35142829 51.51827933 70.7741938 61.8125 60.125 C63.26225997 58.45220003 64.63244711 56.73970662 66 55 C68.35953094 52.64046906 69.77895617 52.50858587 73 52 C73.33 50.02 73.66 48.04 74 46 C75.98 46.495 75.98 46.495 78 47 C77.9278125 47.61488281 77.855625 48.22976562 77.78125 48.86328125 C77.6884375 49.67152344 77.595625 50.47976562 77.5 51.3125 C77.4071875 52.11300781 77.314375 52.91351563 77.21875 53.73828125 C76.95186537 56.11896555 76.95186537 56.11896555 77 59 C76.67 59.99 76.34 60.98 76 62 C75.34 62 74.68 62 74 62 C73.67 62.99 73.34 63.98 73 65 C73.66 65.33 74.32 65.66 75 66 C77.25574473 68.34250414 77.95866719 69.66025343 78.35546875 72.921875 C78 76 78 76 76.19921875 77.94140625 C67.06318656 83.83791225 59.1514372 88.91405223 48 88 C48 87.34 48 86.68 48 86 C49.65 85.34 51.3 84.68 53 84 C52.505 80.535 52.505 80.535 52 77 C50.02463255 77.34786708 50.02463255 77.34786708 48 78 C47.67 78.66 47.34 79.32 47 80 C47 79.34 47 78.68 47 78 C43.535 78.495 43.535 78.495 40 79 C39.505 80.485 39.505 80.485 39 82 C36 84 36 84 33.9375 83.75 C32 83 32 83 30 81 C29.66666667 75.66666667 29.66666667 75.66666667 31 73 C27.04 73 23.08 73 19 73 C18.67 74.98 18.34 76.96 18 79 C17.46375 78.649375 16.9275 78.29875 16.375 77.9375 C13.24831652 76.70328284 11.27856568 77.40985818 8 78 C4.625 77.5625 4.625 77.5625 2 77 C2 75.68 2 74.36 2 73 C-0.64 73 -3.28 73 -6 73 C-6 73.99 -6 74.98 -6 76 C-6.66 76 -7.32 76 -8 76 C-8 75.34 -8 74.68 -8 74 C-9.485 74.495 -9.485 74.495 -11 75 C-11.19335938 74.36191406 -11.38671875 73.72382812 -11.5859375 73.06640625 C-11.84632812 72.24011719 -12.10671875 71.41382812 -12.375 70.5625 C-12.63023438 69.73878906 -12.88546875 68.91507812 -13.1484375 68.06640625 C-13.80882227 65.82201984 -13.80882227 65.82201984 -16 65 C-16.4140625 62.93359375 -16.4140625 62.93359375 -16.625 60.4375 C-16.69976563 59.61121094 -16.77453125 58.78492188 -16.8515625 57.93359375 C-16.90054687 57.29550781 -16.94953125 56.65742187 -17 56 C-17.66 56 -18.32 56 -19 56 C-19 54.35 -19 52.7 -19 51 C-19.99 51 -20.98 51 -22 51 C-22 46.38 -22 41.76 -22 37 C-21.34 37 -20.68 37 -20 37 C-19.896875 36.401875 -19.79375 35.80375 -19.6875 35.1875 C-19 33 -19 33 -17.4375 31.5 C-15.53872976 29.86494057 -15.53872976 29.86494057 -16 26 C-14.68 26 -13.36 26 -12 26 C-12.33 24.02 -12.66 22.04 -13 20 C-12.34 20 -11.68 20 -11 20 C-11 19.34 -11 18.68 -11 18 C-9.02 17.34 -7.04 16.68 -5 16 C-5.165 15.4225 -5.33 14.845 -5.5 14.25 C-6.51602772 9.67787528 -5.75083422 6.23886179 -4 2 C-1 0 -1 0 0 0 Z " fill="#A5A8B7" transform="translate(30,37)"/>
    <path d="M0 0 C24.15789474 0 24.15789474 0 31.875 6.375 C38.52490968 14.58959431 38.58379111 22.81019157 38 33 C36.94282525 40.19211802 35.5889506 46.14004296 30 51 C21 55 21 55 0 55 C0 36.85 0 18.7 0 0 Z " fill="#CED2D6" transform="translate(47,40)"/>
    <path d="M0 0 C0.99 1.32 1.98 2.64 3 4 C0.69 4.33 -1.62 4.66 -4 5 C-4 5.66 -4 6.32 -4 7 C-4.66 7 -5.32 7 -6 7 C-5.67 8.98 -5.34 10.96 -5 13 C-6.32 13 -7.64 13 -9 13 C-8.67 14.65 -8.34 16.3 -8 18 C-8.639375 18.433125 -9.27875 18.86625 -9.9375 19.3125 C-12.26746003 20.91239177 -12.26746003 20.91239177 -13 24 C-13.66 24 -14.32 24 -15 24 C-14.814375 25.19625 -14.62875 26.3925 -14.4375 27.625 C-13.9688803 31.28283707 -14.18518987 34.37862166 -15 38 C-14.01 38 -13.02 38 -12 38 C-10.338845 40.99007901 -9.66703237 43.66483813 -9 47 C-8.34249689 48.33787589 -7.6743074 49.67051448 -7 51 C-6.27612918 52.74363045 -5.56818048 54.49394279 -4.875 56.25 C-4.52179687 57.14203125 -4.16859375 58.0340625 -3.8046875 58.953125 C-3.53914063 59.62859375 -3.27359375 60.3040625 -3 61 C-2.34 61 -1.68 61 -1 61 C-1 61.66 -1 62.32 -1 63 C-0.34 63 0.32 63 1 63 C1 62.01 1 61.02 1 60 C4.05263664 59.01879536 5.94736336 59.01879536 9 60 C9 61.32 9 62.64 9 64 C10.60407328 64.02708567 12.2082785 64.04643483 13.8125 64.0625 C14.70582031 64.07410156 15.59914062 64.08570312 16.51953125 64.09765625 C19.13413791 64.11009967 19.13413791 64.11009967 22 63 C22.99 63.99 23.98 64.98 25 66 C25.33 64.02 25.66 62.04 26 60 C29.96 60 33.92 60 38 60 C37.93489583 62.01822917 37.86979167 64.03645833 37.8046875 66.0546875 C37.81668311 68.23863645 37.81668311 68.23863645 40 70 C42.49248003 69.75879226 43.64630823 69.41967097 45.27734375 67.484375 C47.67579673 65.41768083 49.50194087 65.56522405 52.625 65.4375 C55.51172091 65.35452296 55.51172091 65.35452296 58 65 C58.495 64.01 58.495 64.01 59 63 C61.09230769 67.43076923 61.09230769 67.43076923 60.625 70.3125 C60.41875 70.869375 60.2125 71.42625 60 72 C58.35 72.33 56.7 72.66 55 73 C55 73.66 55 74.32 55 75 C57.31 75 59.62 75 62 75 C50.79186045 81.00436047 31.89052415 80.04925791 19.9140625 76.90625 C4.57211251 71.82658077 -8.65244688 61.75692321 -17 48 C-17.58394531 47.07832031 -18.16789062 46.15664062 -18.76953125 45.20703125 C-24.3140125 35.16983216 -23.61817196 25.17623209 -23 14 C-22.360625 13.71125 -21.72125 13.4225 -21.0625 13.125 C-18.84793921 12.17176549 -18.84793921 12.17176549 -18 10 C-16.68 10 -15.36 10 -14 10 C-14.061875 9.2575 -14.12375 8.515 -14.1875 7.75 C-13.96905704 4.54616994 -13.09749995 3.35968744 -11 1 C-10.01 1.33 -9.02 1.66 -8 2 C-3.66093308 1.86551151 -3.66093308 1.86551151 0 0 Z " fill="#C7CCCE" transform="translate(23,50)"/>
    <path d="M0 0 C4.34682537 1.02759872 8.55029764 2.29892791 12.42041016 4.56494141 C13.11181641 6.61181641 13.11181641 6.61181641 13.42041016 8.56494141 C14.41041016 9.22494141 15.40041016 9.88494141 16.42041016 10.56494141 C15.76041016 12.21494141 15.10041016 13.86494141 14.42041016 15.56494141 C12.77041016 15.56494141 11.12041016 15.56494141 9.42041016 15.56494141 C8.57586659 18.94311565 8.31196097 21.23959384 9.42041016 24.56494141 C8.78103516 24.77119141 8.14166016 24.97744141 7.48291016 25.18994141 C5.06617133 26.45128586 5.06617133 26.45128586 4.79150391 29.65087891 C4.6078125 31.09333984 4.6078125 31.09333984 4.42041016 32.56494141 C3.20804688 32.0409375 3.20804688 32.0409375 1.97119141 31.50634766 C0.90255859 31.05130859 -0.16607422 30.59626953 -1.26708984 30.12744141 C-2.32283203 29.67498047 -3.37857422 29.22251953 -4.46630859 28.75634766 C-9.02037403 27.01357481 -13.24314779 26.43843355 -18.09912109 26.24853516 C-19.12070312 26.20664062 -20.14228516 26.16474609 -21.19482422 26.12158203 C-22.24992187 26.08226563 -23.30501953 26.04294922 -24.39208984 26.00244141 C-25.46652344 25.95925781 -26.54095703 25.91607422 -27.64794922 25.87158203 C-30.29171067 25.76583157 -32.93556095 25.66373907 -35.57958984 25.56494141 C-35.24958984 24.90494141 -34.91958984 24.24494141 -34.57958984 23.56494141 C-33.91958984 23.56494141 -33.25958984 23.56494141 -32.57958984 23.56494141 C-32.57958984 21.58494141 -32.57958984 19.60494141 -32.57958984 17.56494141 C-31.58958984 17.56494141 -30.59958984 17.56494141 -29.57958984 17.56494141 C-29.45583984 16.92556641 -29.33208984 16.28619141 -29.20458984 15.62744141 C-28.99833984 14.94681641 -28.79208984 14.26619141 -28.57958984 13.56494141 C-27.91958984 13.23494141 -27.25958984 12.90494141 -26.57958984 12.56494141 C-22.27669597 9.54511699 -22.27669597 9.54511699 -20.57958984 4.56494141 C-23.54958984 3.57494141 -26.51958984 2.58494141 -29.57958984 1.56494141 C-22.32310852 -3.27271281 -8.3615042 -1.41020258 0 0 Z " fill="#B6BBBD" transform="translate(82.57958984375,0.43505859375)"/>
    <path d="M0 0 C3 1 3 1 4 3 C4.04462909 4.52017837 4.03904545 6.04216797 4 7.5625 C3.96214574 9.04118221 3.95370827 10.52155788 4 12 C4.33 12.33 4.66 12.66 5 13 C7.82699581 29.77350849 5.38958691 40.36750085 -4.171875 54.125 C-7.15295565 57.98023211 -9.99743361 61.19289039 -14 64 C-14.33 61.69 -14.66 59.38 -15 57 C-15.99 56.67 -16.98 56.34 -18 56 C-18.33 54.35 -18.66 52.7 -19 51 C-17.515 50.505 -17.515 50.505 -16 50 C-16 49.01 -16 48.02 -16 47 C-15.505 46.505 -15.505 46.505 -15 46 C-15.33 46 -15.66 46 -16 46 C-15.67 42.7 -15.34 39.4 -15 36 C-15.99 35.67 -16.98 35.34 -18 35 C-17.938125 35.94875 -17.87625 36.8975 -17.8125 37.875 C-17.874375 38.90625 -17.93625 39.9375 -18 41 C-21 43 -21 43 -24 43 C-23.20948639 37.34360652 -22.33397321 31.70298932 -21.4375 26.0625 C-21.22963867 24.75055664 -21.22963867 24.75055664 -21.01757812 23.41210938 C-20.67885739 21.27466474 -20.33949468 19.13732185 -20 17 C-19.01 17.33 -18.02 17.66 -17 18 C-17 17.34 -17 16.68 -17 16 C-16.01 16.33 -15.02 16.66 -14 17 C-14 17.66 -14 18.32 -14 19 C-13.01 18.67 -12.02 18.34 -11 18 C-10.34 18.66 -9.68 19.32 -9 20 C-6.97104162 20.14087999 -6.97104162 20.14087999 -5 19 C-2.7976629 15.41100621 -1.66994412 12.13132209 -1 8 C-0.67 7.01 -0.34 6.02 0 5 C-0.31478446 3.66216607 -0.64587656 2.32796291 -1 1 C-0.67 0.67 -0.34 0.34 0 0 Z " fill="#D4D8DA" transform="translate(122,48)"/>
    <path d="M0 0 C0 22.77 0 45.54 0 69 C-0.99 69.495 -0.99 69.495 -2 70 C-2 69.34 -2 68.68 -2 68 C-3.4540625 67.62875 -3.4540625 67.62875 -4.9375 67.25 C-5.948125 66.8375 -6.95875 66.425 -8 66 C-8.6875 63.9375 -8.6875 63.9375 -9 62 C-9.99 61.67 -10.98 61.34 -12 61 C-14.02851102 57.16836808 -14.49770926 53.26947129 -15 49 C-16.32 48.67 -17.64 48.34 -19 48 C-19 46.68 -19 45.36 -19 44 C-19.66 43.67 -20.32 43.34 -21 43 C-21.625 39.9375 -21.625 39.9375 -22 37 C-21.34 37 -20.68 37 -20 37 C-19.896875 36.401875 -19.79375 35.80375 -19.6875 35.1875 C-19 33 -19 33 -17.4375 31.5 C-15.53872976 29.86494057 -15.53872976 29.86494057 -16 26 C-14.68 26 -13.36 26 -12 26 C-12.33 24.02 -12.66 22.04 -13 20 C-12.34 20 -11.68 20 -11 20 C-11 19.34 -11 18.68 -11 18 C-9.02 17.34 -7.04 16.68 -5 16 C-5.165 15.4225 -5.33 14.845 -5.5 14.25 C-6.51602772 9.67787528 -5.75083422 6.23886179 -4 2 C-1 0 -1 0 0 0 Z " fill="#9FA5A9" transform="translate(30,37)"/>
    <path d="M0 0 C2.475 0.495 2.475 0.495 5 1 C5.33 2.65 5.66 4.3 6 6 C5.01 6.495 5.01 6.495 4 7 C4.33 7.5775 4.66 8.155 5 8.75 C6 11 6 11 6 15 C6.66 15 7.32 15 8 15 C8 15.66 8 16.32 8 17 C11.45800758 17.50227048 14.91645699 18.00143081 18.375 18.5 C19.35984375 18.64308594 20.3446875 18.78617188 21.359375 18.93359375 C22.30039063 19.06894531 23.24140625 19.20429687 24.2109375 19.34375 C25.51490479 19.53227539 25.51490479 19.53227539 26.84521484 19.72460938 C28.96859193 20.04225769 28.96859193 20.04225769 31 20 C31.28875 20.969375 31.5775 21.93875 31.875 22.9375 C32.64214682 26.10664203 32.64214682 26.10664203 35 27 C31.16076104 32.44924239 27.3919322 35.0421434 21 37 C17.28552023 37.43672096 13.67019916 37.38399889 9.9375 37.25 C5.0184375 37.12625 5.0184375 37.12625 0 37 C0 24.79 0 12.58 0 0 Z " fill="#8D959C" transform="translate(47,58)"/>
    <path d="M0 0 C2.66961516 2.38358497 2.99255186 5.15398338 3.75 8.5625 C5.07 8.5625 6.39 8.5625 7.75 8.5625 C7.75 9.2225 7.75 9.8825 7.75 10.5625 C8.41 10.5625 9.07 10.5625 9.75 10.5625 C10.08 9.9025 10.41 9.2425 10.75 8.5625 C11.08 9.5525 11.41 10.5425 11.75 11.5625 C12.74 11.5625 13.73 11.5625 14.75 11.5625 C13.76 10.5725 12.77 9.5825 11.75 8.5625 C12.74 8.2325 13.73 7.9025 14.75 7.5625 C15.08 6.9025 15.41 6.2425 15.75 5.5625 C16.41 5.5625 17.07 5.5625 17.75 5.5625 C17.75 8.5325 17.75 11.5025 17.75 14.5625 C16.76 15.0575 16.76 15.0575 15.75 15.5625 C15.95625 16.614375 16.1625 17.66625 16.375 18.75 C16.76670412 22.73232524 16.41557681 24.0560225 14.75 27.5625 C14.440625 28.75875 14.13125 29.955 13.8125 31.1875 C12.29946996 35.99359541 12.29946996 35.99359541 9.75 37.5625 C7.8125 37.3125 7.8125 37.3125 5.75 36.5625 C4.7290625 36.376875 4.7290625 36.376875 3.6875 36.1875 C1.38048568 35.44330183 0.32325652 34.371745 -1.25 32.5625 C-1.25 33.2225 -1.25 33.8825 -1.25 34.5625 C-2.24 34.2325 -3.23 33.9025 -4.25 33.5625 C-4.42015625 32.58410156 -4.5903125 31.60570312 -4.765625 30.59765625 C-6.13788886 23.05934064 -7.74455486 16.45251286 -11.25 9.5625 C-10.59 9.5625 -9.93 9.5625 -9.25 9.5625 C-8.65267181 6.79985711 -8.25 4.40217231 -8.25 1.5625 C-3.00313808 -0.58394351 -3.00313808 -0.58394351 0 0 Z " fill="#C5CACD" transform="translate(106.25,31.4375)"/>
    <path d="M0 0 C3.96 0 7.92 0 12 0 C11.93489583 2.01822917 11.86979167 4.03645833 11.8046875 6.0546875 C11.81668311 8.23863645 11.81668311 8.23863645 14 10 C16.49248003 9.75879226 17.64630823 9.41967097 19.27734375 7.484375 C21.67579673 5.41768083 23.50194087 5.56522405 26.625 5.4375 C29.51172091 5.35452296 29.51172091 5.35452296 32 5 C32.33 4.34 32.66 3.68 33 3 C35.09230769 7.43076923 35.09230769 7.43076923 34.625 10.3125 C34.41875 10.869375 34.2125 11.42625 34 12 C32.35 12.33 30.7 12.66 29 13 C29 13.66 29 14.32 29 15 C31.31 15 33.62 15 36 15 C28.9609117 18.77094016 21.90262387 18.28888781 14.0625 18.375 C12.80630859 18.41238281 11.55011719 18.44976562 10.25585938 18.48828125 C1.00323365 18.57426332 -5.64228112 16.90244369 -14 13 C-8.54446461 6.02903811 -8.54446461 6.02903811 -5 5 C-2.75 5.375 -2.75 5.375 -1 6 C-0.67 4.02 -0.34 2.04 0 0 Z " fill="#C1C7CA" transform="translate(49,110)"/>
    <path d="M0 0 C1.32 0.33 2.64 0.66 4 1 C3.9278125 1.61488281 3.855625 2.22976562 3.78125 2.86328125 C3.64203125 4.07564453 3.64203125 4.07564453 3.5 5.3125 C3.36078125 6.51326172 3.36078125 6.51326172 3.21875 7.73828125 C2.95186537 10.11896555 2.95186537 10.11896555 3 13 C2.67 13.99 2.34 14.98 2 16 C1.34 16 0.68 16 0 16 C-0.33 16.99 -0.66 17.98 -1 19 C-0.34 19.33 0.32 19.66 1 20 C3.25574473 22.34250414 3.95866719 23.66025343 4.35546875 26.921875 C4 30 4 30 2.19921875 31.94140625 C-6.93681344 37.83791225 -14.8485628 42.91405223 -26 42 C-26 41.34 -26 40.68 -26 40 C-24.35 39.34 -22.7 38.68 -21 38 C-21.33 35.69 -21.66 33.38 -22 31 C-23.97536745 31.34786708 -23.97536745 31.34786708 -26 32 C-26.33 32.66 -26.66 33.32 -27 34 C-27.5625 32.0625 -27.5625 32.0625 -28 30 C-26.13872594 28.13872594 -23.50070864 28.53881861 -21.0078125 28.28125 C-18.79861215 28.0337405 -18.79861215 28.0337405 -16 27 C-15.67 26.01 -15.34 25.02 -15 24 C-14.34 24 -13.68 24 -13 24 C-10.62216162 21.62216162 -10.40990792 20.27926335 -10 17 C-10.33 16.34 -10.66 15.68 -11 15 C-10.12547694 12.05074638 -8.83732696 9.46602881 -7 7 C-3.75 6 -3.75 6 -1 6 C-0.67 4.02 -0.34 2.04 0 0 Z " fill="#ACB2B7" transform="translate(104,83)"/>
    <path d="M0 0 C0.91523437 -0.01611328 1.83046875 -0.03222656 2.7734375 -0.04882812 C3.65257813 -0.04947266 4.53171875 -0.05011719 5.4375 -0.05078125 C6.24058594 -0.05376221 7.04367188 -0.05674316 7.87109375 -0.05981445 C10.50214438 0.40031768 11.4032703 1.20652391 13 3.3125 C13 3.9725 13 4.6325 13 5.3125 C11.9275 5.291875 10.855 5.27125 9.75 5.25 C5.95901798 5.88144822 5.95901798 5.88144822 4.64453125 8.3828125 C3.65208136 10.66867182 2.7706187 12.94320647 2 15.3125 C1.401875 15.126875 0.80375 14.94125 0.1875 14.75 C-2.16408762 14.09156313 -2.16408762 14.09156313 -5 15.3125 C-4.67 17.6225 -4.34 19.9325 -4 22.3125 C-0.7 21.6525 2.6 20.9925 6 20.3125 C6.12375 19.343125 6.2475 18.37375 6.375 17.375 C6.684375 15.8590625 6.684375 15.8590625 7 14.3125 C9.95664519 12.8341774 12.74229737 13.25217217 16 13.3125 C16 13.9725 16 14.6325 16 15.3125 C16.66 15.6425 17.32 15.9725 18 16.3125 C17.67 17.09625 17.34 17.88 17 18.6875 C15.88133489 21.15582497 15.88133489 21.15582497 16 23.3125 C8.48157167 27.76622452 1.98096656 27.65822595 -6.5625 27.0625 C-7.76197266 26.99675781 -8.96144531 26.93101563 -10.19726562 26.86328125 C-13.1332727 26.6995199 -16.06648872 26.51549349 -19 26.3125 C-18.67 25.6525 -18.34 24.9925 -18 24.3125 C-17.34 24.3125 -16.68 24.3125 -16 24.3125 C-16 22.3325 -16 20.3525 -16 18.3125 C-15.01 18.3125 -14.02 18.3125 -13 18.3125 C-12.87625 17.673125 -12.7525 17.03375 -12.625 16.375 C-12.41875 15.694375 -12.2125 15.01375 -12 14.3125 C-11.34 13.9825 -10.68 13.6525 -10 13.3125 C-5.69710612 10.29267559 -5.69710612 10.29267559 -4 5.3125 C-6.97 4.3225 -9.94 3.3325 -13 2.3125 C-8.72800275 -0.53549817 -5.02201715 -0.01768316 0 0 Z " fill="#9299A0" transform="translate(66,-0.3125)"/>
    <path d="M0 0 C3.27105248 -0.05386912 6.54122096 -0.09361007 9.8125 -0.125 C10.74126953 -0.14175781 11.67003906 -0.15851562 12.62695312 -0.17578125 C13.51962891 -0.18222656 14.41230469 -0.18867187 15.33203125 -0.1953125 C16.15421143 -0.20578613 16.9763916 -0.21625977 17.82348633 -0.22705078 C20 0 20 0 23 2 C22.01 2.66 21.02 3.32 20 4 C19.67 3.34 19.34 2.68 19 2 C18.01 1.67 17.02 1.34 16 1 C16.04125 2.11375 16.0825 3.2275 16.125 4.375 C16 8 16 8 14 10 C13.34 9.67 12.68 9.34 12 9 C12.226875 10.0725 12.45375 11.145 12.6875 12.25 C13 16 13 16 11.5625 18.3125 C11.046875 18.869375 10.53125 19.42625 10 20 C10 20.66 10 21.32 10 22 C10.66 22 11.32 22 12 22 C12 23.32 12 24.64 12 26 C11.34 26 10.68 26 10 26 C10.33 28.31 10.66 30.62 11 33 C12.60875 32.4121875 12.60875 32.4121875 14.25 31.8125 C18 31 18 31 20.3125 32.125 C22.00418556 34.00465062 22.92232022 35.73169583 24 38 C22.08268082 37.88544319 20.1661325 37.75793742 18.25 37.625 C17.18265625 37.55539063 16.1153125 37.48578125 15.015625 37.4140625 C12.19793568 37.0271777 10.4169634 36.44313834 8 35 C8 34.34 8 33.68 8 33 C7.34 33 6.68 33 6 33 C5.01 30.03 4.02 27.06 3 24 C3.99 24 4.98 24 6 24 C5.67 22.35 5.34 20.7 5 19 C3.35 18.67 1.7 18.34 0 18 C0 12.06 0 6.12 0 0 Z " fill="#CBD0D3" transform="translate(47,40)"/>
    <path d="M0 0 C0 12.87 0 25.74 0 39 C-2.31 38.01 -4.62 37.02 -7 36 C-10.30128645 37.1915405 -10.30128645 37.1915405 -13 39 C-13.66 39 -14.32 39 -15 39 C-15 39.66 -15 40.32 -15 41 C-17.31 40.67 -19.62 40.34 -22 40 C-22 39.01 -22 38.02 -22 37 C-21.34 37 -20.68 37 -20 37 C-19.896875 36.401875 -19.79375 35.80375 -19.6875 35.1875 C-19 33 -19 33 -17.4375 31.5 C-15.53872976 29.86494057 -15.53872976 29.86494057 -16 26 C-14.68 26 -13.36 26 -12 26 C-12.33 24.02 -12.66 22.04 -13 20 C-12.34 20 -11.68 20 -11 20 C-11 19.34 -11 18.68 -11 18 C-9.02 17.34 -7.04 16.68 -5 16 C-5.165 15.4225 -5.33 14.845 -5.5 14.25 C-6.51602772 9.67787528 -5.75083422 6.23886179 -4 2 C-1 0 -1 0 0 0 Z " fill="#717A81" transform="translate(30,37)"/>
    <path d="M0 0 C1.5625 1.375 1.5625 1.375 3 3 C5.09989652 4.17574711 5.09989652 4.17574711 7 5 C5.71246616 8.96989599 4.43275725 10.6745838 1 13 C0.67 13.66 0.34 14.32 0 15 C-0.66 14.67 -1.32 14.34 -2 14 C-2.33 15.32 -2.66 16.64 -3 18 C-3.99 18 -4.98 18 -6 18 C-5.938125 18.94875 -5.87625 19.8975 -5.8125 20.875 C-5.874375 21.90625 -5.93625 22.9375 -6 24 C-9 26 -9 26 -13 26 C-13 24.02 -13 22.04 -13 20 C-14.32 20.33 -15.64 20.66 -17 21 C-17.6875 17.6875 -17.6875 17.6875 -18 14 C-16.5625 12.0625 -16.5625 12.0625 -15 11 C-14.34 11.66 -13.68 12.32 -13 13 C-10.91666667 12.83333333 -10.91666667 12.83333333 -9 12 C-8.67 11.34 -8.34 10.68 -8 10 C-9.32 9.67 -10.64 9.34 -12 9 C-12 8.34 -12 7.68 -12 7 C-12.66 7 -13.32 7 -14 7 C-14.33 5.35 -14.66 3.7 -15 2 C-13.43883181 1.66048381 -11.87598662 1.32867456 -10.3125 1 C-9.44238281 0.814375 -8.57226562 0.62875 -7.67578125 0.4375 C-5.04004141 0.00654692 -2.66422383 -0.1745526 0 0 Z " fill="#CED3D6" transform="translate(56,0)"/>
    <path d="M0 0 C0 0.99 0 1.98 0 3 C0.66 3 1.32 3 2 3 C2 3.66 2 4.32 2 5 C3.65 5 5.3 5 7 5 C6.3125 6.9375 6.3125 6.9375 5 9 C2.375 9.75 2.375 9.75 0 10 C-0.33 9.34 -0.66 8.68 -1 8 C-1.66 8 -2.32 8 -3 8 C-3 10.97 -3 13.94 -3 17 C-1.35 16.34 0.3 15.68 2 15 C1.67 17.31 1.34 19.62 1 22 C-3.29 22 -7.58 22 -12 22 C-10.68 21.67 -9.36 21.34 -8 21 C-8 20.01 -8 19.02 -8 18 C-8.66 17.34 -9.32 16.68 -10 16 C-10.40047444 13.67724823 -10.7397104 11.34260643 -11 9 C-14.3 9.66 -17.6 10.32 -21 11 C-21 11.66 -21 12.32 -21 13 C-21.66 13 -22.32 13 -23 13 C-20.17343887 6.09724019 -12.11023707 2.92685629 -5.82421875 -0.43359375 C-3.54888393 -1.14006816 -2.22519324 -0.75155533 0 0 Z " fill="#D5DADE" transform="translate(42,4)"/>
    <path d="M0 0 C1.98 0 3.96 0 6 0 C6.28875 0.969375 6.5775 1.93875 6.875 2.9375 C7.64214682 6.10664203 7.64214682 6.10664203 10 7 C6.21370779 12.37409217 2.42067335 15.29435548 -4 17 C-7.6968537 17.2957483 -11.30201545 17.24883634 -15 17 C-15 14.36 -15 11.72 -15 9 C-13.865625 8.71125 -12.73125 8.4225 -11.5625 8.125 C-10.386875 7.75375 -9.21125 7.3825 -8 7 C-7.67 6.34 -7.34 5.68 -7 5 C-3.9375 4.375 -3.9375 4.375 -1 4 C-0.67 2.68 -0.34 1.36 0 0 Z " fill="#AAB0B6" transform="translate(72,78)"/>
    <path d="M0 0 C0.66 0.66 1.32 1.32 2 2 C0.02 2.33 -1.96 2.66 -4 3 C-4.33 4.32 -4.66 5.64 -5 7 C-4.07316406 7.04898437 -3.14632812 7.09796875 -2.19140625 7.1484375 C-0.99386719 7.22320313 0.20367187 7.29796875 1.4375 7.375 C3.22994141 7.47941406 3.22994141 7.47941406 5.05859375 7.5859375 C6.51458984 7.79089844 6.51458984 7.79089844 8 8 C8.33 8.66 8.66 9.32 9 10 C11.01669827 11.13350534 11.01669827 11.13350534 13 12 C12.4740625 13.36125 12.4740625 13.36125 11.9375 14.75 C11.03531221 17.87758436 10.86618493 19.05208081 12 22 C11.01 22 10.02 22 9 22 C9 22.66 9 23.32 9 24 C8.01 23.67 7.02 23.34 6 23 C6 22.34 6 21.68 6 21 C5.01 21.33 4.02 21.66 3 22 C3 22.99 3 23.98 3 25 C1.02 24.34 -0.96 23.68 -3 23 C3 19 3 19 6 19 C5.79375 18.401875 5.5875 17.80375 5.375 17.1875 C5 15 5 15 7 12 C6.67 11.01 6.34 10.02 6 9 C1.545 9.495 1.545 9.495 -3 10 C-3.061875 10.94875 -3.12375 11.8975 -3.1875 12.875 C-4 16 -4 16 -6.25 17.375 C-8.94548449 17.98761011 -11.24720295 18.15730269 -14 18 C-15.0625 15.625 -15.0625 15.625 -16 13 C-15.67 12.34 -15.34 11.68 -15 11 C-14.34 11 -13.68 11 -13 11 C-12.67 10.34 -12.34 9.68 -12 9 C-10.68 9.66 -9.36 10.32 -8 11 C-7.71125 9.72125 -7.4225 8.4425 -7.125 7.125 C-6.45897517 4.17546145 -6.19797403 3.19797403 -4 1 C-2 0.25 -2 0.25 0 0 Z " fill="#A8AEB2" transform="translate(76,4)"/>
    <path d="M0 0 C1.97212079 2.73905666 1.99766257 4.02142646 1.625 7.4375 C-0.54356668 12.19166542 -3.22996631 14.02705413 -8 16 C-10.67813937 16.5393155 -13.27161858 16.7606683 -16 17 C-16.33 17.66 -16.66 18.32 -17 19 C-19.97 19 -22.94 19 -26 19 C-26.33 17.02 -26.66 15.04 -27 13 C-26.02160156 12.78085938 -25.04320313 12.56171875 -24.03515625 12.3359375 C-14.4953472 10.07516346 -6.95572409 7.23481178 0 0 Z " fill="#98A0A7" transform="translate(93,96)"/>
    <path d="M0 0 C1.32 0.33 2.64 0.66 4 1 C3.9278125 1.61488281 3.855625 2.22976562 3.78125 2.86328125 C3.6884375 3.67152344 3.595625 4.47976562 3.5 5.3125 C3.4071875 6.11300781 3.314375 6.91351563 3.21875 7.73828125 C2.95186537 10.11896555 2.95186537 10.11896555 3 13 C2.67 13.99 2.34 14.98 2 16 C1.34 16 0.68 16 0 16 C-0.33 16.99 -0.66 17.98 -1 19 C-0.34 19.33 0.32 19.66 1 20 C3.25721806 22.34403414 3.95990486 23.75942918 4.5 27 C4 30 4 30 1.5 32.375 C0.675 32.91125 -0.15 33.4475 -1 34 C-1.66 33.67 -2.32 33.34 -3 33 C-3 32.01 -3 31.02 -3 30 C-3.66 29.67 -4.32 29.34 -5 29 C-5.125 21.25 -5.125 21.25 -4 19 C-4.66 18.67 -5.32 18.34 -6 18 C-6 14.33333333 -6 10.66666667 -6 7 C-4.35 6.67 -2.7 6.34 -1 6 C-0.67 4.02 -0.34 2.04 0 0 Z " fill="#BDC3C6" transform="translate(104,83)"/>
    <path d="M0 0 C0.33 0 0.66 0 1 0 C1.33 1.65 1.66 3.3 2 5 C2.99 4.01 3.98 3.02 5 2 C5 2.99 5 3.98 5 5 C6.11375 4.4121875 6.11375 4.4121875 7.25 3.8125 C10 3 10 3 12.3125 4.25 C14 6 14 6 14 8 C14.66 8.33 15.32 8.66 16 9 C15.67 9.66 15.34 10.32 15 11 C14.01 11.33 13.02 11.66 12 12 C12.33 14.97 12.66 17.94 13 21 C11.35 21.66 9.7 22.32 8 23 C7.34 22.01 6.68 21.02 6 20 C5.67 20 5.34 20 5 20 C5.33 16.7 5.66 13.4 6 10 C5.01 9.67 4.02 9.34 3 9 C3.061875 9.94875 3.12375 10.8975 3.1875 11.875 C3.125625 12.90625 3.06375 13.9375 3 15 C0 17 0 17 -3 17 C-2.25339288 11.27601207 -1.17122859 5.65146223 0 0 Z " fill="#C8CCD2" transform="translate(101,74)"/>
    <path d="M0 0 C0.99 0.33 1.98 0.66 3 1 C3 2.32 3 3.64 3 5 C4.98 5 6.96 5 9 5 C9 4.34 9 3.68 9 3 C9.99 3 10.98 3 12 3 C13.66666667 4.66666667 15.33333333 6.33333333 17 8 C17.66 7.67 18.32 7.34 19 7 C19.625 8.875 19.625 8.875 20 11 C17.33041474 13.66958526 15.9202486 13.36076877 12.1875 13.4375 C4.73255296 13.36261772 -1.28852719 11.07563402 -8 8 C-3.375 2.25 -3.375 2.25 0 0 Z " fill="#D2D6D9" transform="translate(43,115)"/>
    <path d="M0 0 C0.99 1.32 1.98 2.64 3 4 C0.69 4.33 -1.62 4.66 -4 5 C-4 5.66 -4 6.32 -4 7 C-4.66 7 -5.32 7 -6 7 C-5.67 8.98 -5.34 10.96 -5 13 C-6.32 13 -7.64 13 -9 13 C-8.67 14.65 -8.34 16.3 -8 18 C-8.639375 18.433125 -9.27875 18.86625 -9.9375 19.3125 C-12.26746003 20.91239177 -12.26746003 20.91239177 -13 24 C-13.66 24 -14.32 24 -15 24 C-15 24.66 -15 25.32 -15 26 C-15.66 26 -16.32 26 -17 26 C-17.33 25.34 -17.66 24.68 -18 24 C-18.66 24 -19.32 24 -20 24 C-18.54616376 19.88079732 -16.43337681 16.61081721 -14 13 C-12.73647126 10.11266038 -12.73647126 10.11266038 -13.625 7.5625 C-14 5 -14 5 -12.5625 2.6875 C-12.046875 2.130625 -11.53125 1.57375 -11 1 C-10.01 1.33 -9.02 1.66 -8 2 C-3.66093308 1.86551151 -3.66093308 1.86551151 0 0 Z " fill="#B4BABE" transform="translate(23,50)"/>
    <path d="M0 0 C2.60870225 2.30769814 2.52967823 4.65586147 2.9375 8 C3.79201607 11.0296479 4.99301784 11.82434964 7.625 13.4375 C7.295 15.4175 6.965 17.3975 6.625 19.4375 C5.16315942 19.20889942 3.70544581 18.95379608 2.25 18.6875 C1.43789062 18.54828125 0.62578125 18.4090625 -0.2109375 18.265625 C-2.375 17.4375 -2.375 17.4375 -3.6640625 15.359375 C-4.01597656 14.40804687 -4.01597656 14.40804687 -4.375 13.4375 C-5.035 13.4375 -5.695 13.4375 -6.375 13.4375 C-6.375 12.7775 -6.375 12.1175 -6.375 11.4375 C-7.035 11.4375 -7.695 11.4375 -8.375 11.4375 C-8.16875 10.880625 -7.9625 10.32375 -7.75 9.75 C-7.26804789 6.777962 -8.10934972 5.11770059 -9.375 2.4375 C-3.05357143 -0.72321429 -3.05357143 -0.72321429 0 0 Z " fill="#B0B6B9" transform="translate(106.375,31.5625)"/>
    <path d="M0 0 C0.93423645 3.01031744 1.04449911 3.86650268 0 7 C0 7.99 0 8.98 0 10 C0.99 10 1.98 10 3 10 C2.67 11.32 2.34 12.64 2 14 C1.360625 13.443125 0.72125 12.88625 0.0625 12.3125 C-4.08113132 10.53665801 -6.13981389 11.6658008 -10.20703125 13.23828125 C-10.79871094 13.48964844 -11.39039063 13.74101563 -12 14 C-12 14.66 -12 15.32 -12 16 C-14.31 15.67 -16.62 15.34 -19 15 C-19 14.01 -19 13.02 -19 12 C-18.34 12 -17.68 12 -17 12 C-16.896875 11.401875 -16.79375 10.80375 -16.6875 10.1875 C-16 8 -16 8 -14.4375 6.5 C-12.53872976 4.86494057 -12.53872976 4.86494057 -13 1 C-11.68 1.33 -10.36 1.66 -9 2 C-9 2.66 -9 3.32 -9 4 C-8.67 4.66 -8.34 5.32 -8 6 C-8.33 6.66 -8.66 7.32 -9 8 C-7.4166747 6.7511573 -7.4166747 6.7511573 -6 5 C-6 3.68 -6 2.36 -6 1 C-3 0 -3 0 0 0 Z " fill="#899096" transform="translate(27,62)"/>
    <path d="M0 0 C0.33 0 0.66 0 1 0 C1 1.98 1 3.96 1 6 C0.360625 6.185625 -0.27875 6.37125 -0.9375 6.5625 C-3.38658928 7.92884792 -3.38658928 7.92884792 -3.8125 11.4375 C-4.21572105 14.96225747 -4.21572105 14.96225747 -3 18 C-6.3497658 21.3497658 -9.56756659 21.47927626 -14.07421875 21.7890625 C-16.00598803 21.7973509 -16.00598803 21.7973509 -17 23 C-17.99 23.33 -18.98 23.66 -20 24 C-19.979375 23.195625 -19.95875 22.39125 -19.9375 21.5625 C-19.70366379 19.06645115 -19.70366379 19.06645115 -21 18 C-20.71269945 15.66055264 -20.38063221 13.3260857 -20 11 C-19.01 11.33 -18.02 11.66 -17 12 C-16.67 12.99 -16.34 13.98 -16 15 C-16 14.34 -16 13.68 -16 13 C-15.01 12.67 -14.02 12.34 -13 12 C-12.01 13.485 -12.01 13.485 -11 15 C-9.43750191 13.68798827 -9.43750191 13.68798827 -8 12 C-8 11.01 -8 10.02 -8 9 C-6.625 7.3125 -6.625 7.3125 -5 6 C-4.34 6 -3.68 6 -3 6 C-3 5.34 -3 4.68 -3 4 C-2.34 3.67 -1.68 3.34 -1 3 C-0.67 2.01 -0.34 1.02 0 0 Z M-25 19 C-22 20 -22 20 -22 20 Z " fill="#C7CCCF" transform="translate(29,31)"/>
    <path d="M0 0 C1.98 0 3.96 0 6 0 C4.46162154 3.19624262 2.71133468 6.21605574 0.875 9.25 C0.33617187 10.14203125 -0.20265625 11.0340625 -0.7578125 11.953125 C-1.16773438 12.62859375 -1.57765625 13.3040625 -2 14 C-1.01 13.67 -0.02 13.34 1 13 C1 13.99 1 14.98 1 16 C1.99 16.33 2.98 16.66 4 17 C4.0270043 18.45823212 4.04639787 19.91660675 4.0625 21.375 C4.07410156 22.18710938 4.08570313 22.99921875 4.09765625 23.8359375 C4 26 4 26 3 28 C3.99 28 4.98 28 6 28 C8.19470368 31.95046662 9 35.48763697 9 40 C8.34 40 7.68 40 7 40 C7 39.34 7 38.68 7 38 C6.34 38 5.68 38 5 38 C4.34 35.36 3.68 32.72 3 30 C2.34 30.99 1.68 31.98 1 33 C-0.90423466 31.09576534 -0.4259749 27.71526887 -0.62109375 25.12890625 C-0.82776636 22.79072597 -0.82776636 22.79072597 -3 21 C-3.265625 18.50390625 -3.265625 18.50390625 -3.25 15.5625 C-3.25515625 14.59441406 -3.2603125 13.62632813 -3.265625 12.62890625 C-3 10 -3 10 -1 7 C-1 6.01 -1 5.02 -1 4 C-0.34 3.34 0.32 2.68 1 2 C0.67 1.34 0.34 0.68 0 0 Z " fill="#BFC5C8" transform="translate(5,60)"/>
    <path d="M0 0 C0.433125 0.495 0.86625 0.99 1.3125 1.5 C2.99740483 3.33218192 2.99740483 3.33218192 6 3 C6 3.66 6 4.32 6 5 C6.66 5 7.32 5 8 5 C8.33 4.34 8.66 3.68 9 3 C9.33 3.99 9.66 4.98 10 6 C10.99 6 11.98 6 13 6 C12.01 5.01 11.02 4.02 10 3 C10.99 2.67 11.98 2.34 13 2 C13.33 1.34 13.66 0.68 14 0 C14.66 0 15.32 0 16 0 C16 2.97 16 5.94 16 9 C15.01 9.495 15.01 9.495 14 10 C12.86649466 12.01669827 12.86649466 12.01669827 12 14 C11.34 14 10.68 14 10 14 C9.67 15.65 9.34 17.3 9 19 C7.02 18.67 5.04 18.34 3 18 C3 17.34 3 16.68 3 16 C2.01 15.67 1.02 15.34 0 15 C-0.33 14.01 -0.66 13.02 -1 12 C0.65 12 2.3 12 4 12 C4.33 12.66 4.66 13.32 5 14 C5.33 12.02 5.66 10.04 6 8 C5.195625 7.79375 4.39125 7.5875 3.5625 7.375 C2.2940625 6.694375 2.2940625 6.694375 1 6 C0.1875 2.875 0.1875 2.875 0 0 Z " fill="#BCC2C5" transform="translate(108,37)"/>
    <path d="M0 0 C0.99 0.33 1.98 0.66 3 1 C3 2.32 3 3.64 3 5 C4.32 5 5.64 5 7 5 C7.06058594 5.66386719 7.12117188 6.32773438 7.18359375 7.01171875 C7.79863507 13.54908081 7.79863507 13.54908081 9 20 C9.66 20 10.32 20 11 20 C11 21.65 11 23.3 11 25 C13.31 25.33 15.62 25.66 18 26 C18.33 26.99 18.66 27.98 19 29 C17.68 29.33 16.36 29.66 15 30 C15 30.99 15 31.98 15 33 C14.34 33 13.68 33 13 33 C13 32.34 13 31.68 13 31 C12.01 31.33 11.02 31.66 10 32 C9.70996094 31.04287109 9.70996094 31.04287109 9.4140625 30.06640625 C9.15367188 29.24011719 8.89328125 28.41382812 8.625 27.5625 C8.36976562 26.73878906 8.11453125 25.91507813 7.8515625 25.06640625 C7.19117773 22.82201984 7.19117773 22.82201984 5 22 C4.5859375 19.93359375 4.5859375 19.93359375 4.375 17.4375 C4.30023437 16.61121094 4.22546875 15.78492187 4.1484375 14.93359375 C4.09945313 14.29550781 4.05046875 13.65742187 4 13 C3.34 13 2.68 13 2 13 C2 11.35 2 9.7 2 8 C1.01 8 0.02 8 -1 8 C-1.04241723 5.66705225 -1.04092937 3.33297433 -1 1 C-0.67 0.67 -0.34 0.34 0 0 Z " fill="#B6BCBF" transform="translate(9,80)"/>
    <path d="M0 0 C1.5625 1.375 1.5625 1.375 3 3 C5.09989652 4.17574711 5.09989652 4.17574711 7 5 C5.71246616 8.96989599 4.43275725 10.6745838 1 13 C0.67 13.66 0.34 14.32 0 15 C-0.66 14.67 -1.32 14.34 -2 14 C-2.33 15.32 -2.66 16.64 -3 18 C-3.99 18 -4.98 18 -6 18 C-6 19.98 -6 21.96 -6 24 C-7.98 24.99 -7.98 24.99 -10 26 C-10.75 23.25 -10.75 23.25 -11 20 C-9.125 17.75 -9.125 17.75 -7 16 C-6.67 15.34 -6.34 14.68 -6 14 C-5.34 14 -4.68 14 -4 14 C-2.5268006 11.25002779 -1.77595125 9.10380501 -1 6 C-4.3 5.34 -7.6 4.68 -11 4 C-10.67 3.01 -10.34 2.02 -10 1 C-6.60647414 0.22433695 -3.47914854 -0.36622616 0 0 Z " fill="#B0B6BA" transform="translate(56,0)"/>
    <path d="M0 0 C0 0.66 0 1.32 0 2 C0.66 2.33 1.32 2.66 2 3 C1.67 3.78375 1.34 4.5675 1 5.375 C-0.11866511 7.84332497 -0.11866511 7.84332497 0 10 C-6.95016877 13.99849216 -12.15617797 14.34884416 -20 13 C-19.67 12.01 -19.34 11.02 -19 10 C-12.25 8.875 -12.25 8.875 -10 10 C-9.95101562 9.36191406 -9.90203125 8.72382813 -9.8515625 8.06640625 C-9.77679688 7.24011719 -9.70203125 6.41382813 -9.625 5.5625 C-9.55539063 4.73878906 -9.48578125 3.91507813 -9.4140625 3.06640625 C-9.27742188 2.38449219 -9.14078125 1.70257813 -9 1 C-6.04335481 -0.4783226 -3.25770263 -0.06032783 0 0 Z " fill="#838A90" transform="translate(82,13)"/>
    <path d="M0 0 C3.27075883 -0.0580476 6.54138524 -0.09361165 9.8125 -0.125 C10.74126953 -0.14175781 11.67003906 -0.15851562 12.62695312 -0.17578125 C13.51962891 -0.18222656 14.41230469 -0.18867187 15.33203125 -0.1953125 C16.15421143 -0.20578613 16.9763916 -0.21625977 17.82348633 -0.22705078 C20 0 20 0 23 2 C22.01 2.66 21.02 3.32 20 4 C19.67 3.34 19.34 2.68 19 2 C18.01 1.67 17.02 1.34 16 1 C16.04125 2.11375 16.0825 3.2275 16.125 4.375 C16 8 16 8 14 10 C11.67724823 10.40047444 9.34260643 10.7397104 7 11 C6.67 8.69 6.34 6.38 6 4 C4.02 4 2.04 4 0 4 C0 2.68 0 1.36 0 0 Z " fill="#BCC0C8" transform="translate(47,40)"/>
    <path d="M0 0 C0.91523437 -0.01611328 1.83046875 -0.03222656 2.7734375 -0.04882812 C3.65257813 -0.04947266 4.53171875 -0.05011719 5.4375 -0.05078125 C6.24058594 -0.05376221 7.04367188 -0.05674316 7.87109375 -0.05981445 C10.50214438 0.40031768 11.4032703 1.20652391 13 3.3125 C13 3.9725 13 4.6325 13 5.3125 C11.9275 5.291875 10.855 5.27125 9.75 5.25 C5.95901798 5.88144822 5.95901798 5.88144822 4.64453125 8.3828125 C3.65208136 10.66867182 2.7706187 12.94320647 2 15.3125 C1 12.3125 1 12.3125 1 8.3125 C-0.32 7.9825 -1.64 7.6525 -3 7.3125 C-3.33 7.9725 -3.66 8.6325 -4 9.3125 C-4 7.9925 -4 6.6725 -4 5.3125 C-6.97 4.3225 -9.94 3.3325 -13 2.3125 C-8.72800275 -0.53549817 -5.02201715 -0.01768316 0 0 Z " fill="#9EA5A9" transform="translate(66,-0.3125)"/>
    <path d="M0 0 C5.49152542 0.61016949 5.49152542 0.61016949 7.875 2.4375 C9 4 9 4 9 6 C9.66 6 10.32 6 11 6 C10.7215625 7.36125 10.7215625 7.36125 10.4375 8.75 C10.04265379 11.68314324 10.05308428 13.2644657 11 16 C12.0725 15.608125 13.145 15.21625 14.25 14.8125 C18 14 18 14 20.3125 15.125 C22.00418556 17.00465062 22.92232022 18.73169583 24 21 C22.08268082 20.88544319 20.1661325 20.75793742 18.25 20.625 C17.18265625 20.55539063 16.1153125 20.48578125 15.015625 20.4140625 C12.19793568 20.0271777 10.4169634 19.44313834 8 18 C8 17.34 8 16.68 8 16 C7.34 16 6.68 16 6 16 C5.01 13.03 4.02 10.06 3 7 C3.99 7 4.98 7 6 7 C5.67 5.35 5.34 3.7 5 2 C3.35 1.67 1.7 1.34 0 1 C0 0.67 0 0.34 0 0 Z " fill="#B2B9BD" transform="translate(47,57)"/>
    <path d="M0 0 C4.42350331 0.50554324 6.78071602 1.95015202 10 5 C13.11450382 9.15267176 13.11450382 9.15267176 12.6875 12.3125 C12.460625 12.869375 12.23375 13.42625 12 14 C10.35 14.33 8.7 14.66 7 15 C6.67 14.34 6.34 13.68 6 13 C5.195625 12.71125 4.39125 12.4225 3.5625 12.125 C1 11 1 11 -0.375 9.3125 C-1.26232255 6.02940656 -0.63470425 3.30046211 0 0 Z " fill="#C5C9CF" transform="translate(70,42)"/>
    <path d="M0 0 C7.61665172 3.13321355 13.64678354 11.68389136 17 19 C16.67 19.66 16.34 20.32 16 21 C14.35 21 12.7 21 11 21 C11.33 20.34 11.66 19.68 12 19 C12.66 19 13.32 19 14 19 C13.01 18.01 12.02 17.02 11 16 C10.67 16.99 10.34 17.98 10 19 C9.34 19 8.68 19 8 19 C8 18.34 8 17.68 8 17 C6.35 17.33 4.7 17.66 3 18 C3 13.66666667 3 9.33333333 3 5 C2.01 4.34 1.02 3.68 0 3 C0 2.01 0 1.02 0 0 Z " fill="#CFD3D4" transform="translate(107,14)"/>
    <path d="M0 0 C0.103125 0.639375 0.20625 1.27875 0.3125 1.9375 C0.6528125 2.9584375 0.6528125 2.9584375 1 4 C1.99 4.33 2.98 4.66 4 5 C4 5.66 4 6.32 4 7 C4.66 7 5.32 7 6 7 C6 7.99 6 8.98 6 10 C6.66 10.66 7.32 11.32 8 12 C2.4477112 14.8352113 -1.80112515 15.37952295 -8 15 C-8 14.34 -8 13.68 -8 13 C-6.35 12.34 -4.7 11.68 -3 11 C-3.33 8.69 -3.66 6.38 -4 4 C-5.97536745 4.34786708 -5.97536745 4.34786708 -8 5 C-8.33 5.66 -8.66 6.32 -9 7 C-9.5625 5.0625 -9.5625 5.0625 -10 3 C-8.18808118 1.18808118 -5.27648701 1.5276487 -2.8125 1.28125 C-0.9832467 1.18001957 -0.9832467 1.18001957 0 0 Z " fill="#B5BBBF" transform="translate(86,110)"/>
    <path d="M0 0 C3.96 0 7.92 0 12 0 C12 2.97 12 5.94 12 9 C10.02 9.33 8.04 9.66 6 10 C6 9.34 6 8.68 6 8 C5.01 8 4.02 8 3 8 C3 8.66 3 9.32 3 10 C1.02 10 -0.96 10 -3 10 C-3 8.68 -3 7.36 -3 6 C-2.34 6 -1.68 6 -1 6 C-0.67 4.02 -0.34 2.04 0 0 Z " fill="#B9BFC3" transform="translate(49,110)"/>
    <path d="M0 0 C0 4.62 0 9.24 0 14 C-3 15 -3 15 -7 15 C-7.66 14.01 -8.32 13.02 -9 12 C-9.66 12 -10.32 12 -11 12 C-10.6875 10.125 -10.6875 10.125 -10 8 C-9.01 7.34 -8.02 6.68 -7 6 C-6.27034634 3.43717258 -6.27034634 3.43717258 -6 1 C-3 0 -3 0 0 0 Z " fill="#8D9499" transform="translate(30,85)"/>
    <path d="M0 0 C0 5.28 0 10.56 0 16 C-0.99 16 -1.98 16 -3 16 C-3 16.99 -3 17.98 -3 19 C-5.31 19 -7.62 19 -10 19 C-10.33 20.65 -10.66 22.3 -11 24 C-11.66 23.67 -12.32 23.34 -13 23 C-13 22.01 -13 21.02 -13 20 C-12.34 20 -11.68 20 -11 20 C-11 19.34 -11 18.68 -11 18 C-9.02 17.34 -7.04 16.68 -5 16 C-5.2475 15.13375 -5.2475 15.13375 -5.5 14.25 C-6.51602772 9.67787528 -5.75083422 6.23886179 -4 2 C-1 0 -1 0 0 0 Z " fill="#8C939A" transform="translate(30,37)"/>
    <path d="M0 0 C1.99965715 0.03703069 4.00056665 0.04760556 6 0 C4.68 0.33 3.36 0.66 2 1 C2 3.64 2 6.28 2 9 C-1.3 9 -4.6 9 -8 9 C-8 6.03 -8 3.06 -8 0 C-5.13118749 -1.43440626 -3.12952645 -0.54164881 0 0 Z " fill="#8C949A" transform="translate(55,86)"/>
    <path d="M0 0 C0.99 0.33 1.98 0.66 3 1 C3 2.65 3 4.3 3 6 C2.360625 6.268125 1.72125 6.53625 1.0625 6.8125 C-1.33131686 7.88667752 -1.33131686 7.88667752 -2 11 C-1.34 11 -0.68 11 0 11 C0.33 10.34 0.66 9.68 1 9 C1.33 10.65 1.66 12.3 2 14 C2.66 14 3.32 14 4 14 C4.33 13.01 4.66 12.02 5 11 C5.66 11.66 6.32 12.32 7 13 C7.66 13 8.32 13 9 13 C9 15.31 9 17.62 9 20 C8.34 20.33 7.68 20.66 7 21 C7 20.34 7 19.68 7 19 C6.030625 18.7525 5.06125 18.505 4.0625 18.25 C3.051875 17.8375 2.04125 17.425 1 17 C0.3125 14.9375 0.3125 14.9375 0 13 C-0.99 12.67 -1.98 12.34 -3 12 C-4.375 10.375 -4.375 10.375 -5 8 C-2.75510204 1.37755102 -2.75510204 1.37755102 0 0 Z " fill="#9AA1A6" transform="translate(21,86)"/>
    <path d="M0 0 C0.66 0 1.32 0 2 0 C1.34 1.65 0.68 3.3 0 5 C1.65 5 3.3 5 5 5 C4.67 4.01 4.34 3.02 4 2 C7.20380017 -0.13586678 8.01939967 -0.23132175 11.6875 -0.125 C12.89986328 -0.09792969 12.89986328 -0.09792969 14.13671875 -0.0703125 C15.05904297 -0.03550781 15.05904297 -0.03550781 16 0 C14.25 3.875 14.25 3.875 12 5 C11.67 5.99 11.34 6.98 11 8 C7.98735648 8.59222907 5.07583023 9.05823431 2 9 C-0.5625 7.0625 -0.5625 7.0625 -2 5 C-1.34 3.35 -0.68 1.7 0 0 Z " fill="#757E86" transform="translate(50,78)"/>
    <path d="M0 0 C2.31 0 4.62 0 7 0 C8 3 8 3 8 4 C8.66 4 9.32 4 10 4 C10 4.99 10 5.98 10 7 C10.99 6.67 11.98 6.34 13 6 C13.33 6.99 13.66 7.98 14 9 C12.68 9.33 11.36 9.66 10 10 C9.87625 10.804375 9.7525 11.60875 9.625 12.4375 C9.41875 13.283125 9.2125 14.12875 9 15 C8.01 15.495 8.01 15.495 7 16 C6.67 13.69 6.34 11.38 6 9 C4.68 8.67 3.36 8.34 2 8 C2 6.68 2 5.36 2 4 C1.34 3.67 0.68 3.34 0 3 C0 2.01 0 1.02 0 0 Z " fill="#A8AEB2" transform="translate(9,77)"/>
    <path d="M0 0 C2.31 0.33 4.62 0.66 7 1 C6.649375 2.0725 6.29875 3.145 5.9375 4.25 C4.93284239 8.25435111 4.93284239 8.25435111 6 12 C5.01 12 4.02 12 3 12 C3 12.66 3 13.32 3 14 C2.01 13.67 1.02 13.34 0 13 C0 12.34 0 11.68 0 11 C-0.99 11.33 -1.98 11.66 -3 12 C-3 12.99 -3 13.98 -3 15 C-4.98 14.34 -6.96 13.68 -9 13 C-3 9 -3 9 0 9 C-0.20625 8.401875 -0.4125 7.80375 -0.625 7.1875 C-1 5 -1 5 1 2 C0.67 1.34 0.34 0.68 0 0 Z " fill="#A3A9AD" transform="translate(82,14)"/>
    <path d="M0 0 C1.32 0 2.64 0 4 0 C4 0.66 4 1.32 4 2 C4.66 2 5.32 2 6 2 C6 2.66 6 3.32 6 4 C6.61359375 4.05027344 7.2271875 4.10054688 7.859375 4.15234375 C10 5 10 5 11.265625 7.50390625 C11.59046875 8.51324219 11.9153125 9.52257812 12.25 10.5625 C12.58515625 11.57441406 12.9203125 12.58632812 13.265625 13.62890625 C13.62914062 14.80259766 13.62914062 14.80259766 14 16 C11 16 11 16 9.0625 14.20703125 C8.381875 13.41683594 7.70125 12.62664062 7 11.8125 C6.319375 11.03519531 5.63875 10.25789063 4.9375 9.45703125 C-0 3.19556452 -0 3.19556452 0 0 Z " fill="#D9DCDD" transform="translate(6,96)"/>
    <path d="M0 0 C1.32 0.33 2.64 0.66 4 1 C3.71926927 3.14729141 3.42511501 5.29283193 3.125 7.4375 C2.96257813 8.63246094 2.80015625 9.82742187 2.6328125 11.05859375 C2.31957031 12.51458984 2.31957031 12.51458984 2 14 C1.01 14.495 1.01 14.495 0 15 C-0.33 13.35 -0.66 11.7 -1 10 C-1.66 10 -2.32 10 -3 10 C-3.33 10.66 -3.66 11.32 -4 12 C-4.66 12 -5.32 12 -6 12 C-5.56179109 7.44262737 -5.14958831 4.42346555 -2 1 C-1.34 1.33 -0.68 1.66 0 2 C0 1.34 0 0.68 0 0 Z " fill="#DDE0E2" transform="translate(6,35)"/>
    <path d="M0 0 C2.94990272 2.94990272 3.89826187 5.71733382 4.22705078 9.86254883 C4.21657715 10.88372803 4.20610352 11.90490723 4.1953125 12.95703125 C4.18886719 14.06884766 4.18242187 15.18066406 4.17578125 16.32617188 C4.15902344 17.47666016 4.14226562 18.62714844 4.125 19.8125 C4.11597656 20.98232422 4.10695312 22.15214844 4.09765625 23.35742188 C4.07413732 26.23849053 4.04126852 29.11913989 4 32 C3.67 32 3.34 32 3 32 C2.855625 30.88625 2.71125 29.7725 2.5625 28.625 C2.21627965 25.17857953 2.21627965 25.17857953 1 23 C1 20.33333333 1 17.66666667 1 15 C0.67 14.34 0.34 13.68 0 13 C-0.99 13 -1.98 13 -3 13 C-2.67 12.01 -2.34 11.02 -2 10 C-1.34 10 -0.68 10 0 10 C-0.2784375 8.63875 -0.2784375 8.63875 -0.5625 7.25 C-0.95734621 4.31685676 -0.94691572 2.7355343 0 0 Z " fill="#CDD1D3" transform="translate(124,36)"/>
    <path d="M0 0 C0.66 0.33 1.32 0.66 2 1 C1.34 2.98 0.68 4.96 0 7 C0.99 7 1.98 7 3 7 C2.6875 8.9375 2.6875 8.9375 2 11 C1.01 11.33 0.02 11.66 -1 12 C-1.33 13.98 -1.66 15.96 -2 18 C-4.64 16.68 -7.28 15.36 -10 14 C-10 12.68 -10 11.36 -10 10 C-7 10 -7 10 -5.3125 11.5 C-4.879375 11.995 -4.44625 12.49 -4 13 C-4 12.34 -4 11.68 -4 11 C-3.34 10.67 -2.68 10.34 -2 10 C-2.226875 9.278125 -2.45375 8.55625 -2.6875 7.8125 C-3.08398299 4.24415308 -2.04377787 2.86128901 0 0 Z " fill="#AFB4BA" transform="translate(89,15)"/>
    <path d="M0 0 C0.9075 0.309375 1.815 0.61875 2.75 0.9375 C4.56704128 1.53153273 6.39539964 2.09884991 8.25 2.5625 C10 3 10 3 12 4 C11.67 4.33 11.34 4.66 11 5 C12.97420135 7.52259061 13.96745642 7.9929808 17.1875 8.6875 C18.115625 8.790625 19.04375 8.89375 20 9 C20 9.33 20 9.66 20 10 C14.72 10 9.44 10 4 10 C4.33 9.01 4.66 8.02 5 7 C4.67 6.34 4.34 5.68 4 5 C3.01 5.495 3.01 5.495 2 6 C0 4 0 4 -1 1 C-0.67 0.67 -0.34 0.34 0 0 Z " fill="#C8CDD0" transform="translate(57,118)"/>
    <path d="M0 0 C0.99 0 1.98 0 3 0 C3 1.65 3 3.3 3 5 C4.32 5.66 5.64 6.32 7 7 C3.4912812 10.09592835 0.50802601 11.74194623 -4 13 C-4 10.36 -4 7.72 -4 5 C-3.01 4.67 -2.02 4.34 -1 4 C-0.26676204 1.98491642 -0.26676204 1.98491642 0 0 Z " fill="#9CA1AC" transform="translate(73,81)"/>
    <path d="M0 0 C0.99 1.32 1.98 2.64 3 4 C0.69 4.33 -1.62 4.66 -4 5 C-4 5.66 -4 6.32 -4 7 C-4.66 7 -5.32 7 -6 7 C-5.67 8.98 -5.34 10.96 -5 13 C-6.32 13 -7.64 13 -9 13 C-8.67 14.65 -8.34 16.3 -8 18 C-8.61875 18.433125 -9.2375 18.86625 -9.875 19.3125 C-12.2197245 20.99740483 -12.2197245 20.99740483 -14 24 C-13.44314821 20.32477821 -12.29269291 17.26499224 -10.734375 13.8984375 C-9.94630542 11.86119379 -9.64878273 9.96631082 -9.3125 7.8125 C-8.72341746 5.1277433 -8.34634171 4.2538891 -6.09765625 2.60546875 C-4.09197932 1.60791766 -2.11095891 0.74619943 0 0 Z " fill="#9CA2A8" transform="translate(23,50)"/>
    <path d="M0 0 C-0.89138672 0.4021875 -0.89138672 0.4021875 -1.80078125 0.8125 C-4.00584179 2.00315436 -5.41468698 3.24907356 -7.1875 5 C-11.07548412 8.46537715 -14.92464025 9.33249237 -20 10 C-20 10.66 -20 11.32 -20 12 C-20.66 12 -21.32 12 -22 12 C-19.49921955 5.84116304 -13.21375056 3.31973591 -7.75 0.0625 C-4.64624155 -1.1366794 -3.12716398 -1.01172952 0 0 Z " fill="#C9CFD4" transform="translate(41,5)"/>
    <path d="M0 0 C2.475 0.495 2.475 0.495 5 1 C5.33 2.65 5.66 4.3 6 6 C5.01 6.495 5.01 6.495 4 7 C4.33 7.5775 4.66 8.155 5 8.75 C6 11 6 11 6 15 C6.66 15 7.32 15 8 15 C8 15.66 8 16.32 8 17 C8.66 17.33 9.32 17.66 10 18 C9.01 18 8.02 18 7 18 C7 17.34 7 16.68 7 16 C5.35 16 3.7 16 2 16 C0.7619986 12.42355152 1.25073929 9.66305234 2 6 C1.34 6 0.68 6 0 6 C0 4.02 0 2.04 0 0 Z " fill="#9FA6AD" transform="translate(47,58)"/>
    <path d="M0 0 C0.93423645 3.01031744 1.04449911 3.86650268 0 7 C0 7.99 0 8.98 0 10 C0.99 10 1.98 10 3 10 C2.67 11.32 2.34 12.64 2 14 C1.236875 13.525625 0.47375 13.05125 -0.3125 12.5625 C-2.96410548 10.89893903 -2.96410548 10.89893903 -6 10 C-6 7.03 -6 4.06 -6 1 C-3 0 -3 0 0 0 Z " fill="#8F969C" transform="translate(27,62)"/>
    <path d="M0 0 C0 1.98 0 3.96 0 6 C-1.43739513 6.02712066 -2.87493863 6.04645067 -4.3125 6.0625 C-5.51326172 6.07990234 -5.51326172 6.07990234 -6.73828125 6.09765625 C-9 6 -9 6 -12 5 C-11.875 3.125 -11.875 3.125 -11 1 C-6.9875739 -0.91502155 -4.25648179 -1.25190641 0 0 Z " fill="#BABFC1" transform="translate(83,6)"/>
    <path d="M0 0 C0.33 0.66 0.66 1.32 1 2 C4.3 1.67 7.6 1.34 11 1 C9.25 5.875 9.25 5.875 7 7 C7 8.98 7 10.96 7 13 C6.01 13 5.02 13 4 13 C4 11.02 4 9.04 4 7 C2.68 7.33 1.36 7.66 0 8 C-0.38063221 5.6739143 -0.71269945 3.33944736 -1 1 C-0.67 0.67 -0.34 0.34 0 0 Z " fill="#C3C9CE" transform="translate(39,13)"/>
    <path d="M0 0 C0.66 0.66 1.32 1.32 2 2 C2.99 1.67 3.98 1.34 5 1 C9.08594833 -0.1865126 12.76342394 -0.14865179 17 0 C16.67 1.98 16.34 3.96 16 6 C15.46375 5.649375 14.9275 5.29875 14.375 4.9375 C11.24831652 3.70328284 9.27856568 4.40985818 6 5 C2.625 4.5625 2.625 4.5625 0 4 C0 2.68 0 1.36 0 0 Z " fill="#AEB5B9" transform="translate(32,110)"/>
    <path d="M0 0 C3.3 0 6.6 0 10 0 C10 1.32 10 2.64 10 4 C10.66 4 11.32 4 12 4 C12 5.32 12 6.64 12 8 C9.03 7.505 9.03 7.505 6 7 C6 6.01 6 5.02 6 4 C4.02 4 2.04 4 0 4 C0 2.68 0 1.36 0 0 Z " fill="#9DA4AA" transform="translate(47,40)"/>
    <path d="M0 0 C1.6254308 0.14095064 3.25034051 0.28792087 4.875 0.4375 C5.77992187 0.51871094 6.68484375 0.59992188 7.6171875 0.68359375 C10 1 10 1 12 2 C11.67 3.65 11.34 5.3 11 7 C9.02 7.33 7.04 7.66 5 8 C5 8.66 5 9.32 5 10 C3.68 10 2.36 10 1 10 C1.56371414 6.73045798 2.49962266 5.17424117 5 3 C4.34 3 3.68 3 3 3 C3 2.34 3 1.68 3 1 C2.01 0.67 1.02 0.34 0 0 Z " fill="#959CA3" transform="translate(60,76)"/>
    <path d="M0 0 C1.32 0.66 2.64 1.32 4 2 C2.125 7.875 2.125 7.875 1 9 C-0.51928038 9.07179964 -2.04167482 9.08392007 -3.5625 9.0625 C-4.38878906 9.05347656 -5.21507812 9.04445313 -6.06640625 9.03515625 C-6.70449219 9.02355469 -7.34257813 9.01195312 -8 9 C-7.67 8.34 -7.34 7.68 -7 7 C-6.34 7 -5.68 7 -5 7 C-4.731875 6.21625 -4.46375 5.4325 -4.1875 4.625 C-3 2 -3 2 0 0 Z " fill="#889098" transform="translate(55,17)"/>
    <path d="M0 0 C2.64 0.99 5.28 1.98 8 3 C8.33 2.34 8.66 1.68 9 1 C9 2.65 9 4.3 9 6 C8.67 5.34 8.34 4.68 8 4 C6.02 4.33 4.04 4.66 2 5 C2.20625 5.598125 2.4125 6.19625 2.625 6.8125 C3 9 3 9 1 12 C0.34 12 -0.32 12 -1 12 C-1 11.01 -1 10.02 -1 9 C-1.99 8.34 -2.98 7.68 -4 7 C-3.34 6.67 -2.68 6.34 -2 6 C-1.27306096 4.02111039 -0.60183749 2.02045442 0 0 Z " fill="#7C848A" transform="translate(19,58)"/>
    <path d="M0 0 C2.0625 0.4375 2.0625 0.4375 4 1 C3.01 1.33 2.02 1.66 1 2 C1 2.99 1 3.98 1 5 C1.66 5.33 2.32 5.66 3 6 C1.35 6.33 -0.3 6.66 -2 7 C-2 7.66 -2 8.32 -2 9 C-5.3 8.67 -8.6 8.34 -12 8 C-11.67 7.01 -11.34 6.02 -11 5 C-4.25 3.875 -4.25 3.875 -2 5 C-1.855625 4.360625 -1.71125 3.72125 -1.5625 3.0625 C-1 1 -1 1 0 0 Z " fill="#808690" transform="translate(74,18)"/>
    <path d="M0 0 C-0.25 2.375 -0.25 2.375 -1 5 C-3.89810116 7.09862498 -5.28378861 7 -9 7 C-9.33 5.02 -9.66 3.04 -10 1 C-8.71073008 0.63720544 -7.41846728 0.28503302 -6.125 -0.0625 C-5.40570313 -0.25972656 -4.68640625 -0.45695312 -3.9453125 -0.66015625 C-2 -1 -2 -1 0 0 Z " fill="#8B939A" transform="translate(76,108)"/>
    <path d="M0 0 C0.99 0 1.98 0 3 0 C4.75 2.25 4.75 2.25 6 5 C5.6875 7.3125 5.6875 7.3125 5 9 C3.35 9.33 1.7 9.66 0 10 C-1.125 8.375 -1.125 8.375 -2 6 C-1.125 2.75 -1.125 2.75 0 0 Z " fill="#BCBEC8" transform="translate(77,47)"/>
    <path d="M0 0 C0.66 0.33 1.32 0.66 2 1 C2 1.66 2 2.32 2 3 C2.99 3.33 3.98 3.66 5 4 C4.67 5.65 4.34 7.3 4 9 C3.01 9 2.02 9 1 9 C0.67 8.67 0.34 8.34 0 8 C-0.99 9.485 -0.99 9.485 -2 11 C-3.125 8.6875 -3.125 8.6875 -4 6 C-3.34 5.01 -2.68 4.02 -2 3 C-1.34 3 -0.68 3 0 3 C0 2.01 0 1.02 0 0 Z " fill="#C7CCCD" transform="translate(75,54)"/>
    <path d="M0 0 C0.66 0.33 1.32 0.66 2 1 C1.67 1.66 1.34 2.32 1 3 C0.34 2.67 -0.32 2.34 -1 2 C-1.33 3.32 -1.66 4.64 -2 6 C-2.99 6 -3.98 6 -5 6 C-5 7.98 -5 9.96 -5 12 C-6.98 12.99 -6.98 12.99 -9 14 C-9.75 11.25 -9.75 11.25 -10 8 C-8.25 5.8125 -8.25 5.8125 -6 4 C-5.484375 3.443125 -4.96875 2.88625 -4.4375 2.3125 C-3 1 -3 1 0 0 Z " fill="#A1A9B0" transform="translate(55,12)"/>
    <path d="M0 0 C1.9375 0.75 1.9375 0.75 4 2 C4.75 4.125 4.75 4.125 5 6 C5.33 6 5.66 6 6 6 C6.33 8.31 6.66 10.62 7 13 C4.11538849 11.70689829 1.87147927 10.58442376 0 8 C-0.75 4.375 -0.75 4.375 -1 1 C-0.67 0.67 -0.34 0.34 0 0 Z " fill="#B0B6B9" transform="translate(14,94)"/>
    <path d="M0 0 C2.97 0 5.94 0 9 0 C7 4 7 4 5 5 C4.67 5.99 4.34 6.98 4 8 C1.36 8.33 -1.28 8.66 -4 9 C-3.67 8.34 -3.34 7.68 -3 7 C-0.4375 6.375 -0.4375 6.375 2 6 C1.34 4.02 0.68 2.04 0 0 Z " fill="#7B838B" transform="translate(57,78)"/>
    <path d="M0 0 C0.33 0 0.66 0 1 0 C1.35050464 5.841744 1.16727335 9.8531808 -2 15 C-2.66 15 -3.32 15 -4 15 C-3.63495936 9.33557626 -2.9445679 4.99296295 0 0 Z " fill="#CED2D4" transform="translate(127,74)"/>
    <path d="M0 0 C2.64 0 5.28 0 8 0 C8 2 8 4 8 6 C6.35 6 4.7 6 3 6 C3.66 4.35 4.32 2.7 5 1 C4.01 1.495 4.01 1.495 3 2 C2.59270772 4.32156597 2.25561323 6.6568787 2 9 C1.34 9 0.68 9 0 9 C0 6.03 0 3.06 0 0 Z " fill="#7F888F" transform="translate(47,77)"/>
    <path d="M0 0 C1.0528418 0.01353516 1.0528418 0.01353516 2.12695312 0.02734375 C3.85561525 0.05086296 5.58410145 0.08673287 7.3125 0.125 C6.6525 1.445 5.9925 2.765 5.3125 4.125 C0.0325 3.465 -5.2475 2.805 -10.6875 2.125 C-7.00662647 -0.32891569 -4.24394412 -0.10302759 0 0 Z " fill="#8C9399" transform="translate(63.6875,-0.125)"/>
    <path d="M0 0 C-1.32 0.33 -2.64 0.66 -4 1 C-4 3.64 -4 6.28 -4 9 C-5.65 9 -7.3 9 -9 9 C-8.4140625 2.84765625 -8.4140625 2.84765625 -8 1 C-5.29120665 -0.35439668 -2.99066732 -0.06501451 0 0 Z " fill="#98A0A5" transform="translate(61,86)"/>
    <path d="M0 0 C0.99 0 1.98 0 3 0 C2.67 3.3 2.34 6.6 2 10 C0.35 10.66 -1.3 11.32 -3 12 C-3 12.99 -3 13.98 -3 15 C-4.98 14.34 -6.96 13.68 -9 13 C-3 9 -3 9 0 9 C-0.20625 8.401875 -0.4125 7.80375 -0.625 7.1875 C-1 5 -1 5 1 2 C0.67 1.34 0.34 0.68 0 0 Z " fill="#959AA4" transform="translate(82,14)"/>
    <path d="M0 0 C1.33804688 0.04060547 1.33804688 0.04060547 2.703125 0.08203125 C3.37859375 0.11683594 4.0540625 0.15164062 4.75 0.1875 C4.75 0.5175 4.75 0.8475 4.75 1.1875 C3.1 1.1875 1.45 1.1875 -0.25 1.1875 C-0.58 2.1775 -0.91 3.1675 -1.25 4.1875 C-4.25 6.1875 -4.25 6.1875 -6.375 5.9375 C-8.25 5.1875 -8.25 5.1875 -9.25 3.1875 C-6.10408067 0.38704377 -4.182936 -0.16511589 0 0 Z " fill="#B0B7BB" transform="translate(70.25,114.8125)"/>
    <path d="M0 0 C2.375 -0.125 2.375 -0.125 5 0 C5.66 0.66 6.32 1.32 7 2 C9.32275177 2.40047444 11.65739357 2.7397104 14 3 C14 3.33 14 3.66 14 4 C12.39796533 4.36368892 10.79325797 4.71561952 9.1875 5.0625 C8.29417969 5.25972656 7.40085937 5.45695313 6.48046875 5.66015625 C4 6 4 6 1 5 C0.67 3.35 0.34 1.7 0 0 Z " fill="#C5CBCE" transform="translate(41,2)"/>
    <path d="M0 0 C2.31 0 4.62 0 7 0 C7.33 0.66 7.66 1.32 8 2 C6.02 2.99 6.02 2.99 4 4 C4 4.66 4 5.32 4 6 C3.34 6 2.68 6 2 6 C2.33 6.99 2.66 7.98 3 9 C1.68 8.67 0.36 8.34 -1 8 C-0.67 5.36 -0.34 2.72 0 0 Z " fill="#979EA2" transform="translate(100,34)"/>
    <path d="M0 0 C2.0625 0.4375 2.0625 0.4375 4 1 C4.1875 3.375 4.1875 3.375 4 6 C1 8 1 8 -2 8 C-1.125 1.125 -1.125 1.125 0 0 Z " fill="#D0D2DB" transform="translate(100,83)"/>
    <path d="M0 0 C0.66 0.33 1.32 0.66 2 1 C1.84518205 3.70931419 1.51827919 5.46584039 -0.40234375 7.4453125 C-1.89771708 8.67679642 -3.4462924 9.8429837 -5 11 C-5.33 10.01 -5.66 9.02 -6 8 C-5.34 7.01 -4.68 6.02 -4 5 C-3.34 5 -2.68 5 -2 5 C-1.34 3.35 -0.68 1.7 0 0 Z " fill="#D9DCDE" transform="translate(113,101)"/>
    <path d="M0 0 C0.99 0 1.98 0 3 0 C4.32 3.63 5.64 7.26 7 11 C6.01 11 5.02 11 4 11 C1.6870518 8.6870518 1.50419025 7.52095125 0.875 4.375 C0.70742187 3.55773437 0.53984375 2.74046875 0.3671875 1.8984375 C0.24601563 1.27195312 0.12484375 0.64546875 0 0 Z " fill="#CFD2D4" transform="translate(13,101)"/>
    <path d="M0 0 C0.66 0.66 1.32 1.32 2 2 C1.01 3.485 1.01 3.485 0 5 C-0.33 5.99 -0.66 6.98 -1 8 C-3.62187494 6.95125002 -4.79371361 6.35068687 -6.25 3.875 C-6.4975 3.25625 -6.745 2.6375 -7 2 C-4.69 1.34 -2.38 0.68 0 0 Z " fill="#D0D2D8" transform="translate(94,29)"/>
    <path d="M0 0 C0.99 0 1.98 0 3 0 C3.28875 0.61875 3.5775 1.2375 3.875 1.875 C4.93720042 4.13325765 4.93720042 4.13325765 7 6 C6.01 7.485 6.01 7.485 5 9 C4.34 9 3.68 9 3 9 C3 8.34 3 7.68 3 7 C2.01 6.67 1.02 6.34 0 6 C-0.38218767 4.34385343 -0.71395102 2.67542976 -1 1 C-0.67 0.67 -0.34 0.34 0 0 Z " fill="#C8CED0" transform="translate(104,98)"/>
    <path d="M0 0 C0.99 0.33 1.98 0.66 3 1 C2.6875 4.375 2.6875 4.375 2 8 C1.01 8.66 0.02 9.32 -1 10 C-2.1875 8.375 -2.1875 8.375 -3 6 C-1.625 2.75 -1.625 2.75 0 0 Z " fill="#A9AEB8" transform="translate(96,92)"/>
    <path d="M0 0 C0.99 1.32 1.98 2.64 3 4 C0.69 4.33 -1.62 4.66 -4 5 C-4 5.66 -4 6.32 -4 7 C-5.32 7.33 -6.64 7.66 -8 8 C-8 6.68 -8 5.36 -8 4 C-5.36 2.68 -2.72 1.36 0 0 Z " fill="#A7ADB2" transform="translate(23,50)"/>
    <path d="M0 0 C1.98 0.66 3.96 1.32 6 2 C5.01 2.33 4.02 2.66 3 3 C1.77030122 6.51190809 1.77030122 6.51190809 1 10 C0.01 9.67 -0.98 9.34 -2 9 C-3 6 -3 6 -1.5625 2.8125 C-1.046875 1.884375 -0.53125 0.95625 0 0 Z " fill="#C3C7C8" transform="translate(89,3)"/>
    <path d="M0 0 C1.98 0 3.96 0 6 0 C6.28875 0.969375 6.5775 1.93875 6.875 2.9375 C7.64214682 6.10664203 7.64214682 6.10664203 10 7 C8.125 8.0625 8.125 8.0625 6 9 C5.34 8.67 4.68 8.34 4 8 C3.375 5.4375 3.375 5.4375 3 3 C2.01 2.67 1.02 2.34 0 2 C0 1.34 0 0.68 0 0 Z " fill="#BABFC5" transform="translate(72,78)"/>
    <path d="M0 0 C-0.33 2.97 -0.66 5.94 -1 9 C-1.33 8.34 -1.66 7.68 -2 7 C-2.66 6.855625 -3.32 6.71125 -4 6.5625 C-4.66 6.376875 -5.32 6.19125 -6 6 C-6.33 5.01 -6.66 4.02 -7 3 C-1.125 0 -1.125 0 0 0 Z " fill="#949BA0" transform="translate(22,73)"/>
    <path d="M0 0 C0.33 1.32 0.66 2.64 1 4 C-2.96 3.67 -6.92 3.34 -11 3 C-11 2.01 -11 1.02 -11 0 C-7.01803543 -1.05404945 -4.01804691 -0.84098656 0 0 Z " fill="#ACB3B7" transform="translate(70,74)"/>
    <path d="M0 0 C1.32 0.66 2.64 1.32 4 2 C4 3.32 4 4.64 4 6 C4.66 6 5.32 6 6 6 C6 6.66 6 7.32 6 8 C6.66 8.33 7.32 8.66 8 9 C7.01 9 6.02 9 5 9 C5 8.34 5 7.68 5 7 C3.35 7 1.7 7 0 7 C-0.93423645 3.98968256 -1.04449911 3.13349732 0 0 Z " fill="#979EA5" transform="translate(49,67)"/>
    <path d="M0 0 C0.33 0 0.66 0 1 0 C1 6.93 1 13.86 1 21 C0.67 21 0.34 21 0 21 C-0.144375 19.88625 -0.28875 18.7725 -0.4375 17.625 C-0.78372035 14.17857953 -0.78372035 14.17857953 -2 12 C-1.75290429 9.94938967 -1.43007496 7.90747329 -1.0625 5.875 C-0.77052734 4.23144531 -0.77052734 4.23144531 -0.47265625 2.5546875 C-0.31667969 1.71164063 -0.16070312 0.86859375 0 0 Z " fill="#C1C6C9" transform="translate(127,47)"/>
    <path d="M0 0 C0.33 1.32 0.66 2.64 1 4 C-1.64 4.66 -4.28 5.32 -7 6 C-7 6.66 -7 7.32 -7 8 C-7.66 8 -8.32 8 -9 8 C-7.47364599 4.11473526 -4.49771687 0 0 0 Z " fill="#D2D7DB" transform="translate(28,9)"/>
    <path d="M0 0 C0.99 0.33 1.98 0.66 3 1 C2.34 1 1.68 1 1 1 C0.67 2.65 0.34 4.3 0 6 C-0.99 6 -1.98 6 -3 6 C-3.33 6.99 -3.66 7.98 -4 9 C-4.66 9 -5.32 9 -6 9 C-6 7.35 -6 5.7 -6 4 C-4.7934375 3.566875 -4.7934375 3.566875 -3.5625 3.125 C-0.8673532 2.26737432 -0.8673532 2.26737432 0 0 Z " fill="#ACB3B7" transform="translate(72,80)"/>
    <path d="M0 0 C1.65 0 3.3 0 5 0 C5.1875 2.875 5.1875 2.875 5 6 C4.01 6.66 3.02 7.32 2 8 C2 6.68 2 5.36 2 4 C1.34 4 0.68 4 0 4 C0 2.68 0 1.36 0 0 Z " fill="#B3B9BE" transform="translate(57,40)"/>
    <path d="M0 0 C0.99 0.33 1.98 0.66 3 1 C4.17755913 3.94389782 4.03348696 4.89953913 3 8 C1.68 7.67 0.36 7.34 -1 7 C-0.67 4.69 -0.34 2.38 0 0 Z " fill="#B6BDC0" transform="translate(99,94)"/>
    <path d="M0 0 C0.66 0 1.32 0 2 0 C2.2506019 1.41303238 2.47461921 2.83079474 2.6875 4.25 C2.81511719 5.03890625 2.94273438 5.8278125 3.07421875 6.640625 C3 9 3 9 0 13 C0 8.71 0 4.42 0 0 Z " fill="#D2D6D9" transform="translate(0,72)"/>
    <path d="M0 0 C0.66 0 1.32 0 2 0 C2 3.3 2 6.6 2 10 C2.99 9.67 3.98 9.34 5 9 C5 9.66 5 10.32 5 11 C3.35 11.33 1.7 11.66 0 12 C0 8.04 0 4.08 0 0 Z " fill="#868E95" transform="translate(47,64)"/>
    <path d="M0 0 C0.33 0 0.66 0 1 0 C0.67 2.64 0.34 5.28 0 8 C-1.32 8.33 -2.64 8.66 -4 9 C-3.125 4.25 -3.125 4.25 -2 2 C-1.34 2 -0.68 2 0 2 C0 1.34 0 0.68 0 0 Z " fill="#D9DDE2" transform="translate(29,26)"/>
    <path d="M0 0 C0.33 0.66 0.66 1.32 1 2 C1.99 2.66 2.98 3.32 4 4 C2.35 5.32 0.7 6.64 -1 8 C-1.66 7.67 -2.32 7.34 -3 7 C-3.1875 4.625 -3.1875 4.625 -3 2 C-2.01 1.34 -1.02 0.68 0 0 Z " fill="#C2C7CA" transform="translate(104,109)"/>
    <path d="M0 0 C0.33 0.66 0.66 1.32 1 2 C-0.32 3.65 -1.64 5.3 -3 7 C-4.9375 6.625 -4.9375 6.625 -7 6 C-7.33 5.34 -7.66 4.68 -8 4 C-5.36 2.68 -2.72 1.36 0 0 Z " fill="#878A9E" transform="translate(86,102)"/>
    <path d="M0 0 C-0.66 1.98 -1.32 3.96 -2 6 C-2.5775 5.525625 -3.155 5.05125 -3.75 4.5625 C-5.92582084 3.0515133 -7.42602448 2.45963849 -10 2 C-3.375 -1.125 -3.375 -1.125 0 0 Z " fill="#C3C8CA" transform="translate(112,29)"/>
    <path d="M0 0 C4.29238623 1.65091778 6.8793915 4.73754566 10 8 C9.67 8.66 9.34 9.32 9 10 C7.49147143 8.90751403 5.99337169 7.80061501 4.5 6.6875 C3.24703125 5.76517578 3.24703125 5.76517578 1.96875 4.82421875 C1.3190625 4.22222656 0.669375 3.62023437 0 3 C0 2.01 0 1.02 0 0 Z " fill="#E9EAE9" transform="translate(107,14)"/>
    <path d="M0 0 C1.1446875 0.0928125 1.1446875 0.0928125 2.3125 0.1875 C2.6425 0.8475 2.9725 1.5075 3.3125 2.1875 C2.136875 2.3421875 2.136875 2.3421875 0.9375 2.5 C-2.01795181 2.96345022 -2.01795181 2.96345022 -3.6875 6.1875 C-5.6675 5.5275 -7.6475 4.8675 -9.6875 4.1875 C-9.089375 4.084375 -8.49125 3.98125 -7.875 3.875 C-5.60866717 3.36265064 -5.60866717 3.36265064 -4.25 1.625 C-2.6875 0.1875 -2.6875 0.1875 0 0 Z " fill="#979DA2" transform="translate(73.6875,-0.1875)"/>
    <path d="M0 0 C0.99 0 1.98 0 3 0 C3 0.99 3 1.98 3 3 C5.31 2.34 7.62 1.68 10 1 C10.66 2.32 11.32 3.64 12 5 C11.01 4.67 10.02 4.34 9 4 C6.64811553 4.59793673 4.31074405 5.25881795 2 6 C1.34 4.02 0.68 2.04 0 0 Z " fill="#B8BEC1" transform="translate(55,70)"/>
    <path d="M0 0 C1.32 0.33 2.64 0.66 4 1 C4 1.66 4 2.32 4 3 C4.66 3 5.32 3 6 3 C6 4.32 6 5.64 6 7 C4.02 6.34 2.04 5.68 0 5 C0 3.35 0 1.7 0 0 Z " fill="#A0A7AC" transform="translate(107,44)"/>
    <path d="M0 0 C1.98 0 3.96 0 6 0 C6 0.99 6 1.98 6 3 C5.01 3.33 4.02 3.66 3 4 C2.34 3.67 1.68 3.34 1 3 C1 4.65 1 6.3 1 8 C0.67 8 0.34 8 0 8 C0 5.36 0 2.72 0 0 Z " fill="#B7BEC3" transform="translate(47,44)"/>
    <path d="M0 0 C0.99 0.33 1.98 0.66 3 1 C2.67 1.61875 2.34 2.2375 2 2.875 C0.85806765 4.91018344 0.85806765 4.91018344 1 7 C-0.98 7.33 -2.96 7.66 -5 8 C-3.35 5.36 -1.7 2.72 0 0 Z " fill="#BCC2C6" transform="translate(57,5)"/>
    <path d="M0 0 C1.8125 2 1.8125 2 3 4 C1.58249437 3.88490339 0.16598831 3.75746342 -1.25 3.625 C-2.03890625 3.55539062 -2.8278125 3.48578125 -3.640625 3.4140625 C-6.085877 2.98492887 -7.84836903 2.21399362 -10 1 C-6.61064804 0.22529098 -3.46769356 -0.45627547 0 0 Z " fill="#B6BCC2" transform="translate(56,0)"/>
    <path d="M0 0 C2 0 4 0 6 0 C6.33 0.99 6.66 1.98 7 3 C6.01 3.99 5.02 4.98 4 6 C4 5.34 4 4.68 4 4 C3.01 3.67 2.02 3.34 1 3 C0.67 2.01 0.34 1.02 0 0 Z " fill="#B2B8BC" transform="translate(107,49)"/>
    <path d="M0 0 C-1.875 1.0625 -1.875 1.0625 -4 2 C-4.66 1.67 -5.32 1.34 -6 1 C-6.103125 1.61875 -6.20625 2.2375 -6.3125 2.875 C-7 5 -7 5 -10 7 C-9.625 4.0625 -9.625 4.0625 -9 1 C-6.04335481 -0.4783226 -3.25770263 -0.06032783 0 0 Z " fill="#8F959A" transform="translate(82,13)"/>
    <path d="M0 0 C2 3.75 2 3.75 2 6 C0.68 6.33 -0.64 6.66 -2 7 C-2.66 6.01 -3.32 5.02 -4 4 C-2.68 2.68 -1.36 1.36 0 0 Z " fill="#8B8DA2" transform="translate(93,96)"/>
    <path d="M0 0 C0.99 0 1.98 0 3 0 C3.33 1.65 3.66 3.3 4 5 C2.68 5.33 1.36 5.66 0 6 C-0.38218767 4.34385343 -0.71395102 2.67542976 -1 1 C-0.67 0.67 -0.34 0.34 0 0 Z " fill="#6D767E" transform="translate(55,79)"/>
    <path d="M0 0 C0.33 0 0.66 0 1 0 C1 1.98 1 3.96 1 6 C0.360625 6.28875 -0.27875 6.5775 -0.9375 6.875 C-3.15206079 7.82823451 -3.15206079 7.82823451 -4 10 C-3.625 7.0625 -3.625 7.0625 -3 4 C-2.34 3.67 -1.68 3.34 -1 3 C-0.67 2.01 -0.34 1.02 0 0 Z " fill="#BEC5CA" transform="translate(29,31)"/>
    <path d="M0 0 C1.32 0.33 2.64 0.66 4 1 C3.01 1.33 2.02 1.66 1 2 C1 2.99 1 3.98 1 5 C1.66 5.33 2.32 5.66 3 6 C0.69 6.33 -1.62 6.66 -4 7 C-3.525625 6.5875 -3.05125 6.175 -2.5625 5.75 C-0.83733482 3.817815 -0.43415125 2.51807725 0 0 Z " fill="#798187" transform="translate(74,18)"/>
    <path d="M0 0 C2.64 0 5.28 0 8 0 C8.33 0.99 8.66 1.98 9 3 C2.84765625 2.4140625 2.84765625 2.4140625 1 2 C0.67 1.34 0.34 0.68 0 0 Z " fill="#7D858D" transform="translate(47,40)"/>
    <path d="M0 0 C0.33 0.66 0.66 1.32 1 2 C0.34 2 -0.32 2 -1 2 C-1 2.99 -1 3.98 -1 5 C-2.32 5.33 -3.64 5.66 -5 6 C-5 4.68 -5 3.36 -5 2 C-3.35 1.34 -1.7 0.68 0 0 Z " fill="#888F96" transform="translate(64,10)"/>
    <path d="M0 0 C2 2 2 2 2 5 C2.66 5.33 3.32 5.66 4 6 C2.02 6 0.04 6 -2 6 C-2 4.68 -2 3.36 -2 2 C-1.34 2 -0.68 2 0 2 C0 1.34 0 0.68 0 0 Z " fill="#C5CACD" transform="translate(48,114)"/>
    <path d="M0 0 C0.33 1.32 0.66 2.64 1 4 C-1.475 5.485 -1.475 5.485 -4 7 C-3.67 5.02 -3.34 3.04 -3 1 C-2.01 0.67 -1.02 0.34 0 0 Z " fill="#9FA7AC" transform="translate(93,102)"/>
    <path d="M0 0 C1.32 0.33 2.64 0.66 4 1 C3.01 1 2.02 1 1 1 C1 2.32 1 3.64 1 5 C-1.31 5.33 -3.62 5.66 -6 6 C-5.195625 5.38125 -4.39125 4.7625 -3.5625 4.125 C-0.96125481 2.25835959 -0.96125481 2.25835959 0 0 Z " fill="#BAC0C3" transform="translate(70,116)"/>
    <path d="M0 0 C2.6855594 2.6855594 3.06049974 5.37621328 4 9 C2.0625 8.1875 2.0625 8.1875 0 7 C-1.04449911 3.86650268 -0.93423645 3.01031744 0 0 Z " fill="#E0E2E3" transform="translate(124,36)"/>
    <path d="M0 0 C0.99 0 1.98 0 3 0 C3 2.31 3 4.62 3 7 C2.34 7 1.68 7 1 7 C-0.0625 4.625 -0.0625 4.625 -1 2 C-0.67 1.34 -0.34 0.68 0 0 Z " fill="#AAB1B6" transform="translate(61,15)"/>
    <path d="M0 0 C0.66 0.33 1.32 0.66 2 1 C1.67 1.66 1.34 2.32 1 3 C0.34 2.67 -0.32 2.34 -1 2 C-1.33 2.99 -1.66 3.98 -2 5 C-3.32 4.67 -4.64 4.34 -6 4 C-3.94766315 1.7522025 -2.99332739 0.9977758 0 0 Z " fill="#ABB2B7" transform="translate(55,12)"/>
    <path d="M0 0 C0.33 0.99 0.66 1.98 1 3 C-2.22791555 5.1519437 -3.28400809 5.20086443 -7 5 C-5.49336217 1.98672434 -2.96833589 1.38943382 0 0 Z " fill="#A2A9AF" transform="translate(87,107)"/>
    <path d="M0 0 C0.33 0.66 0.66 1.32 1 2 C3.52733235 2.65555119 3.52733235 2.65555119 6 3 C6 3.66 6 4.32 6 5 C4.02 5 2.04 5 0 5 C-0.5625 3.0625 -0.5625 3.0625 -1 1 C-0.67 0.67 -0.34 0.34 0 0 Z " fill="#BCC3C8" transform="translate(39,13)"/>
    <path d="M0 0 C-1.485 1.485 -1.485 1.485 -3 3 C-3.66 2.67 -4.32 2.34 -5 2 C-5.66 2.66 -6.32 3.32 -7 4 C-7.33 2.68 -7.66 1.36 -8 0 C-2.25 -1.125 -2.25 -1.125 0 0 Z " fill="#7E79A4" transform="translate(76,108)"/>
    <path d="M0 0 C0.93065133 2.60582371 1.14917407 3.64198224 0.0625 6.25 C-0.4634375 7.11625 -0.4634375 7.11625 -1 8 C-2.0625 6.1875 -2.0625 6.1875 -3 4 C-2.67 3.01 -2.34 2.02 -2 1 C-1.34 0.67 -0.68 0.34 0 0 Z " fill="#9FA6AC" transform="translate(96,94)"/>
    <path d="M0 0 C0.66 0 1.32 0 2 0 C1.67 2.31 1.34 4.62 1 7 C0.34 7 -0.32 7 -1 7 C-1.04254356 5.00045254 -1.04080783 2.99958364 -1 1 C-0.67 0.67 -0.34 0.34 0 0 Z " fill="#6F7780" transform="translate(28,42)"/>
    <path d="M0 0 C1.32 0.66 2.64 1.32 4 2 C4 2.66 4 3.32 4 4 C2.68 4.33 1.36 4.66 0 5 C-0.5625 3.0625 -0.5625 3.0625 -1 1 C-0.67 0.67 -0.34 0.34 0 0 Z " fill="#CFD4D7" transform="translate(18,39)"/>
    <path d="M0 0 C1.32 0.33 2.64 0.66 4 1 C2 4 2 4 -0.625 4.6875 C-1.800625 4.8421875 -1.800625 4.8421875 -3 5 C-2.67 4.01 -2.34 3.02 -2 2 C-1.34 2.33 -0.68 2.66 0 3 C0 2.01 0 1.02 0 0 Z " fill="#D9DDE0" transform="translate(45,9)"/>
</svg>