<?xml version="1.0" encoding="UTF-8"?>
<svg version="1.1" xmlns="http://www.w3.org/2000/svg" width="1024" height="1024">
<path d="M0 0 C0.99 0.33 1.98 0.66 3 1 C2.67 1.33 2.34 1.66 2 2 C3.0229915 1.99886084 3.0229915 1.99886084 4.0666495 1.99769866 C44.52551344 1.95290098 84.98437416 1.9186059 125.4432579 1.89786934 C130.3058406 1.89536806 135.16842324 1.8927794 140.03100586 1.89013672 C140.999021 1.8896121 141.96703615 1.88908748 142.96438508 1.88854696 C158.61941977 1.87985448 174.27443971 1.8640909 189.92946566 1.84569441 C206.00396357 1.82696313 222.07845377 1.81587646 238.15296215 1.81182301 C248.06441671 1.80908464 257.97582956 1.80044905 267.88727128 1.78416707 C274.69240594 1.77356032 281.49751917 1.7704077 288.30266149 1.77299725 C292.22343923 1.77427281 296.1441443 1.77237666 300.06490898 1.76158905 C303.66480473 1.75175739 307.26457991 1.75142834 310.86448156 1.75820221 C312.76216784 1.75942906 314.65985299 1.75089259 316.55751806 1.74183738 C327.49408296 1.77931726 339.07032183 2.03516091 349 7 C349.86625 7.12375 350.7325 7.2475 351.625 7.375 C355.06256612 8.27962266 356.52922133 10.45913451 359 13 C360.01871568 13.96004332 361.04431338 14.91282284 362.07574463 15.85919189 C371.99206408 24.97827911 381.54816991 34.42775373 391.05071259 43.97554779 C393.79748589 46.73528372 396.54754586 49.49170845 399.29840088 52.24737549 C405.11863005 58.0785655 410.93451737 63.91407683 416.75 69.75 C423.53617694 76.55990605 430.32409723 83.3680577 437.11615753 90.17209625 C439.82540139 92.88782013 442.53161989 95.60653433 445.23773193 98.32537842 C446.8871823 99.97845866 448.53677174 101.63140016 450.18652344 103.28417969 C451.31318924 104.41859497 451.31318924 104.41859497 452.46261597 105.57592773 C453.1518515 106.26523376 453.84108704 106.95453979 454.5512085 107.66473389 C455.14840572 108.26415173 455.74560295 108.86356956 456.36089706 109.48115158 C458.13089263 111.20185005 458.13089263 111.20185005 461 113 C462.35307554 114.59109675 463.70422685 116.18386434 465.04638672 117.78417969 C469.31033173 122.62041624 473.98602117 127.08653298 478.5625 131.625 C479.60114656 132.65861797 480.63955967 133.69247059 481.67773438 134.7265625 C483.58914277 136.62987582 485.5021298 138.53154757 487.41625977 140.43212891 C489.1296848 142.13503021 490.83944926 143.84162316 492.54541016 145.55200195 C494.87041823 147.87076622 497.22101106 150.1593951 499.58203125 152.44140625 C516.26341435 168.70353143 527.33584753 181.66991942 527.69874096 205.74293518 C527.71294123 207.51481656 527.72650762 209.28670311 527.73950195 211.05859375 C527.76699573 212.95423783 527.7958234 214.84986295 527.8258791 216.74546814 C527.91411767 222.83016539 527.95974029 228.91482414 528 235 C528.01527967 237.01523874 528.03059802 239.03047719 528.04595566 241.04571533 C528.14482246 254.90190513 528.16564209 268.75787801 528.16725707 282.61437607 C528.16798003 286.11715597 528.17013649 289.61993221 528.17275429 293.12271118 C528.18190265 305.39007813 528.1861004 317.65743443 528.18530273 329.92480469 C528.18469661 341.29931204 528.19537893 352.6737728 528.2110464 364.04826832 C528.22412591 373.89975867 528.22948684 383.7512337 528.22884732 393.60273266 C528.22859356 399.45149086 528.23138101 405.3002069 528.24202538 411.1489563 C528.25171969 416.61923712 528.25177648 422.08943532 528.24450874 427.55971909 C528.24346637 429.5579325 528.24580505 431.55615114 528.2518692 433.55435562 C528.33375194 462.40797062 528.33375194 462.40797062 520 471 C514.6010462 474.97474702 509.16214978 476.8020077 502.45703125 476.421875 C497.05245309 475.49390292 492.62703753 473.58306355 488.6875 469.75 C488.130625 468.8425 487.57375 467.935 487 467 C486.64164063 466.48179687 486.28328125 465.96359375 485.9140625 465.4296875 C478.94114045 454.00596413 481.86271905 435.01460677 481.88647461 422.10180664 C481.88675723 419.93213401 481.88659728 417.76246128 481.8860321 415.5927887 C481.88574706 409.74674745 481.8915963 403.90072704 481.89860606 398.0546906 C481.9048885 391.92883108 481.90544725 385.80297101 481.90663147 379.67710876 C481.90973043 368.09658243 481.91792436 356.51606563 481.92798096 344.93554348 C481.93918681 331.74318671 481.94466379 318.55082947 481.94967639 305.35846913 C481.96010827 278.23897415 481.97767975 251.11948761 482 224 C479.29836277 222.64918138 477.19626084 222.86910495 474.17016602 222.86196899 C472.92815933 222.85651566 471.68615265 222.85106232 470.4065094 222.84544373 C469.0223084 222.84432385 467.63810735 222.84327334 466.25390625 222.84228516 C464.80187323 222.83761777 463.34984167 222.83247433 461.89781189 222.82688904 C458.76520932 222.81559657 455.63261633 222.80716768 452.5 222.80076981 C447.54032854 222.79009203 442.58072538 222.76984518 437.62109375 222.74765015 C423.51549427 222.68572683 409.40989775 222.63179442 395.30419922 222.59863281 C387.51788538 222.58024718 379.73168498 222.55125724 371.9454546 222.5106281 C367.82706183 222.48961483 363.70881173 222.47410902 359.59036255 222.47182083 C355.70954778 222.46966235 351.82902944 222.45367169 347.94830513 222.42743111 C346.53024496 222.42028065 345.11214871 222.41811631 343.69407463 222.42153358 C333.10863929 222.44295176 323.38566296 222.10782908 315.328125 214.55859375 C313.62400832 212.55876271 312.84611038 210.46782193 312 208 C311.01 207.67 310.02 207.34 309 207 C309.66 207 310.32 207 311 207 C311 206.34 311 205.68 311 205 C310.34 204.67 309.68 204.34 309 204 C308.9766436 184.39840113 308.95900733 164.79680509 308.94818783 145.1951952 C308.94303071 136.09391121 308.9359991 126.99263586 308.92456055 117.89135742 C308.91459591 109.95904446 308.90814232 102.02673775 308.90591151 94.0944187 C308.90460743 89.89401613 308.90154069 85.69363147 308.89426994 81.49323463 C308.88748168 77.53953521 308.88538877 73.58586107 308.88689232 69.63215637 C308.88661726 68.18134105 308.88462877 66.73052487 308.88079453 65.27971458 C308.87581355 63.29775479 308.87761262 61.31578143 308.87974548 59.33381653 C308.87836279 57.67044109 308.87836279 57.67044109 308.87695217 55.9734621 C308.99191728 53.19531962 309.42311929 50.71169544 310 48 C264.67346882 48.05887807 219.34698695 48.13342353 174.02051747 48.22898628 C168.66952165 48.24025447 163.31852556 48.25139292 157.9675293 48.26245117 C156.36959628 48.2657567 156.36959628 48.2657567 154.73938178 48.269129 C137.48954362 48.30450305 120.2397055 48.32936659 102.98984451 48.35034702 C85.29038778 48.37210819 67.59097813 48.40516166 49.89156145 48.44870156 C38.96975688 48.47521277 28.04801097 48.49291206 17.12617581 48.49934604 C9.63704506 48.50460153 2.14798813 48.52082397 -5.34110307 48.54566566 C-9.6621476 48.55967507 -13.98305999 48.56885354 -18.30412865 48.56500816 C-22.26276744 48.56159217 -26.22112426 48.57199585 -30.17970533 48.59323552 C-31.60918684 48.5984938 -33.0386977 48.59874841 -34.46817886 48.59339563 C-45.57975948 48.51486914 -45.57975948 48.51486914 -56 52 C-60.86473592 57.47282791 -60.14696517 65.58718521 -60.12584114 72.54216671 C-60.12729458 73.3809709 -60.12874802 74.21977508 -60.13024551 75.08399758 C-60.13389654 77.89675053 -60.13042272 80.70944897 -60.12698364 83.52220154 C-60.12813604 85.5606853 -60.12972437 87.59916886 -60.13171089 89.63765198 C-60.13589291 95.24580558 -60.133818 100.85394219 -60.13072467 106.46209586 C-60.12846413 112.51742584 -60.13195488 118.57275288 -60.13470459 124.62808228 C-60.1389072 135.84371671 -60.13852189 147.05934572 -60.13579312 158.27498004 C-60.1332641 168.72596955 -60.13262684 179.1769571 -60.13381577 189.62794685 C-60.13389215 190.3249207 -60.13396854 191.02189454 -60.13404724 191.7399888 C-60.13435874 194.57178702 -60.13467715 197.40358524 -60.135007 200.23538345 C-60.13807414 226.89157036 -60.13528849 253.54775391 -60.1299101 280.20394029 C-60.12538723 302.78874282 -60.12529612 325.3735402 -60.12991948 347.9583427 C-60.14562748 425.12767696 -60.12443543 502.29682412 -60.00537705 579.46608388 C-60.00009509 582.93750159 -59.99504232 586.40891956 -59.99006462 589.88033772 C-59.95240216 615.96957469 -59.88969617 642.05846249 -59.7716921 668.14746496 C-59.74709942 673.78201078 -59.73231395 679.41652623 -59.72217178 685.05111504 C-59.71018588 691.62902712 -59.6850129 698.20670073 -59.64031568 704.78447594 C-59.61858998 708.02029985 -59.60488027 711.25577487 -59.60429335 714.49168134 C-59.60254814 717.90856885 -59.57664212 721.32439445 -59.54391479 724.74110413 C-59.54914158 725.72322339 -59.55436836 726.70534265 -59.55975354 727.71722311 C-59.49499729 731.94716788 -59.39935722 734.34766469 -57.15350533 738.01618099 C-49.75136296 744.83506857 -39.26593761 743.14344672 -29.78425598 743.12698364 C-28.33723448 743.12813688 -26.89021326 743.12972577 -25.44319266 743.13171089 C-21.4803617 743.13587614 -17.51755489 743.13382621 -13.55472386 743.13072467 C-9.27592693 743.12845943 -4.99713412 743.13195575 -0.71833801 743.13470459 C7.65766986 743.13914887 16.03366877 743.13819187 24.40967699 743.13529195 C31.21579465 743.13303311 38.0219098 743.13272748 44.82802773 743.13381577 C45.79687663 743.133969 46.76572553 743.13412223 47.76393348 743.13428011 C49.73212256 743.13459983 51.70031163 743.13492405 53.6685007 743.1352527 C72.11872601 743.13810344 90.56894636 743.13482658 109.01917086 743.12945233 C124.85482407 743.12498254 140.69046996 743.12576246 156.52612305 743.13037109 C174.91521189 743.13572035 193.30429638 743.13783103 211.6933859 743.13475883 C213.65339712 743.13444028 215.61340835 743.13412591 217.57341957 743.13381577 C219.01998227 743.13358435 219.01998227 743.13358435 220.49576845 743.13334826 C227.29627964 743.13248432 234.09678806 743.13394331 240.89729881 743.13629532 C249.18087794 743.13909731 257.46444758 743.1383465 265.74802562 743.13301457 C269.9754372 743.1303833 274.20283297 743.12936286 278.43024445 743.13266373 C282.29819864 743.13563831 286.16612233 743.1340144 290.03407375 743.12868617 C291.43499073 743.127567 292.83591027 743.12814215 294.23682561 743.13056196 C296.13822452 743.13359494 298.03963063 743.1298914 299.94102764 743.12584114 C301.52650025 743.12559761 301.52650025 743.12559761 303.14400262 743.12534916 C305.86899303 743.00574987 308.33636766 742.55248027 311 742 C312.34184351 742.29722867 313.67549449 742.63315664 315 743 C316.95866309 743.08479668 318.92003701 743.11339749 320.88052368 743.10679626 C322.08320892 743.10528061 323.28589417 743.10376495 324.52502441 743.10220337 C325.84143921 743.095466 327.157854 743.08872864 328.51416016 743.08178711 C329.91722507 743.07822992 331.32029124 743.07514422 332.72335815 743.07249451 C335.7440808 743.06594609 338.76477381 743.0563878 341.7854805 743.04459953 C346.56884362 743.02628509 351.35219958 743.01670108 356.1355896 743.00868225 C369.73772334 742.98455015 383.33981338 742.94876347 396.94189453 742.90405273 C404.45494092 742.8794342 411.96796997 742.8621137 419.48105085 742.85249335 C424.22845777 742.84597906 428.97572131 742.83047926 433.72307897 742.80817592 C436.68881977 742.79637378 439.65452659 742.79307431 442.62028885 742.79207802 C444.63414936 742.78893588 446.64798667 742.77579614 448.6618042 742.76226807 C459.20869477 742.77354625 468.68179324 742.89442519 476.625 750.5703125 C481.12963418 755.39980011 483.11711147 759.55530755 482.88671875 766.33203125 C482.65208895 769.56431945 482.35839321 772.77930426 482 776 C481.34 776 480.68 776 480 776 C479.7525 776.556875 479.505 777.11375 479.25 777.6875 C475.74038824 784.18028176 471.18967868 787.45008458 464.19216537 789.53991604 C461.71881276 790.05901459 459.45304782 790.13986376 456.925354 790.15821838 C455.90174271 790.1680072 454.87813141 790.17779602 453.82350159 790.18788147 C452.70644333 790.19363693 451.58938507 790.1993924 450.43847656 790.20532227 C449.25771042 790.21522186 448.07694427 790.22512146 446.86039734 790.23532104 C443.62727892 790.2614831 440.3941656 790.28335577 437.16100407 790.30332303 C433.7803846 790.32521466 430.39980962 790.35258778 427.01922607 790.37937927 C420.61971836 790.42926325 414.22018589 790.47421798 407.82062984 790.51740164 C400.53406839 790.56681076 393.24755159 790.62171524 385.96103334 790.67708123 C370.97406386 790.79083532 355.9870523 790.89768863 341 791 C341 791.33 341 791.66 341 792 C256.9221249 792 172.84424981 792 -41 792 C-41 791.67 -41 791.34 -41 791 C-41.57854736 790.98541748 -42.15709473 790.97083496 -42.75317383 790.95581055 C-60.08369062 790.46784554 -73.0206658 788.91774448 -87 778 C-87.928125 777.319375 -88.85625 776.63875 -89.8125 775.9375 C-93.94288102 772.27916253 -96.08104784 767.04857366 -98.5625 762.1875 C-99.16191406 761.02605469 -99.76132813 759.86460937 -100.37890625 758.66796875 C-104.00422827 750.89376928 -104.2887903 743.53585605 -104.25726891 735.09132957 C-104.26077498 733.90105484 -104.26428105 732.71078011 -104.26789337 731.48443645 C-104.27558889 728.18333548 -104.27435891 724.88245765 -104.26933783 721.58136611 C-104.26606619 717.98887612 -104.27435792 714.39640954 -104.28115618 710.80392706 C-104.29145818 704.50835449 -104.29429963 698.21281268 -104.29224396 691.91723251 C-104.28919448 682.55520213 -104.29751681 673.19320578 -104.30799321 663.83118201 C-104.32734012 646.1370698 -104.3329617 628.44296918 -104.33410732 610.74884765 C-104.33502629 597.08401395 -104.33914232 583.41918479 -104.34550858 569.75435257 C-104.34730366 565.82141579 -104.34908329 561.888479 -104.35085833 557.95554221 C-104.35130043 556.9778078 -104.35174252 556.0000734 -104.35219802 554.99271068 C-104.36450745 527.48847979 -104.37239905 499.98425048 -104.37151146 472.48001671 C-104.3714803 471.44292999 -104.37144914 470.40584328 -104.37141704 469.33732969 C-104.37125083 464.08091018 -104.37105274 458.82449068 -104.37084763 453.56807117 C-104.37080774 452.52412301 -104.37076785 451.48017484 -104.37072675 450.40459189 C-104.37064587 448.29347347 -104.37056228 446.18235506 -104.37047596 444.07123664 C-104.36925056 411.22862573 -104.38426119 378.38605612 -104.41162109 345.54345703 C-104.44234573 308.6466371 -104.45955334 271.74984431 -104.45769465 234.85301077 C-104.45754539 230.91818786 -104.45744797 226.98336494 -104.45738602 223.04854202 C-104.45736271 222.07968631 -104.4573394 221.1108306 -104.45731538 220.11261562 C-104.45725385 204.52436276 -104.4700231 188.93614576 -104.48725055 173.34790356 C-104.50420871 157.67915968 -104.50617944 142.01046825 -104.4930319 126.34172027 C-104.48564385 117.03528531 -104.48929638 107.72900972 -104.50891658 98.42259166 C-104.52092282 92.20159679 -104.51831836 85.98071726 -104.50397559 79.75972767 C-104.49621796 76.21811556 -104.49464485 72.67681169 -104.51089029 69.13522141 C-104.63612117 35.26445556 -104.63612117 35.26445556 -93 21 C-92.39285156 20.17757812 -91.78570312 19.35515625 -91.16015625 18.5078125 C-82.44187653 8.38641 -70.07960413 3.3383215 -57.09390259 2.20843506 C-52.02029815 1.86662823 -46.95835937 1.85738179 -41.875 1.8671875 C-40.76568115 1.86623077 -39.6563623 1.86527405 -38.51342773 1.86428833 C-36.19075462 1.8636128 -33.86807956 1.86542293 -31.54541016 1.86962891 C-27.9820539 1.87502719 -24.41882135 1.86964176 -20.85546875 1.86328125 C-18.59114556 1.86394134 -16.32682244 1.86522108 -14.0625 1.8671875 C-12.99692871 1.86516327 -11.93135742 1.86313904 -10.83349609 1.86105347 C-9.35550537 1.86578171 -9.35550537 1.86578171 -7.84765625 1.87060547 C-6.98148682 1.87140106 -6.11531738 1.87219666 -5.22290039 1.87301636 C-3 2 -3 2 0 3 C0 2.01 0 1.02 0 0 Z M356 76 C356 109.33 356 142.66 356 177 C389 176.67 422 176.34 456 176 C451.50489798 170.68157039 451.50489798 170.68157039 446.76782227 165.67016602 C446.21026749 165.11591446 445.65271271 164.5616629 445.07826233 163.99061584 C444.49684982 163.41750168 443.91543732 162.84438751 443.31640625 162.25390625 C442.69781235 161.63909897 442.07921844 161.02429169 441.44187927 160.39085388 C438.82795177 157.79307814 436.20805816 155.20135106 433.58862305 152.60913086 C431.66242147 150.70118484 429.73858895 148.79090075 427.81640625 146.87890625 C427.20407135 146.2705191 426.59173645 145.66213196 425.96084595 145.03530884 C422.24711202 141.32106461 418.70104216 137.53363576 415.40991211 133.43334961 C413.76909264 131.76525417 412.13094596 130.93430491 410 130 C410 129.34 410 128.68 410 128 C406.62510794 124.30871181 402.86105718 121.09090372 399.0625 117.84375 C396.61207063 115.65321465 394.30990009 113.33582167 392 111 C390.51110998 109.50972368 389.02144696 108.02021945 387.53125 106.53125 C379.83333333 98.83333333 372.13541667 91.13541667 364.4375 83.4375 C363.84582031 82.84710938 363.25414062 82.25671875 362.64453125 81.6484375 C361.29517796 80.2958791 359.95829947 78.9308863 358.625 77.5625 C357.25558384 75.88448188 357.25558384 75.88448188 356 76 Z " fill="#1A1A1A" transform="translate(294,120)"/>
<path d="M0 0 C1.03809814 0.00410889 2.07619629 0.00821777 3.14575195 0.01245117 C6.36002582 0.03319418 9.5740673 0.0633051 12.78820801 0.09893799 C14.49579657 0.11748646 16.20339962 0.13472142 17.91101074 0.15106201 C24.15908399 0.21118729 30.40655835 0.29081831 36.65414429 0.38946533 C38.78268168 0.42120956 40.91129185 0.44843158 43.03994751 0.47088623 C54.78923373 0.60101545 65.80987937 0.9248873 77.1875 4.125 C77.92830811 4.31795654 78.66911621 4.51091309 79.43237305 4.7097168 C93.98197524 8.67373538 105.98853664 16.09908681 117.1875 26.125 C118.13689453 26.95064453 118.13689453 26.95064453 119.10546875 27.79296875 C137.9729669 45.27886521 144.86517324 70.37694498 146.37109375 95.14453125 C146.98736692 119.3241905 139.45085637 142.39534705 124.1875 161.125 C123.51203125 161.96417969 122.8365625 162.80335938 122.140625 163.66796875 C105.98415058 182.68425707 82.68721938 193.13666592 58.1875 196.125 C52.61659617 196.4308161 47.0548181 196.47952223 41.4765625 196.49609375 C39.8938286 196.50508321 38.31109545 196.51420539 36.72836304 196.52345276 C33.43558705 196.53981618 30.14291133 196.54762144 26.85009766 196.55053711 C22.64014293 196.55595572 18.43113178 196.59383096 14.22144508 196.63928127 C10.96313014 196.66904815 7.70504478 196.67626032 4.44660568 196.67726326 C2.89409362 196.6814543 1.34158018 196.69384372 -0.21079636 196.71478081 C-2.37871153 196.74173484 -4.54440347 196.73686463 -6.71240234 196.72436523 C-7.94195648 196.72943588 -9.17151062 196.73450653 -10.43832397 196.73973083 C-14.81922021 195.94158872 -16.74254345 194.30235034 -19.8125 191.125 C-21.95125984 187.00231943 -22.06798841 183.44904279 -22.07992554 178.84449768 C-22.08672221 177.76025643 -22.08672221 177.76025643 -22.09365618 176.65411133 C-22.10629361 174.23752248 -22.10468027 171.8211592 -22.10302734 169.40454102 C-22.10901293 167.66971548 -22.11581855 165.93489261 -22.12338257 164.20007324 C-22.14104476 159.49142469 -22.14573799 154.78284883 -22.14701414 150.07417035 C-22.14843595 147.13211578 -22.15270606 144.19007969 -22.15800858 141.24802971 C-22.17650819 130.98361919 -22.1846791 120.71926062 -22.18310547 110.45483398 C-22.18190345 100.88730381 -22.20301783 91.319999 -22.2345928 81.75252587 C-22.26074079 73.53667723 -22.27147341 65.32090229 -22.27019465 57.10501236 C-22.26968467 52.19867175 -22.27538823 47.29253153 -22.29655075 42.38623238 C-22.31590875 37.77244038 -22.31607437 33.15904047 -22.30151749 28.54523468 C-22.29942539 26.85294714 -22.30415414 25.1606352 -22.3162384 23.46838951 C-22.33168071 21.15596073 -22.32239098 18.84488569 -22.30697632 16.53248596 C-22.30806585 15.23925195 -22.30915539 13.94601793 -22.31027794 12.61359501 C-21.72095484 8.48342074 -20.42144666 6.34540026 -17.8125 3.125 C-12.26981715 -0.5701219 -6.45018577 -0.03180618 0 0 Z M23.1875 38.125 C23.03367617 53.60607585 22.88564078 69.08719899 22.7445364 84.56839561 C22.67888669 91.75623843 22.61132774 98.94405391 22.53930664 106.13183594 C22.47655336 112.39515922 22.41734918 118.65850416 22.36244446 124.92190135 C22.33323572 128.23970959 22.30169519 131.55746934 22.26696587 134.87522507 C22.22854034 138.57483198 22.19638805 142.27444251 22.16577148 145.97412109 C22.15282547 147.07966843 22.13987946 148.18521576 22.12654114 149.32426453 C22.11950165 150.32829819 22.11246216 151.33233185 22.10520935 152.36679077 C22.09691321 153.24249411 22.08861708 154.11819744 22.08006954 155.02043724 C22.04943006 157.18305522 22.04943006 157.18305522 23.1875 159.125 C27.0977275 159.20031552 31.00766232 159.25413851 34.91845703 159.28979492 C36.88719568 159.3119343 38.85573362 159.35009352 40.82421875 159.38867188 C57.94666364 159.51904582 73.53072033 154.68796368 86.0078125 142.55859375 C97.39379636 129.84628561 101.35952676 114.64728659 101.4375 98 C101.458125 96.92234375 101.47875 95.8446875 101.5 94.734375 C101.57173595 79.84916468 96.9824648 66.34927297 87.1875 55.125 C86.71054687 54.51914062 86.23359375 53.91328125 85.7421875 53.2890625 C81.95267757 48.90434158 77.40942737 46.40656127 72.3125 43.8125 C71.65258057 43.47468506 70.99266113 43.13687012 70.31274414 42.78881836 C59.98393014 37.78831057 49.82260221 37.86897606 38.625 38 C37.12435494 38.01005077 35.62370335 38.01917291 34.12304688 38.02734375 C30.47772719 38.04918909 26.83265624 38.0836031 23.1875 38.125 Z " fill="#7055C8" transform="translate(542.8125,630.875)"/>
<path d="M0 0 C1.52904968 0.00068733 1.52904968 0.00068733 3.08898926 0.00138855 C5.24732629 0.00440029 7.40566135 0.01225416 9.56396484 0.0246582 C12.77840388 0.04260393 15.99254793 0.04516949 19.20703125 0.04492188 C29.94638512 0.0625086 40.6742547 0.23906314 51.40625 0.64453125 C52.38106323 0.67831375 53.35587646 0.71209625 54.36022949 0.74690247 C72.74718174 1.52718758 90.67322866 7.9487285 103.71875 21.25 C114.82364207 33.85867953 118.64627624 46.3984772 118.78125 62.79296875 C118.79671875 64.3538623 118.79671875 64.3538623 118.8125 65.94628906 C118.62620555 82.37642472 112.79045937 96.39542191 101.34375 108.23046875 C90.39361426 117.9669616 90.39361426 117.9669616 84.34375 119.23046875 C86.55438345 125.65395922 89.46378989 131.37526504 92.78125 137.29296875 C97.68425039 146.15463781 102.44464146 155.0779868 107.09643555 164.07397461 C109.31180367 168.35382233 111.5395923 172.62015591 113.875 176.8359375 C114.25366211 177.52373291 114.63232422 178.21152832 115.02246094 178.92016602 C116.01202353 180.70782844 117.01330638 182.48898964 118.015625 184.26953125 C119.38665936 187.32613139 119.97621685 188.94818387 119.34375 192.23046875 C117.8347168 194.34423828 117.8347168 194.34423828 115.34375 196.23046875 C112.44415291 196.62841954 109.93221233 196.79206449 107.03515625 196.76171875 C106.23142075 196.76554565 105.42768524 196.76937256 104.59959412 196.77331543 C102.90256495 196.77603293 101.20549379 196.76868293 99.50854492 196.75195312 C96.91815178 196.73056701 94.33054065 196.75174346 91.74023438 196.77734375 C90.08853557 196.77469989 88.43683849 196.76957372 86.78515625 196.76171875 C86.01418106 196.76981567 85.24320587 196.7779126 84.4488678 196.78625488 C79.44591141 196.69954385 76.84005386 195.82324492 73.34375 192.23046875 C71.4921875 189.3671875 71.4921875 189.3671875 69.71875 185.91796875 C69.38375488 185.27045654 69.04875977 184.62294434 68.70361328 183.95581055 C65.27918729 177.26275522 62.07483499 170.45956069 58.85546875 163.66625977 C54.90577383 155.34728285 50.8340585 147.09334728 46.71875 138.85546875 C46.2510318 137.91642197 46.2510318 137.91642197 45.77386475 136.95840454 C44.89058582 135.18597531 44.00396431 133.41521302 43.1171875 131.64453125 C42.35027588 130.1123999 42.35027588 130.1123999 41.56787109 128.54931641 C40.54273402 126.33104795 40.54273402 126.33104795 39.34375 125.23046875 C37.8550314 125.14377443 36.362305 125.12343381 34.87109375 125.1328125 C33.52241211 125.13764648 33.52241211 125.13764648 32.14648438 125.14257812 C31.20095703 125.15095703 30.25542969 125.15933594 29.28125 125.16796875 C27.8571582 125.17473633 27.8571582 125.17473633 26.40429688 125.18164062 C24.05071935 125.19346765 21.69726523 125.2099485 19.34375 125.23046875 C19.34597061 125.85528137 19.34819122 126.48009399 19.35047913 127.12384033 C19.37275368 133.678583 19.38774828 140.23331476 19.39868164 146.78808594 C19.40368319 149.22819455 19.41048655 151.66830022 19.41918945 154.10839844 C19.4314393 157.633471 19.43702026 161.15850364 19.44140625 164.68359375 C19.44656754 165.75909485 19.45172882 166.83459595 19.45704651 167.94268799 C19.45852941 188.36441322 19.45852941 188.36441322 16.34375 193.23046875 C10.81194208 197.30090989 6.58778545 197.78268565 -0.15625 197.54296875 C-0.97222656 197.53330078 -1.78820312 197.52363281 -2.62890625 197.51367188 C-16.48420588 197.25791594 -16.48420588 197.25791594 -20.03125 193.73046875 C-26.12558327 186.51683513 -23.81024524 173.22430395 -23.78125 164.16796875 C-23.78036377 163.37676636 -23.77947754 162.58556396 -23.77856445 161.77038574 C-23.76078415 148.23615741 -23.39828643 134.74613234 -22.65625 121.23046875 C-23.31625 120.90046875 -23.97625 120.57046875 -24.65625 120.23046875 C-23.99625 120.23046875 -23.33625 120.23046875 -22.65625 120.23046875 C-22.65625 99.44046875 -22.65625 78.65046875 -22.65625 57.23046875 C-23.31625 56.90046875 -23.97625 56.57046875 -24.65625 56.23046875 C-23.99625 56.23046875 -23.33625 56.23046875 -22.65625 56.23046875 C-22.66513245 55.64244476 -22.67401489 55.05442078 -22.6831665 54.44857788 C-22.77180783 48.31656638 -22.83205383 42.18473753 -22.87597656 36.05224609 C-22.89606517 33.76506149 -22.92334128 31.47792807 -22.95800781 29.19091797 C-23.00664558 25.89928541 -23.02924679 22.60833318 -23.046875 19.31640625 C-23.06752014 18.29743256 -23.08816528 17.27845886 -23.10943604 16.22860718 C-23.11082301 11.81901191 -22.88130737 8.75721258 -21.13183594 4.66259766 C-15.50115444 -0.86924151 -7.41297257 -0.0557622 0 0 Z M18.34375 38.23046875 C18.34375 54.40046875 18.34375 70.57046875 18.34375 87.23046875 C22.66520358 89.39119554 28.47386944 88.41545557 33.21875 88.41796875 C34.39695312 88.43021484 35.57515625 88.44246094 36.7890625 88.45507812 C47.88974923 88.47341626 60.2743319 88.41419666 69.05859375 80.73046875 C73.97937079 75.5329732 76.37829091 69.36592381 76.71875 62.23046875 C76.42788007 55.60656707 74.26889113 48.77675287 69.34375 44.23046875 C61.66613796 39.71875016 55.73250071 38.07449709 46.859375 38.1328125 C45.77438721 38.13432312 45.77438721 38.13432312 44.66748047 38.13586426 C41.97622076 38.14107988 39.28498372 38.15504113 36.59375 38.16796875 C30.57125 38.18859375 24.54875 38.20921875 18.34375 38.23046875 Z " fill="#7055C8" transform="translate(728.65625,630.76953125)"/>
<path d="M0 0 C0 0.66 0 1.32 0 2 C-0.928125 2.7734375 -0.928125 2.7734375 -1.875 3.5625 C-6.5639424 8.94099276 -6.29329663 16.94533899 -6.24888897 23.78826237 C-6.25149625 24.62937424 -6.25410354 25.47048612 -6.25678983 26.33708623 C-6.26306783 29.14570512 -6.25513916 31.95409848 -6.24723816 34.76271057 C-6.24882739 36.802921 -6.25129212 38.8431309 -6.25455457 40.88333935 C-6.26096528 46.48699429 -6.25490054 52.09057691 -6.24679029 57.6942271 C-6.24020481 63.74815974 -6.24516542 69.80208439 -6.24867249 75.85601807 C-6.25314018 86.37813158 -6.25022199 96.90022499 -6.24202538 107.42233467 C-6.233359 118.55412555 -6.22850634 129.68590694 -6.22869301 140.81770134 C-6.22870065 141.5145377 -6.2287083 142.21137406 -6.22871618 142.92932668 C-6.22875711 145.76062227 -6.22882275 148.59191785 -6.22892199 151.42321343 C-6.22983017 178.06651689 -6.21987614 204.70980621 -6.20449232 231.35310474 C-6.19150555 253.92507116 -6.18467985 276.49702814 -6.18524731 299.06899836 C-6.18533961 302.76255375 -6.18538917 306.45610914 -6.18544471 310.14966452 C-6.18545609 310.87970082 -6.18546746 311.60973711 -6.18547918 312.36189572 C-6.185513 314.57102468 -6.18554454 316.78015364 -6.18557549 318.98928261 C-6.18558659 319.71713038 -6.1855977 320.44497816 -6.18560915 321.19488193 C-6.18653653 389.75720166 -6.1337186 458.31932468 -6.01239681 526.88154316 C-6.00220464 532.66881003 -5.9927763 538.45607781 -5.98362395 544.24334641 C-5.94654807 567.54394935 -5.89405851 590.8443391 -5.78986921 614.14474785 C-5.78616696 614.97331634 -5.78246472 615.80188482 -5.77865028 616.65556145 C-5.77497208 617.47512561 -5.77129389 618.29468976 -5.76750423 619.1390892 C-5.74312132 624.77405825 -5.72854561 630.40899675 -5.71861839 636.04400826 C-5.70689743 642.62256407 -5.68203778 649.20088329 -5.6377299 655.77930437 C-5.61620456 659.01558469 -5.60272594 662.25151413 -5.60239053 665.4878757 C-5.60093438 668.90536819 -5.57532986 672.32180285 -5.54292297 675.73912048 C-5.54824781 676.72143585 -5.55357265 677.70375122 -5.55905885 678.71583372 C-5.49473393 682.94631929 -5.39957646 685.34725784 -3.15356731 689.01630497 C4.2489332 695.83490004 14.73389734 694.14344701 24.21574402 694.12698364 C25.66276552 694.12813688 27.10978674 694.12972577 28.55680734 694.13171089 C32.5196383 694.13587614 36.48244511 694.13382621 40.44527614 694.13072467 C44.72407307 694.12845943 49.00286588 694.13195575 53.28166199 694.13470459 C61.65766986 694.13914887 70.03366877 694.13819187 78.40967699 694.13529195 C85.21579465 694.13303311 92.0219098 694.13272748 98.82802773 694.13381577 C99.79687663 694.133969 100.76572553 694.13412223 101.76393348 694.13428011 C103.73212256 694.13459983 105.70031163 694.13492405 107.6685007 694.1352527 C126.11872601 694.13810344 144.56894636 694.13482658 163.01917086 694.12945233 C178.85482407 694.12498254 194.69046996 694.12576246 210.52612305 694.13037109 C228.91521189 694.13572035 247.30429638 694.13783103 265.6933859 694.13475883 C267.65339712 694.13444028 269.61340835 694.13412591 271.57341957 694.13381577 C273.01998227 694.13358435 273.01998227 694.13358435 274.49576845 694.13334826 C281.29627964 694.13248432 288.09678806 694.13394331 294.89729881 694.13629532 C303.18087794 694.13909731 311.46444758 694.1383465 319.74802562 694.13301457 C323.9754372 694.1303833 328.20283297 694.12936286 332.43024445 694.13266373 C336.29819864 694.13563831 340.16612233 694.1340144 344.03407375 694.12868617 C345.43499073 694.127567 346.83591027 694.12814215 348.23682561 694.13056196 C350.13822452 694.13359494 352.03963063 694.1298914 353.94102764 694.12584114 C355.52650025 694.12559761 355.52650025 694.12559761 357.14400262 694.12534916 C359.86899303 694.00574987 362.33636766 693.55248027 365 693 C366.34184351 693.29722867 367.67549449 693.63315664 369 694 C370.95866309 694.08479668 372.92003701 694.11339749 374.88052368 694.10679626 C376.08320892 694.10528061 377.28589417 694.10376495 378.52502441 694.10220337 C379.84143921 694.095466 381.157854 694.08872864 382.51416016 694.08178711 C383.91722507 694.07822992 385.32029124 694.07514422 386.72335815 694.07249451 C389.7440808 694.06594609 392.76477381 694.0563878 395.7854805 694.04459953 C400.56884362 694.02628509 405.35219958 694.01670108 410.1355896 694.00868225 C423.73772334 693.98455015 437.33981338 693.94876347 450.94189453 693.90405273 C458.45494092 693.8794342 465.96796997 693.8621137 473.48105085 693.85249335 C478.22845777 693.84597906 482.97572131 693.83047926 487.72307897 693.80817592 C490.68881977 693.79637378 493.65452659 693.79307431 496.62028885 693.79207802 C498.63414936 693.78893588 500.64798667 693.77579614 502.6618042 693.76226807 C514.05530582 693.77445157 522.54132284 694.39114878 531.375 702.0625 C533 704 533 704 533 707 C532.34 707 531.68 707 531 707 C529.84420643 705.55525804 528.69141547 704.10624406 527.609375 702.60546875 C523.56238853 698.56830506 519.16605155 697.65610345 513.68824425 697.60200018 C512.47553192 697.61270153 512.47553192 697.61270153 511.23832035 697.62361908 C510.36398201 697.61936796 509.48964367 697.61511685 508.58881024 697.61073691 C505.65044422 697.60010408 502.71254576 697.61086873 499.77418518 697.62145996 C497.64972113 697.61817 495.52525878 697.61355695 493.40080017 697.6077323 C487.55601185 697.59549485 481.71136811 697.60189859 475.86657989 697.61123729 C469.56586827 697.61802183 463.26518365 697.60750719 456.96447754 697.59895325 C446.04419615 697.58637506 435.12396202 697.58435865 424.20367622 697.58930969 C408.407087 697.59629011 392.61055641 697.58366765 376.81397795 697.56580251 C369.45503388 697.55750617 362.09608884 697.55016953 354.73714352 697.54308319 C354.00045208 697.54237269 353.26376065 697.5416622 352.50474523 697.54093017 C334.96988181 697.52424197 317.43501644 697.51695379 299.90014648 697.51123047 C298.74929945 697.51084961 298.74929945 697.51084961 297.57520298 697.51046105 C285.90430209 697.50661073 274.23340107 697.50325012 262.5625 697.5 C250.11840811 697.49653448 237.6743163 697.49288858 225.23022461 697.48876953 C224.46355642 697.48851924 223.69688822 697.48826896 222.90698766 697.48801108 C205.40453706 697.48224636 187.90209336 697.47379631 170.39964962 697.45691681 C169.66411103 697.45620854 168.92857243 697.45550028 168.17074479 697.45477055 C160.82774963 697.44763847 153.48475511 697.44003646 146.14176118 697.43173284 C130.36283367 697.41399375 114.58396208 697.40449961 98.805025 697.41165514 C87.30332478 697.41674623 75.80168147 697.41140281 64.29998798 697.39579475 C58.06730107 697.38772035 51.83471234 697.38465333 45.60202599 697.39461708 C39.89944633 697.40365751 34.19704951 697.39902283 28.49448561 697.38340265 C26.42860667 697.38020514 24.36271239 697.38211295 22.29684443 697.38956803 C19.49351366 697.39896558 16.69082057 697.38998821 13.88752079 697.37638092 C12.67832021 697.38708228 12.67832021 697.38708228 11.44469133 697.39799982 C5.7270026 697.34171519 0.66572584 696.45222377 -3.70703125 692.4296875 C-4.07183594 691.91664063 -4.43664062 691.40359375 -4.8125 690.875 C-6.68713206 687.97267846 -6.68713206 687.97267846 -9 687 C-9 462.6 -9 238.2 -9 7 C-8.34 7 -7.68 7 -7 7 C-6.731875 6.401875 -6.46375 5.80375 -6.1875 5.1875 C-3.37142857 0 -3.37142857 0 0 0 Z " fill="#100F13" transform="translate(240,169)"/>
<path d="M0 0 C0.33 0 0.66 0 1 0 C0.67 233.31 0.34 466.62 0 707 C-0.66 706.67 -1.32 706.34 -2 706 C-2.03426557 639.12994633 -2.06606636 572.25989161 -2.08468628 505.38983154 C-2.08496239 504.40074802 -2.08523851 503.41166449 -2.08552299 502.39260874 C-2.09150826 480.89917512 -2.0970487 459.40574142 -2.10213066 437.91230758 C-2.10462542 427.37252795 -2.10721851 416.83274834 -2.10986328 406.29296875 C-2.1101248 405.24411222 -2.11038632 404.19525568 -2.11065576 403.11461562 C-2.11918438 369.09430096 -2.13421142 335.07399294 -2.15259444 301.0536823 C-2.17144503 266.10476114 -2.18376749 231.15584365 -2.18782998 196.20691749 C-2.18840632 191.27503757 -2.1890576 186.34315767 -2.18975449 181.41127777 C-2.18988933 180.44057583 -2.19002418 179.46987388 -2.19016311 178.46975672 C-2.19253013 162.81959012 -2.20181589 147.16943484 -2.21366407 131.51927286 C-2.22541748 115.80045026 -2.22994126 100.08163892 -2.22700275 84.36281207 C-2.2254771 75.01436584 -2.22957707 65.66596071 -2.24159509 56.31752187 C-2.24906756 50.08100713 -2.24934666 43.84451945 -2.24366363 37.60800287 C-2.24062999 34.04924645 -2.24083098 30.49056804 -2.24976636 26.93181983 C-2.25929887 23.10637273 -2.25351502 19.28103939 -2.24609566 15.45558548 C-2.25134968 14.33984303 -2.25660371 13.22410059 -2.26201695 12.07454777 C-2.25752237 11.05929972 -2.25302778 10.04405167 -2.24839699 8.99803853 C-2.24870895 8.12267527 -2.24902092 7.247312 -2.24934233 6.34542258 C-1.98065292 3.81801291 -1.27247438 2.18132112 0 0 Z " fill="#050505" transform="translate(192,161)"/>
<path d="M0 0 C0.99 0.33 1.98 0.66 3 1 C2.67 1.33 2.34 1.66 2 2 C2.68351322 1.99962028 3.36702643 1.99924056 4.07125217 1.99884933 C44.59667314 1.97646321 85.12209331 1.95930937 125.64751922 1.94893467 C130.51525696 1.94768399 135.3829947 1.94638966 140.25073242 1.94506836 C141.21979681 1.94480605 142.18886119 1.94454374 143.18729117 1.94427348 C158.87088834 1.93992414 174.55448185 1.93204063 190.23807684 1.9228472 C206.33515638 1.91349022 222.43223399 1.90794005 238.52931613 1.90591151 C248.45919432 1.90454053 258.38906214 1.90021295 268.31893715 1.89208353 C275.13151491 1.88679086 281.94408732 1.88520145 288.756667 1.88649862 C292.68502874 1.88713805 296.61337237 1.8861692 300.54173088 1.88079453 C304.14385588 1.87590237 307.7459507 1.87569927 311.34807714 1.87910111 C313.25666771 1.87971885 315.16525796 1.8754293 317.0738433 1.87091869 C336.90513436 1.90513436 336.90513436 1.90513436 341 6 C207.02 5.67 73.04 5.34 -65 5 C-65 4.34 -65 3.68 -65 3 C-57.27124477 2.16434621 -49.64585707 1.85219765 -41.875 1.8671875 C-40.76568115 1.86623077 -39.6563623 1.86527405 -38.51342773 1.86428833 C-36.19075462 1.8636128 -33.86807956 1.86542293 -31.54541016 1.86962891 C-27.9820539 1.87502719 -24.41882135 1.86964176 -20.85546875 1.86328125 C-18.59114556 1.86394134 -16.32682244 1.86522108 -14.0625 1.8671875 C-12.99692871 1.86516327 -11.93135742 1.86313904 -10.83349609 1.86105347 C-9.84816895 1.86420563 -8.8628418 1.86735779 -7.84765625 1.87060547 C-6.98148682 1.87140106 -6.11531738 1.87219666 -5.22290039 1.87301636 C-3 2 -3 2 0 3 C0 2.01 0 1.02 0 0 Z " fill="#070707" transform="translate(294,120)"/>
<path d="M0 0 C1.03809814 0.00410889 2.07619629 0.00821777 3.14575195 0.01245117 C6.36002582 0.03319418 9.5740673 0.0633051 12.78820801 0.09893799 C14.49579657 0.11748646 16.20339962 0.13472142 17.91101074 0.15106201 C24.15908399 0.21118729 30.40655835 0.29081831 36.65414429 0.38946533 C38.78268168 0.42120956 40.91129185 0.44843158 43.03994751 0.47088623 C54.78923373 0.60101545 65.80987937 0.9248873 77.1875 4.125 C77.92830811 4.31795654 78.66911621 4.51091309 79.43237305 4.7097168 C93.98197524 8.67373538 105.98853664 16.09908681 117.1875 26.125 C118.13689453 26.95064453 118.13689453 26.95064453 119.10546875 27.79296875 C128.73187448 36.71446605 138.4918543 51.04155194 140.1875 64.125 C137.20836517 60.54819924 135.41563956 56.60878377 133.4375 52.4375 C130.31788609 46.02773041 126.87679128 40.52762486 122.1875 35.125 C121.07375 33.64 121.07375 33.64 119.9375 32.125 C105.93843706 15.78525773 84.13545659 6.62235021 63.1875 4.125 C57.16533312 3.74278342 51.12565828 3.7703178 45.09375 3.75390625 C43.37170339 3.74492105 41.6496575 3.73579892 39.9276123 3.72654724 C36.34397494 3.71017354 32.76042985 3.70237642 29.17675781 3.69946289 C24.58549943 3.69403829 19.99510383 3.65614309 15.40409088 3.61071873 C11.8593423 3.58101685 8.31480547 3.57374112 4.76994324 3.57273674 C3.07622756 3.56853398 1.38251128 3.55609733 -0.31108093 3.53521919 C-2.67093911 3.50839764 -5.02873979 3.51309642 -7.38867188 3.52563477 C-8.08479584 3.51080048 -8.7809198 3.49596619 -9.49813843 3.48068237 C-12.91538252 3.53245394 -14.48636431 3.81379414 -16.99042416 6.20322323 C-19.28465444 9.88211989 -19.31789554 12.16629331 -19.3271637 16.48815918 C-19.33410922 17.21985935 -19.34105475 17.95155951 -19.34821075 18.70543242 C-19.36647749 21.15224081 -19.35621798 23.59807926 -19.34594727 26.04492188 C-19.35300589 27.80107854 -19.36175067 29.55722913 -19.37205505 31.31336975 C-19.39456392 36.07988593 -19.39160603 40.8460703 -19.38273358 45.6126194 C-19.37762537 49.59143248 -19.38491481 53.57018312 -19.39220566 57.54898977 C-19.40920904 66.93424527 -19.40563393 76.31933818 -19.38891602 85.70458984 C-19.37198801 95.38922802 -19.38783758 105.07341569 -19.4201389 114.75800467 C-19.44682019 123.0723738 -19.45411493 131.38660257 -19.44562382 139.70101023 C-19.44069109 144.66714381 -19.44292909 149.63300621 -19.46341133 154.59910583 C-19.48174592 159.26798865 -19.47583714 163.93622234 -19.45121193 168.60507011 C-19.44619723 170.31873181 -19.44971089 172.03244279 -19.46236038 173.74606514 C-19.47826311 176.0854059 -19.46336978 178.4226017 -19.44068909 180.76184082 C-19.44010278 182.07074532 -19.43951647 183.37964981 -19.43891239 184.72821808 C-18.65481061 188.98008603 -17.11944023 190.43633302 -13.8125 193.125 C-11.05656862 194.50296569 -8.79470186 194.28798939 -5.71044922 194.33032227 C-4.42927216 194.35026749 -3.14809509 194.37021271 -1.82809448 194.39076233 C-0.42446006 194.40774669 0.97917563 194.42462549 2.3828125 194.44140625 C3.81485597 194.4619754 5.24689337 194.48297186 6.67892456 194.50437927 C10.45016563 194.55960403 14.22146152 194.60901147 17.99279785 194.65722656 C21.84030036 194.70743867 25.68772313 194.76312624 29.53515625 194.81835938 C37.08587 194.92594587 44.63665 195.02738971 52.1875 195.125 C52.1875 195.455 52.1875 195.785 52.1875 196.125 C43.685881 196.24103019 35.18459472 196.32978325 26.68237877 196.38406086 C22.7340936 196.41011626 18.78635153 196.44543826 14.83837891 196.50219727 C11.02579056 196.55666468 7.2137234 196.58645105 3.40077591 196.59938622 C1.94870426 196.60859995 0.49666002 196.62659289 -0.95518875 196.65365028 C-13.75630763 196.88265444 -13.75630763 196.88265444 -17.62646484 193.90698242 C-21.50597555 188.96985661 -22.06378528 185.07032974 -22.07992554 178.84449768 C-22.08672221 177.76025643 -22.08672221 177.76025643 -22.09365618 176.65411133 C-22.10629361 174.23752248 -22.10468027 171.8211592 -22.10302734 169.40454102 C-22.10901293 167.66971548 -22.11581855 165.93489261 -22.12338257 164.20007324 C-22.14104476 159.49142469 -22.14573799 154.78284883 -22.14701414 150.07417035 C-22.14843595 147.13211578 -22.15270606 144.19007969 -22.15800858 141.24802971 C-22.17650819 130.98361919 -22.1846791 120.71926062 -22.18310547 110.45483398 C-22.18190345 100.88730381 -22.20301783 91.319999 -22.2345928 81.75252587 C-22.26074079 73.53667723 -22.27147341 65.32090229 -22.27019465 57.10501236 C-22.26968467 52.19867175 -22.27538823 47.29253153 -22.29655075 42.38623238 C-22.31590875 37.77244038 -22.31607437 33.15904047 -22.30151749 28.54523468 C-22.29942539 26.85294714 -22.30415414 25.1606352 -22.3162384 23.46838951 C-22.33168071 21.15596073 -22.32239098 18.84488569 -22.30697632 16.53248596 C-22.30806585 15.23925195 -22.30915539 13.94601793 -22.31027794 12.61359501 C-21.72095484 8.48342074 -20.42144666 6.34540026 -17.8125 3.125 C-12.26981715 -0.5701219 -6.45018577 -0.03180618 0 0 Z " fill="#4C349A" transform="translate(542.8125,630.875)"/>
<path d="M0 0 C2.95499307 1.32900341 5.01274778 2.77299793 7.27734375 5.08203125 C8.17163086 5.98598633 8.17163086 5.98598633 9.08398438 6.90820312 C9.69564453 7.53662109 10.30730469 8.16503906 10.9375 8.8125 C11.54529297 9.42931641 12.15308594 10.04613281 12.77929688 10.68164062 C14.52268646 12.45135972 16.26169593 14.2252876 18 16 C21.02874437 19.07752356 24.09774629 22.0025803 27.375 24.8125 C30.97751111 27.98628251 34.13425151 31.31480026 37.234375 34.97265625 C42.47940894 41.26688461 42.47940894 41.26688461 49 46 C49 46.66 49 47.32 49 48 C49.99 48.33 50.98 48.66 52 49 C52 49.66 52 50.32 52 51 C52.639375 51.28875 53.27875 51.5775 53.9375 51.875 C56 53 56 53 57 55 C57.99 55.33 58.98 55.66 60 56 C60.66666667 57.33333333 61.33333333 58.66666667 62 60 C65.75301486 64.09419802 69.985424 67.62867333 74.20703125 71.23046875 C75.09455078 72.10638672 75.09455078 72.10638672 76 73 C76 73.66 76 74.32 76 75 C76.66 75 77.32 75 78 75 C79.4453125 76.46875 79.4453125 76.46875 81.125 78.5 C85.63834743 83.81258604 90.57665756 88.63576348 95.5625 93.5 C97.69423891 95.68639888 99.80539158 97.87986266 101.875 100.125 C102.49117187 100.78757812 103.10734375 101.45015625 103.7421875 102.1328125 C104.15726563 102.74898438 104.57234375 103.36515625 105 104 C104.505 105.485 104.505 105.485 104 107 C69.68 107 35.36 107 0 107 C0 106.67 0 106.34 0 106 C6.26079923 105.20808121 12.34426223 104.85969357 18.65063477 104.88647461 C19.56878464 104.88632858 20.48693451 104.88618256 21.4329071 104.8860321 C24.43576508 104.88672289 27.43855925 104.89447581 30.44140625 104.90234375 C32.536046 104.9042109 34.63068619 104.9056334 36.72532654 104.90663147 C42.21450017 104.91043327 47.70364696 104.9202434 53.19281006 104.93133545 C58.80366656 104.94160002 64.41452743 104.94613987 70.02539062 104.95117188 C81.01693882 104.96186793 92.00846717 104.97891604 103 105 C103 104.34 103 103.68 103 103 C102.11776764 102.60476135 102.11776764 102.60476135 101.2177124 102.20153809 C98.90332869 100.94762429 97.37571885 99.62938424 95.51660156 97.77539062 C94.85621887 97.12131226 94.19583618 96.46723389 93.51544189 95.79333496 C92.81425232 95.08809692 92.11306274 94.38285889 91.390625 93.65625 C90.66381531 92.93135376 89.93700562 92.20645752 89.18817139 91.45959473 C87.65602721 89.92880989 86.12639925 88.39550303 84.59912109 86.85986328 C82.25188369 84.5018923 79.89414222 82.15480454 77.53515625 79.80859375 C76.04883718 78.32095364 74.56313831 76.83269356 73.078125 75.34375 C72.3688385 74.63851196 71.659552 73.93327393 70.92877197 73.20666504 C69.9571109 72.22554749 69.9571109 72.22554749 68.96582031 71.22460938 C68.39164368 70.64884155 67.81746704 70.07307373 67.22589111 69.4798584 C66 68 66 68 66 66 C65.4225 65.773125 64.845 65.54625 64.25 65.3125 C61.43572387 63.67083893 59.97262267 61.56440947 58 59 C57.01 58.505 57.01 58.505 56 58 C56 57.34 56 56.68 56 56 C55.443125 55.773125 54.88625 55.54625 54.3125 55.3125 C51.34144815 53.62622733 49.35477875 51.469646 47 49 C46.071875 48.113125 45.14375 47.22625 44.1875 46.3125 C42 44 42 44 42 42 C41.15199829 41.64095581 41.15199829 41.64095581 40.28686523 41.2746582 C37.51447283 39.72937575 35.63981213 37.86486863 33.41015625 35.60546875 C32.54326172 34.73212891 31.67636719 33.85878906 30.78320312 32.95898438 C29.88537109 32.04439453 28.98753906 31.12980469 28.0625 30.1875 C27.16853516 29.28451172 26.27457031 28.38152344 25.35351562 27.45117188 C23.68006977 25.76033312 22.00869095 24.06744422 20.34008789 22.37182617 C17.90453916 19.90324444 15.45443836 17.44978931 13 15 C11.83333333 13.83333333 10.66666667 12.66666667 9.5 11.5 C8.61248047 10.61634766 8.61248047 10.61634766 7.70703125 9.71484375 C6.63129208 8.63418129 5.56476039 7.54419789 4.51171875 6.44140625 C3.37648386 5.2592885 2.19248344 4.12434153 1 3 C0.34 3 -0.32 3 -1 3 C-0.67 2.01 -0.34 1.02 0 0 Z " fill="#0A0A0A" transform="translate(648,192)"/>
<path d="M0 0 C0.66 0 1.32 0 2 0 C2.04558903 29.52137664 2.08100065 59.04275162 2.10213066 88.56415605 C2.10463218 92.04651425 2.10722082 95.52887237 2.10986328 99.01123047 C2.1103879 99.70452847 2.11091252 100.39782648 2.11145304 101.11213352 C2.1201644 112.3496162 2.13593837 123.58707849 2.15430559 134.82454906 C2.17298436 146.34842502 2.18396265 157.87228661 2.18817699 169.39617741 C2.19079105 175.8718339 2.19696175 182.34744409 2.21146011 188.82308578 C2.22498202 194.91162444 2.22923362 201.0000975 2.22621536 207.08864975 C2.22676795 209.32926794 2.23077734 211.56988821 2.23841095 213.81049347 C2.2482879 216.85770225 2.24599557 219.9046598 2.24050903 222.95187378 C2.24633472 223.8487481 2.2521604 224.74562242 2.25816262 225.66967475 C2.22824242 231.77175758 2.22824242 231.77175758 0 234 C-0.77128604 227.40307291 -1.13591014 220.93270423 -1.08229065 214.29354858 C-1.07906152 213.37028861 -1.07583239 212.44702863 -1.07250541 211.49579108 C-1.06053208 208.43123178 -1.04113911 205.3667666 -1.02172852 202.30224609 C-1.01157491 200.09390461 -1.00188243 197.88556096 -0.99261475 195.67721558 C-0.96624203 189.70276176 -0.93344086 183.72835868 -0.89946485 177.75394392 C-0.86501416 171.50261664 -0.83650426 165.2512623 -0.80735779 158.99990845 C-0.7576711 148.51408048 -0.70434029 138.02827558 -0.64819336 127.54248047 C-0.59039432 116.7462679 -0.53480878 105.95004764 -0.48217773 95.15380859 C-0.47892802 94.48734882 -0.4756783 93.82088904 -0.4723301 93.13423352 C-0.45603937 89.79050808 -0.43979428 86.44678242 -0.42356598 83.10305667 C-0.2889898 55.40200266 -0.14695722 27.7009909 0 0 Z " fill="#030403" transform="translate(777,341)"/>
<path d="M0 0 C2.33512959 0.32050798 4.66822025 0.65596692 7 1 C8.299375 1.12375 8.299375 1.12375 9.625 1.25 C12.99409408 2.31392444 14.5362801 4.4733604 17 7 C18.01888214 7.95986666 19.04447174 8.91265027 20.07574463 9.85919189 C29.99206408 18.97827911 39.54816991 28.42775373 49.05071259 37.97554779 C51.79748589 40.73528372 54.54754586 43.49170845 57.29840088 46.24737549 C63.11863005 52.0785655 68.93451737 57.91407683 74.75 63.75 C81.53617694 70.55990605 88.32409723 77.3680577 95.11615753 84.17209625 C97.82540139 86.88782013 100.53161989 89.60653433 103.23773193 92.32537842 C104.8871823 93.97845866 106.53677174 95.63140016 108.18652344 97.28417969 C109.31318924 98.41859497 109.31318924 98.41859497 110.46261597 99.57592773 C111.1518515 100.26523376 111.84108704 100.95453979 112.5512085 101.66473389 C113.14840572 102.26415173 113.74560295 102.86356956 114.36089706 103.48115158 C116.13089263 105.20185005 116.13089263 105.20185005 119 107 C120.34545559 108.58402679 121.68908256 110.16963635 123.02441406 111.76220703 C127.39545419 116.71338769 132.18742498 121.28793623 136.875 125.9375 C137.95596274 127.01343727 139.03669383 128.08960731 140.1171875 129.16601562 C142.74212641 131.78003292 145.37018628 134.39088596 148 137 C147.67 137.99 147.34 138.98 147 140 C123 116 123 116 120.29760742 113.26245117 C118.04917467 110.95934471 118.04917467 110.95934471 115.5 109.0625 C112.57679375 106.65085484 110.39404964 103.9327108 108 101 C106.35570171 99.31126121 104.68615782 97.64694485 103 96 C102.37867188 95.36835938 101.75734375 94.73671875 101.1171875 94.0859375 C98.14590747 91.0694669 95.22092167 88.18034422 91.9375 85.5 C89.65559116 83.55794992 87.9125591 81.81846123 86 79.5625 C80.93652042 73.61347914 75.29564 68.21123582 69.74169922 62.72583008 C67.4868166 60.49149237 65.24374773 58.24552254 63 56 C61.79692304 54.79682696 60.59379371 53.59370628 59.390625 52.390625 C50.46354167 43.46354167 41.53645833 34.53645833 32.609375 25.609375 C31.98717575 24.98732178 31.3649765 24.36526855 30.72392273 23.72436523 C29.6435812 22.6437464 28.56375669 21.56261015 27.48469543 20.48071289 C19.15759212 12.13426084 11.02115984 5.36254244 0 1 C0 0.67 0 0.34 0 0 Z " fill="#111111" transform="translate(636,126)"/>
<path d="M0 0 C0.99 0.495 0.99 0.495 2 1 C3.05796361 32.99335747 3.18814563 64.97930621 3.18511021 96.9876678 C3.1854669 102.51238863 3.19718375 108.0370475 3.2110464 113.56174862 C3.22568611 119.61665339 3.22929196 125.6715118 3.22869301 131.72643661 C3.22986922 134.27253448 3.23427076 136.81863306 3.24202538 139.36471939 C3.2517964 142.88921666 3.24896365 146.41348757 3.24291992 149.93798828 C3.24853943 150.97566345 3.25415894 152.01333862 3.25994873 153.0824585 C3.23792476 158.12385857 3.01339708 162.28016375 1 167 C0.67 167 0.34 167 0 167 C0 111.89 0 56.78 0 0 Z " fill="#080808" transform="translate(819,314)"/>
<path d="M0 0 C1.52904968 0.00068733 1.52904968 0.00068733 3.08898926 0.00138855 C5.24732629 0.00440029 7.40566135 0.01225416 9.56396484 0.0246582 C12.77840388 0.04260393 15.99254793 0.04516949 19.20703125 0.04492188 C30.08016947 0.06235347 40.94577133 0.23794067 51.8125 0.6171875 C52.84177612 0.64730423 53.87105225 0.67742096 54.93151855 0.70845032 C55.87644165 0.74625107 56.82136475 0.78405182 57.79492188 0.82299805 C58.62761597 0.85322556 59.46031006 0.88345306 60.3182373 0.91459656 C62.34375 1.23046875 62.34375 1.23046875 64.34375 3.23046875 C62.83491241 3.23260628 62.83491241 3.23260628 61.29559326 3.23478699 C51.81942069 3.25145112 42.34367787 3.2942066 32.867733 3.36255932 C27.99590642 3.39686124 23.12439448 3.42194426 18.25244141 3.42602539 C13.55131756 3.4303015 8.85090388 3.45870673 4.15000153 3.50390053 C2.35588974 3.5168976 0.56169306 3.5211754 -1.23246002 3.51662254 C-3.74462208 3.51173202 -6.25469608 3.53773693 -8.76660156 3.57104492 C-9.50963028 3.56241928 -10.252659 3.55379364 -11.01820374 3.54490662 C-14.55579087 3.62362164 -16.2668094 3.85295869 -18.84606934 6.35320282 C-21.03253924 9.82857713 -21.16241675 11.82112028 -21.17523193 15.90596008 C-21.18273319 16.56360058 -21.19023444 17.22124109 -21.197963 17.89881009 C-21.21820644 20.09472893 -21.21014489 22.2896119 -21.20214844 24.4855957 C-21.21088535 26.06267822 -21.22137155 27.63975186 -21.23347473 29.21681213 C-21.26134119 33.49330968 -21.26473928 37.76951807 -21.26375484 42.04609323 C-21.2668834 46.51713812 -21.2925004 50.98805268 -21.31573486 55.45903015 C-21.35630282 63.92327809 -21.37663744 72.38744897 -21.38970876 80.85177916 C-21.40557611 90.48902395 -21.44399061 100.12613755 -21.48430204 109.76330626 C-21.56671187 129.58565049 -21.62079722 149.40798857 -21.65625 169.23046875 C-21.98625 169.23046875 -22.31625 169.23046875 -22.65625 169.23046875 C-23.8821783 158.93727307 -23.57796134 148.80856231 -23.21875 138.48046875 C-23.1653886 136.80080105 -23.11264981 135.12111346 -23.06054688 133.44140625 C-22.93294716 129.37082907 -22.79696288 125.30061286 -22.65625 121.23046875 C-23.31625 120.90046875 -23.97625 120.57046875 -24.65625 120.23046875 C-23.99625 120.23046875 -23.33625 120.23046875 -22.65625 120.23046875 C-22.65625 99.44046875 -22.65625 78.65046875 -22.65625 57.23046875 C-23.31625 56.90046875 -23.97625 56.57046875 -24.65625 56.23046875 C-23.99625 56.23046875 -23.33625 56.23046875 -22.65625 56.23046875 C-22.66513245 55.64244476 -22.67401489 55.05442078 -22.6831665 54.44857788 C-22.77180783 48.31656638 -22.83205383 42.18473753 -22.87597656 36.05224609 C-22.89606517 33.76506149 -22.92334128 31.47792807 -22.95800781 29.19091797 C-23.00664558 25.89928541 -23.02924679 22.60833318 -23.046875 19.31640625 C-23.06752014 18.29743256 -23.08816528 17.27845886 -23.10943604 16.22860718 C-23.11082301 11.81901191 -22.88130737 8.75721258 -21.13183594 4.66259766 C-15.50115444 -0.86924151 -7.41297257 -0.0557622 0 0 Z " fill="#422C91" transform="translate(728.65625,630.76953125)"/>
<path d="M0 0 C1.03809814 0.00410889 2.07619629 0.00821777 3.14575195 0.01245117 C6.36002582 0.03319418 9.5740673 0.0633051 12.78820801 0.09893799 C14.49579657 0.11748646 16.20339962 0.13472142 17.91101074 0.15106201 C24.15908399 0.21118729 30.40655835 0.29081831 36.65414429 0.38946533 C38.78268168 0.42120956 40.91129185 0.44843158 43.03994751 0.47088623 C54.78923373 0.60101545 65.80987937 0.9248873 77.1875 4.125 C77.92830811 4.31795654 78.66911621 4.51091309 79.43237305 4.7097168 C93.98197524 8.67373538 105.98853664 16.09908681 117.1875 26.125 C118.13689453 26.95064453 118.13689453 26.95064453 119.10546875 27.79296875 C128.73187448 36.71446605 138.4918543 51.04155194 140.1875 64.125 C137.20836517 60.54819924 135.41563956 56.60878377 133.4375 52.4375 C130.31788609 46.02773041 126.87679128 40.52762486 122.1875 35.125 C121.07375 33.64 121.07375 33.64 119.9375 32.125 C105.93843706 15.78525773 84.13545659 6.62235021 63.1875 4.125 C57.16533312 3.74278342 51.12565828 3.7703178 45.09375 3.75390625 C43.37170339 3.74492105 41.6496575 3.73579892 39.9276123 3.72654724 C36.34397494 3.71017354 32.76042985 3.70237642 29.17675781 3.69946289 C24.58549943 3.69403829 19.99510383 3.65614309 15.40409088 3.61071873 C11.8593423 3.58101685 8.31480547 3.57374112 4.76994324 3.57273674 C3.07622756 3.56853398 1.38251128 3.55609733 -0.31108093 3.53521919 C-2.67093911 3.50839764 -5.02873979 3.51309642 -7.38867188 3.52563477 C-8.08479584 3.51080048 -8.7809198 3.49596619 -9.49813843 3.48068237 C-11.70030539 3.46033734 -11.70030539 3.46033734 -14.8125 4.125 C-17.16539233 6.54962941 -17.16539233 6.54962941 -18.8125 9.125 C-19.4725 9.125 -20.1325 9.125 -20.8125 9.125 C-19.5470464 5.22318474 -18.40908191 3.18018966 -14.8125 1.125 C-9.94942315 -0.24567417 -5.00851969 -0.02469726 0 0 Z " fill="#543CA4" transform="translate(542.8125,630.875)"/>
<path d="M0 0 C4.90719383 -0.0750159 9.81404271 -0.1290041 14.72167969 -0.16479492 C16.38580145 -0.17973924 18.04988483 -0.20010223 19.71386719 -0.22631836 C45.0789922 -0.61549447 45.0789922 -0.61549447 54 7 C59.63245827 12.8884791 61.28994637 17.79262784 61.125 25.875 C61.10695313 27.02742187 61.08890625 28.17984375 61.0703125 29.3671875 C61.04710937 30.23601563 61.02390625 31.10484375 61 32 C60.67 32 60.34 32 60 32 C59.89042969 31.05898438 59.78085937 30.11796875 59.66796875 29.1484375 C59.50941406 27.90320313 59.35085938 26.65796875 59.1875 25.375 C59.03667969 24.14523437 58.88585937 22.91546875 58.73046875 21.6484375 C57.48506067 15.42805704 54.98001352 10.94251071 50 7 C40.47370568 1.91578697 30.29846287 2.33635381 19.8125 2.25 C18.08004899 2.22178788 16.34762513 2.1918533 14.61523438 2.16015625 C10.41020577 2.08691769 6.20549747 2.0369658 2 2 C2.11589478 2.84848511 2.11589478 2.84848511 2.23413086 3.71411133 C3.34305895 13.3786828 2.87940929 22.98971465 2.5625 32.6875 C2.50916201 34.46808098 2.45642285 36.24868 2.40429688 38.02929688 C2.27643319 42.35310353 2.14047196 46.67658535 2 51 C5.91027835 51.050211 9.82042656 51.08609395 13.73095703 51.10986328 C15.69961157 51.12462224 17.6681769 51.15006161 19.63671875 51.17578125 C37.24924496 51.40919448 37.24924496 51.40919448 52.4921875 43.6171875 C55.32852471 40.41162296 57.24508713 36.87928108 59 33 C59.33 33 59.66 33 60 33 C60.3741191 38.12186868 58.82313836 40.24891163 55.71875 44.13671875 C53.41341526 46.63591118 50.95191348 48.33152716 48 50 C47.34 50.391875 46.68 50.78375 46 51.1875 C40.78237752 53.30715913 35.15731119 53.15973927 29.609375 53.16796875 C28.82355042 53.17129715 28.03772583 53.17462555 27.22808838 53.17805481 C25.57752057 53.18309266 23.92694268 53.18546411 22.27636719 53.18530273 C19.74397362 53.18750524 17.21200506 53.20573709 14.6796875 53.22460938 C13.07291815 53.22754071 11.46614674 53.22952724 9.859375 53.23046875 C9.10106384 53.23765427 8.34275269 53.24483978 7.5614624 53.25224304 C2.22884631 53.22884631 2.22884631 53.22884631 0 51 C-0.24050903 48.82333374 -0.24050903 48.82333374 -0.22705078 46.09130859 C-0.22689972 45.07040131 -0.22674866 44.04949402 -0.22659302 42.99765015 C-0.21627045 41.89240997 -0.20594788 40.7871698 -0.1953125 39.6484375 C-0.1924826 38.5192691 -0.18965271 37.39010071 -0.18673706 36.22671509 C-0.17551462 32.60937029 -0.15040622 28.99227034 -0.125 25.375 C-0.11497287 22.9270869 -0.10584656 20.47916993 -0.09765625 18.03125 C-0.07556857 12.02074936 -0.04207074 6.01039217 0 0 Z " fill="#5C42AD" transform="translate(745,667)"/>
<path d="M0 0 C7.92 0 15.84 0 24 0 C25.134375 2.289375 26.26875 4.57875 27.4375 6.9375 C30.44776318 12.98952105 33.56165566 18.97757965 36.75 24.9375 C42.79461789 36.28605545 42.79461789 36.28605545 45 42 C44.505 42.99 44.505 42.99 44 44 C37.99993165 32.72872193 32.14538824 21.39887163 26.49291992 9.94873047 C26.05052979 9.05557129 25.60813965 8.16241211 25.15234375 7.2421875 C24.76038818 6.4466748 24.36843262 5.65116211 23.96459961 4.83154297 C23.13412112 3.03540707 23.13412112 3.03540707 22 2 C20.5112814 1.91330568 19.018555 1.89296506 17.52734375 1.90234375 C16.17866211 1.90717773 16.17866211 1.90717773 14.80273438 1.91210938 C13.38444336 1.92467773 13.38444336 1.92467773 11.9375 1.9375 C10.98810547 1.94201172 10.03871094 1.94652344 9.06054688 1.95117188 C6.70696935 1.9629989 4.35351523 1.97947975 2 2 C2.00222061 2.62481262 2.00444122 3.24962524 2.00672913 3.89337158 C2.02900368 10.44811425 2.04399828 17.00284601 2.05493164 23.55761719 C2.05993319 25.9977258 2.06673655 28.43783147 2.07543945 30.87792969 C2.0876893 34.40300225 2.09327026 37.92803489 2.09765625 41.453125 C2.10281754 42.5286261 2.10797882 43.6041272 2.11329651 44.71221924 C2.11477941 65.13394447 2.11477941 65.13394447 -1 70 C-6.53180792 74.07044114 -10.75596455 74.5522169 -17.5 74.3125 C-18.31597656 74.30283203 -19.13195312 74.29316406 -19.97265625 74.28320312 C-33.82795588 74.02744719 -33.82795588 74.02744719 -37.375 70.5 C-40.80108757 66.68209923 -40.9593215 62.96277699 -41 58 C-41.03738281 57.17242188 -41.07476563 56.34484375 -41.11328125 55.4921875 C-41.25029961 51.00663921 -41.25029961 51.00663921 -41 49 C-40.34 48.34 -39.68 47.68 -39 47 C-38.97421875 48.24136719 -38.9484375 49.48273437 -38.921875 50.76171875 C-38.86557918 52.40368028 -38.80823217 54.045606 -38.75 55.6875 C-38.73582031 56.50412109 -38.72164062 57.32074219 -38.70703125 58.16210938 C-38.49778309 63.33053889 -37.91707039 66.26700247 -34 70 C-29.7928881 72.10355595 -24.30994707 71.27374276 -19.6875 71.3125 C-18.54603516 71.34150391 -17.40457031 71.37050781 -16.22851562 71.40039062 C-14.57432617 71.41295898 -14.57432617 71.41295898 -12.88671875 71.42578125 C-11.37404419 71.44765503 -11.37404419 71.44765503 -9.83081055 71.4699707 C-6.13706859 70.85673627 -4.63480475 69.6422219 -2 67 C-1.24782791 64.00247381 -1.24782791 64.00247381 -1.35644531 60.61083984 C-1.34002991 59.31624847 -1.3236145 58.0216571 -1.30670166 56.68783569 C-1.3134634 55.27886776 -1.32061377 53.86990164 -1.328125 52.4609375 C-1.31754464 51.01411101 -1.30463289 49.56729985 -1.28948975 48.12051392 C-1.25529019 44.31701196 -1.24990714 40.51402296 -1.25140381 36.71038818 C-1.24817736 31.34284731 -1.20551942 25.97544939 -1.16766357 20.60806274 C-1.14762967 17.75006386 -1.13831454 14.89233742 -1.13751221 12.03427124 C-1.13370544 10.74598419 -1.12989868 9.45769714 -1.12597656 8.13037109 C-1.12551331 6.99215912 -1.12505005 5.85394714 -1.12457275 4.6812439 C-1 2 -1 2 0 0 Z " fill="#4E369B" transform="translate(746,754)"/>
<path d="M0 0 C30 0 30 0 36 1 C36 1.33 36 1.66 36 2 C24.78 2 13.56 2 2 2 C2.01047363 5.55362305 2.02094727 9.10724609 2.03173828 12.76855469 C2.06484256 24.49522979 2.08705729 36.22191145 2.10362434 47.94861984 C2.11393825 55.06017182 2.12800075 62.17167955 2.15087891 69.28320312 C2.17293719 76.14314444 2.18456113 83.00303968 2.18975449 89.86301422 C2.19345665 92.48333715 2.2006858 95.10365749 2.21146011 97.72396088 C2.22592746 101.38731884 2.22797991 105.05048536 2.22705078 108.71386719 C2.23424133 109.80287323 2.24143188 110.89187927 2.24884033 112.0138855 C2.246091 113.01225433 2.24334167 114.01062317 2.24050903 115.03924561 C2.24235262 115.90573101 2.24419621 116.77221642 2.24609566 117.66495895 C2 120 2 120 0 124 C0 83.08 0 42.16 0 0 Z " fill="#543CA4" transform="translate(564,667)"/>
<path d="M0 0 C0.33 0 0.66 0 1 0 C1 30.69 1 61.38 1 93 C0.34 93 -0.32 93 -1 93 C-1.87958841 76.54997601 -2.18633889 60.1343843 -2.18530273 43.66162109 C-2.18752072 39.7131113 -2.20585357 35.76486814 -2.22460938 31.81640625 C-2.22753907 29.2682301 -2.2295267 26.72005266 -2.23046875 24.171875 C-2.23765427 23.01024841 -2.24483978 21.84862183 -2.25224304 20.65179443 C-2.2325097 13.55696486 -1.53133914 6.92985243 0 0 Z " fill="#050505" transform="translate(605,178)"/>
<path d="M0 0 C0.99 0.495 0.99 0.495 2 1 C-8.53156002 12.7283282 -21.32847688 19.78452471 -37 22 C-39.30879451 22.07839853 -41.61958492 22.10787794 -43.9296875 22.09765625 C-45.21875 22.09443359 -46.5078125 22.09121094 -47.8359375 22.08789062 C-49.18229236 22.07953733 -50.52864652 22.07107241 -51.875 22.0625 C-53.24479004 22.0574783 -54.61458185 22.05291657 -55.984375 22.04882812 C-59.3229619 22.03707254 -62.66145815 22.02063964 -66 22 C-65.67 20.68 -65.34 19.36 -65 18 C-65 18.66 -65 19.32 -65 20 C-61.08914329 19.9300805 -57.17914253 19.84164703 -53.26904297 19.73754883 C-51.30066475 19.6887559 -49.33195966 19.65376562 -47.36328125 19.61914062 C-28.54188163 19.09367008 -13.38154997 13.59738142 0 0 Z " fill="#553CA3" transform="translate(631,770)"/>
<path d="M0 0 C0.99 0.495 0.99 0.495 2 1 C3.12060158 6.41801546 3.1463249 11.77732068 3.1328125 17.29296875 C3.13376923 18.16141922 3.13472595 19.02986969 3.13571167 19.92463684 C3.13638868 21.74915642 3.13456798 23.57367848 3.13037109 25.39819336 C3.12499645 28.18934513 3.13034235 30.98033743 3.13671875 33.77148438 C3.13605827 35.54947952 3.13477772 37.32747457 3.1328125 39.10546875 C3.13483673 39.9378154 3.13686096 40.77016205 3.13894653 41.62773132 C3.13579437 42.40566544 3.13264221 43.18359955 3.12939453 43.98510742 C3.12859894 44.66570724 3.12780334 45.34630707 3.12698364 46.04753113 C2.99114241 48.13619214 2.52660926 49.97781351 2 52 C1.77882441 54.4138176 1.59427758 56.83114597 1.4375 59.25 C1.35371094 60.51328125 1.26992188 61.7765625 1.18359375 63.078125 C1.12300781 64.04234375 1.06242188 65.0065625 1 66 C0.67 66 0.34 66 0 66 C0 44.22 0 22.44 0 0 Z " fill="#090809" transform="translate(819,482)"/>
<path d="M0 0 C38.28 0 76.56 0 116 0 C116 0.33 116 0.66 116 1 C77.72 1 39.44 1 0 1 C0 0.67 0 0.34 0 0 Z " fill="#322F31" transform="translate(636,911)"/>
<path d="M0 0 C7.33209544 -0.85256924 13.37944381 2.09794912 20 5 C20.79792969 5.34933594 21.59585938 5.69867187 22.41796875 6.05859375 C35.12678287 12.37827727 45.24248652 23.98403062 50.203125 37.20703125 C50.98823411 39.95876171 51.16724536 42.15682896 51 45 C49.09097968 42.13646952 48.03433564 39.63595713 46.8125 36.4375 C40.22542836 20.48985287 29.40336257 11.98519291 13.9375 5.3125 C9.3325955 3.43751968 4.86035112 2.0281512 0 1 C0 0.67 0 0.34 0 0 Z " fill="#533B9E" transform="translate(794,634)"/>
<path d="M0 0 C0.66 0 1.32 0 2 0 C2.33 15.18 2.66 30.36 3 46 C2.34 46 1.68 46 1 46 C1 45.34 1 44.68 1 44 C0.34 43.67 -0.32 43.34 -1 43 C-1.02487921 38.16195034 -1.04294428 33.32393865 -1.05493164 28.48583984 C-1.05993363 26.84292959 -1.06673733 25.20002373 -1.07543945 23.55712891 C-1.0876874 21.18390819 -1.09326979 18.81074677 -1.09765625 16.4375 C-1.10281754 15.71320801 -1.10797882 14.98891602 -1.11329651 14.24267578 C-1.11381759 9.4125661 -0.68027235 4.78309137 0 0 Z " fill="#0C0C0C" transform="translate(604,281)"/>
<path d="M0 0 C4.62236116 -0.07508834 9.24435447 -0.12903662 13.8671875 -0.16479492 C15.43430783 -0.17972752 17.00138754 -0.20008115 18.56835938 -0.22631836 C43.06697585 -0.62575232 43.06697585 -0.62575232 52 7 C57.63245827 12.8884791 59.28994637 17.79262784 59.125 25.875 C59.10695313 27.02742187 59.08890625 28.17984375 59.0703125 29.3671875 C59.04710937 30.23601563 59.02390625 31.10484375 59 32 C58.67 32 58.34 32 58 32 C57.89042969 31.05898438 57.78085937 30.11796875 57.66796875 29.1484375 C57.50941406 27.90320313 57.35085938 26.65796875 57.1875 25.375 C57.03667969 24.14523437 56.88585937 22.91546875 56.73046875 21.6484375 C55.48506067 15.42805704 52.98001352 10.94251071 48 7 C40.22574899 3.51095361 33.01023757 1.92060423 24.51171875 1.68359375 C23.4569207 1.6524221 23.4569207 1.6524221 22.3808136 1.62062073 C20.14980183 1.55559885 17.91867931 1.49646224 15.6875 1.4375 C14.16860866 1.39426964 12.64972823 1.35065395 11.13085938 1.30664062 C7.4206888 1.19996666 3.71039579 1.09856779 0 1 C0 0.67 0 0.34 0 0 Z " fill="#432B8E" transform="translate(747,667)"/>
<path d="M0 0 C3.56804358 0.58329498 5.27401087 1.87930084 7.828125 4.39453125 C8.54218506 5.09739258 9.25624512 5.80025391 9.99194336 6.52441406 C11.1096814 7.6570166 11.1096814 7.6570166 12.25 8.8125 C13.39190796 9.96250488 13.39190796 9.96250488 14.55688477 11.13574219 C30.67518374 27.69163422 30.67518374 27.69163422 31.125 37.8125 C31.08375 38.534375 31.0425 39.25625 31 40 C28.57640726 37.01441474 27.09376869 34.07821658 25.5625 30.5625 C21.73009412 22.75504285 16.0896084 17.07813301 10 11 C9.49726562 10.4956543 8.99453125 9.99130859 8.4765625 9.47167969 C6.25262374 7.24332835 4.01996883 5.02575578 1.765625 2.828125 C0 1 0 1 0 0 Z " fill="#0E0E0E" transform="translate(788,270)"/>
<path d="M0 0 C0.33 0 0.66 0 1 0 C1.3741191 5.12186868 -0.17686164 7.24891163 -3.28125 11.13671875 C-5.58658474 13.63591118 -8.04808652 15.33152716 -11 17 C-11.66 17.391875 -12.32 17.78375 -13 18.1875 C-18.25478247 20.32225538 -23.87834232 20.13574457 -29.4609375 20.09765625 C-30.25150543 20.0962413 -31.04207336 20.09482635 -31.8565979 20.09336853 C-34.36277166 20.08780504 -36.86885358 20.07525944 -39.375 20.0625 C-41.08202995 20.05748028 -42.78906132 20.0529182 -44.49609375 20.04882812 C-48.66409748 20.03784759 -52.83203321 20.02060839 -57 20 C-57 19.67 -57 19.34 -57 19 C-56.1843457 18.98018066 -55.36869141 18.96036133 -54.52832031 18.93994141 C-51.44167015 18.86087494 -48.35534632 18.77416326 -45.26904297 18.68261719 C-43.30061057 18.62644427 -41.33194238 18.57873529 -39.36328125 18.53125 C-21.75109292 18.36899549 -21.75109292 18.36899549 -6.5078125 10.6171875 C-3.67147529 7.41162296 -1.75491287 3.87928108 0 0 Z " fill="#4D349A" transform="translate(804,700)"/>
<path d="M0 0 C0 0.66 0 1.32 0 2 C-0.94359375 2.32871094 -0.94359375 2.32871094 -1.90625 2.6640625 C-13.16929446 6.83681692 -20.80767253 13.63311567 -27.66796875 23.42578125 C-28.32732422 24.20501953 -28.32732422 24.20501953 -29 25 C-29.66 25 -30.32 25 -31 25 C-26.74722181 13.47114159 -17.24937875 5.90567932 -6.3515625 0.74609375 C-4 0 -4 0 0 0 Z " fill="#0C0C0D" transform="translate(227,125)"/>
<path d="M0 0 C0.33 0 0.66 0 1 0 C1.02917234 3.87498404 1.04685673 7.74993958 1.0625 11.625 C1.07087891 12.71941406 1.07925781 13.81382812 1.08789062 14.94140625 C1.09111328 16.00488281 1.09433594 17.06835938 1.09765625 18.1640625 C1.10289307 19.13811035 1.10812988 20.1121582 1.11352539 21.11572266 C0.99414506 24.14875321 0.55866724 27.01915268 0 30 C-0.66 30 -1.32 30 -2 30 C-2.38297872 9.46808511 -2.38297872 9.46808511 0 0 Z " fill="#0D0D0D" transform="translate(605,178)"/>
<path d="M0 0 C0.99 0.33 1.98 0.66 3 1 C2.67 1.33 2.34 1.66 2 2 C7.28 2 12.56 2 18 2 C18 2.66 18 3.32 18 4 C18.66 4.33 19.32 4.66 20 5 C11.42 5 2.84 5 -6 5 C-5.34 4.67 -4.68 4.34 -4 4 C-3.67 3.34 -3.34 2.68 -3 2 C-2.01 2.33 -1.02 2.66 0 3 C0 2.01 0 1.02 0 0 Z " fill="#0F0F0F" transform="translate(294,120)"/>
<path d="M0 0 C2.94764998 1.47382499 3.14566919 3.52569929 4.3125 6.5625 C6.41913181 11.81027031 8.84739679 16.31613238 12 21 C10.68 21.33 9.36 21.66 8 22 C6.65461856 19.27620319 5.32358465 16.54686492 4 13.8125 C3.6184375 13.04357422 3.236875 12.27464844 2.84375 11.48242188 C-0.56355932 4.39400159 -0.56355932 4.39400159 0 0 Z " fill="#0E0D0E" transform="translate(192,870)"/>
<path d="M0 0 C0.671875 1.7734375 0.671875 1.7734375 1 4 C-0.109375 5.8515625 -0.109375 5.8515625 -1.75 7.625 C-2.28109375 8.21539063 -2.8121875 8.80578125 -3.359375 9.4140625 C-5 11 -5 11 -8 13 C-10.1875 12.625 -10.1875 12.625 -12 12 C-11 10 -11 10 -8.25 8.8125 C-4.05518491 6.47308389 -2.57351585 4.01165705 0 0 Z " fill="#100F11" transform="translate(773,894)"/>
<path d="M0 0 C5.1588796 2.79725916 10.17342499 5.658525 15 9 C11.11576096 10.29474635 9.71300843 9.63372371 6 8 C2.97751317 5.38051141 1.26934731 3.80804192 0 0 Z " fill="#090909" transform="translate(208,896)"/>
<path d="M0 0 C0.33 0 0.66 0 1 0 C1.05384521 2.29141286 1.09272087 4.58318188 1.125 6.875 C1.14820313 8.15117188 1.17140625 9.42734375 1.1953125 10.7421875 C1 14 1 14 -1 16 C-1.85330338 10.16524985 -2.48351814 5.55139349 0 0 Z " fill="#0C0C0D" transform="translate(778,559)"/>
<path d="M0 0 C0.66 0 1.32 0 2 0 C2 3.3 2 6.6 2 10 C1.34 10 0.68 10 0 10 C0 11.98 0 13.96 0 16 C-0.33 16 -0.66 16 -1 16 C-1.02701408 13.89590361 -1.04640223 11.79170822 -1.0625 9.6875 C-1.07410156 8.51574219 -1.08570313 7.34398437 -1.09765625 6.13671875 C-1 3 -1 3 0 0 Z " fill="#141415" transform="translate(604,271)"/>
<path d="M0 0 C0 0.66 0 1.32 0 2 C-0.61875 2.5775 -1.2375 3.155 -1.875 3.75 C-4.34107433 6.36113753 -5.06457561 8.57011055 -6 12 C-6.99 12 -7.98 12 -9 12 C-9 10.35 -9 8.7 -9 7 C-8.34 7 -7.68 7 -7 7 C-6.731875 6.401875 -6.46375 5.80375 -6.1875 5.1875 C-3.37142857 0 -3.37142857 0 0 0 Z " fill="#0D0C0D" transform="translate(240,169)"/>
<path d="M0 0 C0.56203125 0.14308594 1.1240625 0.28617188 1.703125 0.43359375 C4.04545453 1.01120902 6.39417659 1.54283307 8.75 2.0625 C9.54921875 2.23910156 10.3484375 2.41570313 11.171875 2.59765625 C11.77515625 2.73042969 12.3784375 2.86320313 13 3 C13 3.99 13 4.98 13 6 C7.57689095 5.56615128 4.29855944 4.35497322 0 1 C0 0.67 0 0.34 0 0 Z " fill="#131116" transform="translate(785,590)"/>
<path d="M0 0 C1.27310312 0.93441535 2.543388 1.87267111 3.8125 2.8125 C4.52019531 3.33457031 5.22789062 3.85664063 5.95703125 4.39453125 C7.78531393 5.83128877 9.39896688 7.31815763 11 9 C10.01 9.495 10.01 9.495 9 10 C1.89473684 5.42105263 1.89473684 5.42105263 0 3 C0 2.01 0 1.02 0 0 Z " fill="#0F0F0F" transform="translate(608,330)"/>
<path d="M0 0 C-4.51350747 3.52273754 -7.28341664 4.45732667 -13 4 C-4.66666667 -1.55555556 -4.66666667 -1.55555556 0 0 Z " fill="#0C0B0D" transform="translate(813,591)"/>
<path d="M0 0 C1.44096586 0.42594588 2.87768712 0.86626633 4.3125 1.3125 C5.11300781 1.55613281 5.91351562 1.79976562 6.73828125 2.05078125 C9.09964573 3.04182023 10.33879993 4.08074943 12 6 C8.62534314 6 6.46034008 5.18506921 3.3125 4 C2.31863281 3.62875 1.32476563 3.2575 0.30078125 2.875 C-0.45847656 2.58625 -1.21773437 2.2975 -2 2 C-1.34 1.34 -0.68 0.68 0 0 Z " fill="#5A40A8" transform="translate(786,668)"/>
<path d="M0 0 C-0.8353125 0.37125 -0.8353125 0.37125 -1.6875 0.75 C-5.63317701 2.88279838 -8.92013493 5.75803677 -12 9 C-11.15905619 5.84646071 -10.49932382 3.53498981 -8.25 1.125 C-5.37565673 -0.31217164 -3.17065239 -0.21618085 0 0 Z " fill="#533B9C" transform="translate(718,632)"/>
<path d="M0 0 C2.70608417 1.35304209 2.96183047 2.80966544 4.125 5.5625 C4.47820313 6.38878906 4.83140625 7.21507812 5.1953125 8.06640625 C5.46085938 8.70449219 5.72640625 9.34257813 6 10 C2.15625 9.21875 2.15625 9.21875 0.75 7.25 C-0.0957901 4.71262971 -0.14764761 2.65765704 0 0 Z " fill="#0C0B0E" transform="translate(778,577)"/>
<path d="M0 0 C0.33 0 0.66 0 1 0 C1.32613618 4.67461851 0.70582788 7.16674383 -2 11 C-2.66 10.34 -3.32 9.68 -4 9 C-2.68 6.03 -1.36 3.06 0 0 Z " fill="#0A0A0C" transform="translate(819,576)"/>
<path d="M0 0 C0.99 0.33 1.98 0.66 3 1 C2.195625 1.61875 1.39125 2.2375 0.5625 2.875 C-2.03874519 4.74164041 -2.03874519 4.74164041 -3 7 C-3.66 7 -4.32 7 -5 7 C-3.75023244 3.34683329 -3.32901247 2.21934164 0 0 Z " fill="#563E9C" transform="translate(527,633)"/>
<path d="M0 0 C0.66 0 1.32 0 2 0 C2 2.64 2 5.28 2 8 C1.01 7.67 0.02 7.34 -1 7 C-0.67 4.69 -0.34 2.38 0 0 Z " fill="#090909" transform="translate(604,168)"/>
<path d="M0 0 C0.66 0 1.32 0 2 0 C1.67 2.64 1.34 5.28 1 8 C0.34 8 -0.32 8 -1 8 C-1.04241723 5.66705225 -1.04092937 3.33297433 -1 1 C-0.67 0.67 -0.34 0.34 0 0 Z " fill="#141413" transform="translate(604,176)"/>
<path d="M0 0 C0.33 0 0.66 0 1 0 C1 3.63 1 7.26 1 11 C0.67 11 0.34 11 0 11 C0 7.37 0 3.74 0 0 Z " fill="#2B2C2B" transform="translate(188,648)"/>
<path d="M0 0 C0.33 0 0.66 0 1 0 C1 3.3 1 6.6 1 10 C0.67 10 0.34 10 0 10 C0 6.7 0 3.4 0 0 Z " fill="#2A2A2A" transform="translate(188,473)"/>
<path d="M0 0 C3.3 0 6.6 0 10 0 C10 0.33 10 0.66 10 1 C6.7 1 3.4 1 0 1 C0 0.67 0 0.34 0 0 Z " fill="#2E2C2D" transform="translate(709,343)"/>
<path d="M0 0 C2.64 0 5.28 0 8 0 C8 0.33 8 0.66 8 1 C5.36 1 2.72 1 0 1 C0 0.67 0 0.34 0 0 Z " fill="#2E2D2D" transform="translate(244,911)"/>
<path d="M0 0 C0.33 0 0.66 0 1 0 C1 2.64 1 5.28 1 8 C0.67 8 0.34 8 0 8 C0 5.36 0 2.72 0 0 Z " fill="#2C2B2B" transform="translate(188,777)"/>
<path d="M0 0 C0.33 0 0.66 0 1 0 C1 2.64 1 5.28 1 8 C0.67 8 0.34 8 0 8 C0 5.36 0 2.72 0 0 Z " fill="#2A2A29" transform="translate(188,280)"/>
<path d="M0 0 C0.33 0 0.66 0 1 0 C1 2.31 1 4.62 1 7 C0.67 7 0.34 7 0 7 C0 4.69 0 2.38 0 0 Z " fill="#2B2B2B" transform="translate(188,537)"/>
<path d="M0 0 C0.33 0 0.66 0 1 0 C1 2.31 1 4.62 1 7 C0.67 7 0.34 7 0 7 C0 4.69 0 2.38 0 0 Z " fill="#2A2A29" transform="translate(188,318)"/>
<path d="M0 0 C1.98 0 3.96 0 6 0 C6 0.33 6 0.66 6 1 C4.02 1 2.04 1 0 1 C0 0.67 0 0.34 0 0 Z " fill="#302E2E" transform="translate(235,911)"/>
<path d="M0 0 C0.33 0 0.66 0 1 0 C1 1.98 1 3.96 1 6 C0.67 6 0.34 6 0 6 C0 4.02 0 2.04 0 0 Z " fill="#2D2C2C" transform="translate(188,826)"/>
<path d="M0 0 C0.33 0 0.66 0 1 0 C1 1.98 1 3.96 1 6 C0.67 6 0.34 6 0 6 C0 4.02 0 2.04 0 0 Z " fill="#2C2B2B" transform="translate(188,761)"/>
<path d="M0 0 C0.33 0 0.66 0 1 0 C1 1.98 1 3.96 1 6 C0.67 6 0.34 6 0 6 C0 4.02 0 2.04 0 0 Z " fill="#2B2B2B" transform="translate(188,746)"/>
<path d="M0 0 C0.33 0 0.66 0 1 0 C1 1.98 1 3.96 1 6 C0.67 6 0.34 6 0 6 C0 4.02 0 2.04 0 0 Z " fill="#2B2B2A" transform="translate(188,737)"/>
<path d="M0 0 C0.33 0 0.66 0 1 0 C1 1.98 1 3.96 1 6 C0.67 6 0.34 6 0 6 C0 4.02 0 2.04 0 0 Z " fill="#2B2B2B" transform="translate(188,690)"/>
<path d="M0 0 C1.98 0 3.96 0 6 0 C6 0.33 6 0.66 6 1 C4.02 1 2.04 1 0 1 C0 0.67 0 0.34 0 0 Z " fill="#775EC7" transform="translate(776,670)"/>
<path d="M0 0 C0.33 0 0.66 0 1 0 C1 1.98 1 3.96 1 6 C0.67 6 0.34 6 0 6 C0 4.02 0 2.04 0 0 Z " fill="#2A2A2A" transform="translate(188,354)"/>
<path d="M0 0 C1.98 0 3.96 0 6 0 C6 0.33 6 0.66 6 1 C4.02 1 2.04 1 0 1 C0 0.67 0 0.34 0 0 Z " fill="#2E2D2D" transform="translate(677,343)"/>
<path d="M0 0 C0.33 0 0.66 0 1 0 C1 1.65 1 3.3 1 5 C0.67 5 0.34 5 0 5 C0 3.35 0 1.7 0 0 Z " fill="#7B5FC9" transform="translate(704,715)"/>
<path d="M0 0 C0.33 0 0.66 0 1 0 C1 1.65 1 3.3 1 5 C0.67 5 0.34 5 0 5 C0 3.35 0 1.7 0 0 Z " fill="#2C2B2B" transform="translate(188,712)"/>
<path d="M0 0 C0.33 0 0.66 0 1 0 C1 1.65 1 3.3 1 5 C0.67 5 0.34 5 0 5 C0 3.35 0 1.7 0 0 Z " fill="#2B2B2B" transform="translate(188,698)"/>
<path d="M0 0 C0.33 0 0.66 0 1 0 C1 1.65 1 3.3 1 5 C0.67 5 0.34 5 0 5 C0 3.35 0 1.7 0 0 Z " fill="#2C2C2C" transform="translate(188,604)"/>
<path d="M0 0 C0.33 0 0.66 0 1 0 C1 1.65 1 3.3 1 5 C0.67 5 0.34 5 0 5 C0 3.35 0 1.7 0 0 Z " fill="#2B2B2A" transform="translate(188,594)"/>
<path d="M0 0 C0.33 0 0.66 0 1 0 C1 1.65 1 3.3 1 5 C0.67 5 0.34 5 0 5 C0 3.35 0 1.7 0 0 Z " fill="#2B2A2A" transform="translate(188,504)"/>
<path d="M0 0 C0.33 0 0.66 0 1 0 C1 1.65 1 3.3 1 5 C0.67 5 0.34 5 0 5 C0 3.35 0 1.7 0 0 Z " fill="#292A28" transform="translate(188,414)"/>
<path d="M0 0 C0.33 0 0.66 0 1 0 C1 1.65 1 3.3 1 5 C0.67 5 0.34 5 0 5 C0 3.35 0 1.7 0 0 Z " fill="#2B2B2B" transform="translate(188,227)"/>
<path d="M0 0 C1 4 1 4 1 4 Z " fill="#2D2D2C" transform="translate(188,819)"/>
<path d="M0 0 C1 4 1 4 1 4 Z " fill="#2C2C2C" transform="translate(188,793)"/>
<path d="M0 0 C1 4 1 4 1 4 Z " fill="#2B2B2C" transform="translate(188,769)"/>
<path d="M0 0 C1 4 1 4 1 4 Z " fill="#2C2B2B" transform="translate(188,668)"/>
<path d="M0 0 C1 4 1 4 1 4 Z " fill="#2C2C2B" transform="translate(188,612)"/>
<path d="M0 0 C1 4 1 4 1 4 Z " fill="#2B2B2B" transform="translate(188,572)"/>
<path d="M0 0 C1 4 1 4 1 4 Z " fill="#2A2929" transform="translate(188,444)"/>
<path d="M0 0 C1 4 1 4 1 4 Z " fill="#2A2A29" transform="translate(188,420)"/>
<path d="M0 0 C4 1 4 1 4 1 Z " fill="#2E2C2E" transform="translate(661,343)"/>
<path d="M0 0 C1 4 1 4 1 4 Z " fill="#2B2B2A" transform="translate(188,235)"/>
<path d="M0 0 C3 1 3 1 3 1 Z " fill="#312F30" transform="translate(224,909)"/>
<path d="M0 0 C0.66 0.66 1.32 1.32 2 2 C1.34 2 0.68 2 0 2 C0 1.34 0 0.68 0 0 Z " fill="#323131" transform="translate(210,901)"/>
<path d="M0 0 C0.33 0.66 0.66 1.32 1 2 C0.34 1.67 -0.32 1.34 -1 1 C-0.67 0.67 -0.34 0.34 0 0 Z " fill="#323233" transform="translate(193,881)"/>
<path d="" fill="#2D2C2C" transform="translate(0,0)"/>
<path d="" fill="#2B2B2B" transform="translate(0,0)"/>
<path d="" fill="#7E66CE" transform="translate(0,0)"/>
<path d="" fill="#2B2B2C" transform="translate(0,0)"/>
<path d="" fill="#7B61CD" transform="translate(0,0)"/>
<path d="" fill="#2B2B2B" transform="translate(0,0)"/>
<path d="" fill="#795DC9" transform="translate(0,0)"/>
<path d="" fill="#7B62CA" transform="translate(0,0)"/>
<path d="" fill="#7C63CB" transform="translate(0,0)"/>
<path d="" fill="#2C2B2C" transform="translate(0,0)"/>
<path d="M0 0 C3 1 3 1 3 1 Z " fill="#493E61" transform="translate(800,597)"/>
<path d="M0 0 C3 1 3 1 3 1 Z " fill="#4A3E63" transform="translate(793,597)"/>
<path d="" fill="#2B2B2B" transform="translate(0,0)"/>
<path d="" fill="#2B2A29" transform="translate(0,0)"/>
<path d="" fill="#2B2B2A" transform="translate(0,0)"/>
<path d="" fill="#2A2A2A" transform="translate(0,0)"/>
<path d="" fill="#2A2A2A" transform="translate(0,0)"/>
<path d="M0 0 C3 1 3 1 3 1 Z " fill="#2D2C2C" transform="translate(758,343)"/>
<path d="M0 0 C3 1 3 1 3 1 Z " fill="#2D2C2C" transform="translate(752,343)"/>
<path d="M0 0 C3 1 3 1 3 1 Z " fill="#2E2D2D" transform="translate(732,343)"/>
<path d="M0 0 C3 1 3 1 3 1 Z " fill="#2E2B2C" transform="translate(720,343)"/>
<path d="M0 0 C3 1 3 1 3 1 Z " fill="#2D2B2C" transform="translate(692,343)"/>
<path d="" fill="#2A2A2A" transform="translate(0,0)"/>
<path d="" fill="#2B2B2A" transform="translate(0,0)"/>
<path d="" fill="#2C2C2B" transform="translate(0,0)"/>
<path d="M0 0 C3 1 3 1 3 1 Z " fill="#353331" transform="translate(485,121)"/>
<path d="M0 0 C2 1 2 1 2 1 Z " fill="#302E2F" transform="translate(232,911)"/>
<path d="M0 0 C2 1 2 1 2 1 Z " fill="#3D3840" transform="translate(758,910)"/>
<path d="M0 0 C2 1 2 1 2 1 Z " fill="#333334" transform="translate(208,903)"/>
<path d="" fill="#343233" transform="translate(0,0)"/>
<path d="" fill="#312F2F" transform="translate(0,0)"/>
<path d="M0 0 C2 1 2 1 2 1 Z " fill="#433A54" transform="translate(763,864)"/>
<path d="M0 0 C2 1 2 1 2 1 Z " fill="#725BB9" transform="translate(704,821)"/>
<path d="" fill="#765AC3" transform="translate(0,0)"/>
<path d="" fill="#765CC3" transform="translate(0,0)"/>
<path d="" fill="#2C2C2D" transform="translate(0,0)"/>
<path d="" fill="#765EC7" transform="translate(0,0)"/>
<path d="" fill="#2B2B2B" transform="translate(0,0)"/>
<path d="" fill="#765CC6" transform="translate(0,0)"/>
<path d="" fill="#7B61C9" transform="translate(0,0)"/>
<path d="" fill="#2C2B2B" transform="translate(0,0)"/>
<path d="" fill="#7B62C9" transform="translate(0,0)"/>
<path d="" fill="#7860C4" transform="translate(0,0)"/>
<path d="" fill="#785ECA" transform="translate(0,0)"/>
<path d="" fill="#795FCA" transform="translate(0,0)"/>
<path d="" fill="#7F64CE" transform="translate(0,0)"/>
<path d="M0 0 C2 1 2 1 2 1 Z " fill="#795EC9" transform="translate(753,670)"/>
<path d="M0 0 C2 1 2 1 2 1 Z " fill="#7B5FCA" transform="translate(595,670)"/>
<path d="M0 0 C2 1 2 1 2 1 Z " fill="#7A60CA" transform="translate(592,670)"/>
<path d="M0 0 C2 1 2 1 2 1 Z " fill="#795DC7" transform="translate(588,670)"/>
<path d="M0 0 C2 1 2 1 2 1 Z " fill="#7A5DCA" transform="translate(584,670)"/>
<path d="M0 0 C2 1 2 1 2 1 Z " fill="#785DC9" transform="translate(571,670)"/>
<path d="" fill="#7E64CD" transform="translate(0,0)"/>
<path d="" fill="#2C2C2B" transform="translate(0,0)"/>
<path d="M0 0 C2 1 2 1 2 1 Z " fill="#725CBB" transform="translate(798,632)"/>
<path d="" fill="#2B2B2C" transform="translate(0,0)"/>
<path d="" fill="#2B2C2C" transform="translate(0,0)"/>
<path d="" fill="#2A2C2B" transform="translate(0,0)"/>
<path d="" fill="#2C2C2B" transform="translate(0,0)"/>
<path d="" fill="#2A2A2B" transform="translate(0,0)"/>
<path d="" fill="#2B2B2B" transform="translate(0,0)"/>
<path d="" fill="#292A29" transform="translate(0,0)"/>
<path d="M0 0 C2 1 2 1 2 1 Z " fill="#2E2E2D" transform="translate(764,343)"/>
<path d="M0 0 C2 1 2 1 2 1 Z " fill="#2C2C2B" transform="translate(744,343)"/>
<path d="M0 0 C2 1 2 1 2 1 Z " fill="#302D2D" transform="translate(724,343)"/>
<path d="M0 0 C2 1 2 1 2 1 Z " fill="#2D2B2B" transform="translate(704,343)"/>
<path d="M0 0 C2 1 2 1 2 1 Z " fill="#2E2C2C" transform="translate(696,343)"/>
<path d="M0 0 C2 1 2 1 2 1 Z " fill="#2C2C2A" transform="translate(688,343)"/>
<path d="M0 0 C2 1 2 1 2 1 Z " fill="#302D2F" transform="translate(632,343)"/>
<path d="M0 0 C2 1 2 1 2 1 Z " fill="#302E2F" transform="translate(628,343)"/>
<path d="" fill="#343333" transform="translate(0,0)"/>
<path d="" fill="#2A2A2A" transform="translate(0,0)"/>
<path d="" fill="#292A2A" transform="translate(0,0)"/>
<path d="" fill="#2A2A29" transform="translate(0,0)"/>
<path d="" fill="#2A2A29" transform="translate(0,0)"/>
<path d="" fill="#323331" transform="translate(0,0)"/>
<path d="" fill="#323230" transform="translate(0,0)"/>
<path d="" fill="#333331" transform="translate(0,0)"/>
<path d="M0 0 C2 1 2 1 2 1 Z " fill="#313230" transform="translate(558,120)"/>
<path d="M0 0 C2 1 2 1 2 1 Z " fill="#31312F" transform="translate(303,120)"/>
<path d="M0 0 C2 1 2 1 2 1 Z " fill="#323231" transform="translate(263,120)"/>
<path d="" fill="#323232" transform="translate(0,0)"/>
<path d="" fill="#323130" transform="translate(0,0)"/>
<path d="" fill="#302F30" transform="translate(0,0)"/>
<path d="" fill="#343131" transform="translate(0,0)"/>
<path d="" fill="#413B47" transform="translate(0,0)"/>
<path d="" fill="#443E4D" transform="translate(0,0)"/>
<path d="" fill="#322F33" transform="translate(0,0)"/>
<path d="" fill="#333333" transform="translate(0,0)"/>
<path d="" fill="#323231" transform="translate(0,0)"/>
<path d="" fill="#333134" transform="translate(0,0)"/>
<path d="" fill="#4F4364" transform="translate(0,0)"/>
<path d="" fill="#463C58" transform="translate(0,0)"/>
<path d="" fill="#4C416B" transform="translate(0,0)"/>
<path d="" fill="#4D436C" transform="translate(0,0)"/>
<path d="" fill="#4C436E" transform="translate(0,0)"/>
<path d="" fill="#313031" transform="translate(0,0)"/>
<path d="" fill="#2E2B2D" transform="translate(0,0)"/>
<path d="" fill="#2C2D2D" transform="translate(0,0)"/>
<path d="" fill="#2D2B2F" transform="translate(0,0)"/>
<path d="" fill="#2C2B2E" transform="translate(0,0)"/>
<path d="" fill="#2E2D2D" transform="translate(0,0)"/>
<path d="" fill="#2C2D2D" transform="translate(0,0)"/>
<path d="" fill="#705AB5" transform="translate(0,0)"/>
<path d="" fill="#745BBB" transform="translate(0,0)"/>
<path d="" fill="#735BB9" transform="translate(0,0)"/>
<path d="" fill="#755DBF" transform="translate(0,0)"/>
<path d="" fill="#745ABD" transform="translate(0,0)"/>
<path d="" fill="#755DBD" transform="translate(0,0)"/>
<path d="" fill="#755CC3" transform="translate(0,0)"/>
<path d="" fill="#2C2D2D" transform="translate(0,0)"/>
<path d="" fill="#2E2C2C" transform="translate(0,0)"/>
<path d="" fill="#735BC3" transform="translate(0,0)"/>
<path d="" fill="#2D2D2D" transform="translate(0,0)"/>
<path d="" fill="#775FC7" transform="translate(0,0)"/>
<path d="" fill="#795FC8" transform="translate(0,0)"/>
<path d="" fill="#7A60C8" transform="translate(0,0)"/>
<path d="" fill="#785EC7" transform="translate(0,0)"/>
<path d="" fill="#7961C7" transform="translate(0,0)"/>
<path d="" fill="#7A5DC6" transform="translate(0,0)"/>
<path d="" fill="#785AC7" transform="translate(0,0)"/>
<path d="" fill="#7B62C9" transform="translate(0,0)"/>
<path d="" fill="#7960C7" transform="translate(0,0)"/>
<path d="" fill="#7961C6" transform="translate(0,0)"/>
<path d="" fill="#7A60C9" transform="translate(0,0)"/>
<path d="" fill="#755BC6" transform="translate(0,0)"/>
<path d="" fill="#795AC6" transform="translate(0,0)"/>
<path d="" fill="#7A5EC8" transform="translate(0,0)"/>
<path d="" fill="#7E62CC" transform="translate(0,0)"/>
<path d="" fill="#2C2D2C" transform="translate(0,0)"/>
<path d="" fill="#7860C9" transform="translate(0,0)"/>
<path d="" fill="#7C61CB" transform="translate(0,0)"/>
<path d="" fill="#7D62CD" transform="translate(0,0)"/>
<path d="" fill="#7B62CB" transform="translate(0,0)"/>
<path d="" fill="#7A60CC" transform="translate(0,0)"/>
<path d="" fill="#2B2B2B" transform="translate(0,0)"/>
<path d="" fill="#2C2C2B" transform="translate(0,0)"/>
<path d="" fill="#2C2C2C" transform="translate(0,0)"/>
<path d="" fill="#7A62C9" transform="translate(0,0)"/>
<path d="" fill="#785DC4" transform="translate(0,0)"/>
<path d="" fill="#7D63C9" transform="translate(0,0)"/>
<path d="" fill="#2C2C2B" transform="translate(0,0)"/>
<path d="" fill="#7B63CA" transform="translate(0,0)"/>
<path d="" fill="#7D63CC" transform="translate(0,0)"/>
<path d="" fill="#7A5EC8" transform="translate(0,0)"/>
<path d="" fill="#785FC9" transform="translate(0,0)"/>
<path d="" fill="#7960C7" transform="translate(0,0)"/>
<path d="" fill="#795EC9" transform="translate(0,0)"/>
<path d="" fill="#2C2E2C" transform="translate(0,0)"/>
<path d="" fill="#795EC9" transform="translate(0,0)"/>
<path d="" fill="#2C2C2C" transform="translate(0,0)"/>
<path d="" fill="#2B2C2C" transform="translate(0,0)"/>
<path d="" fill="#785BC4" transform="translate(0,0)"/>
<path d="" fill="#7A5FCB" transform="translate(0,0)"/>
<path d="" fill="#7960C6" transform="translate(0,0)"/>
<path d="" fill="#7860C9" transform="translate(0,0)"/>
<path d="" fill="#7A5FC9" transform="translate(0,0)"/>
<path d="" fill="#2B2C2C" transform="translate(0,0)"/>
<path d="" fill="#7860C5" transform="translate(0,0)"/>
<path d="" fill="#2D2B2B" transform="translate(0,0)"/>
<path d="" fill="#7C63CD" transform="translate(0,0)"/>
<path d="" fill="#7E64CF" transform="translate(0,0)"/>
<path d="" fill="#7C5FCB" transform="translate(0,0)"/>
<path d="" fill="#7B5FCA" transform="translate(0,0)"/>
<path d="" fill="#775EC8" transform="translate(0,0)"/>
<path d="" fill="#7A5FC8" transform="translate(0,0)"/>
<path d="" fill="#2A2B2C" transform="translate(0,0)"/>
<path d="" fill="#7D62CC" transform="translate(0,0)"/>
<path d="" fill="#7A5DCA" transform="translate(0,0)"/>
<path d="" fill="#2B2B2A" transform="translate(0,0)"/>
<path d="" fill="#795AC9" transform="translate(0,0)"/>
<path d="" fill="#2B2C2C" transform="translate(0,0)"/>
<path d="" fill="#7C63CC" transform="translate(0,0)"/>
<path d="" fill="#7B61CB" transform="translate(0,0)"/>
<path d="" fill="#775DC7" transform="translate(0,0)"/>
<path d="" fill="#2A2B2C" transform="translate(0,0)"/>
<path d="" fill="#7B63CB" transform="translate(0,0)"/>
<path d="" fill="#7E63CD" transform="translate(0,0)"/>
<path d="" fill="#2C2B2C" transform="translate(0,0)"/>
<path d="" fill="#7C63CC" transform="translate(0,0)"/>
<path d="" fill="#775DC6" transform="translate(0,0)"/>
<path d="" fill="#785FCB" transform="translate(0,0)"/>
<path d="" fill="#795DC8" transform="translate(0,0)"/>
<path d="" fill="#7B5FC9" transform="translate(0,0)"/>
<path d="" fill="#7B5EC9" transform="translate(0,0)"/>
<path d="" fill="#7A5FCA" transform="translate(0,0)"/>
<path d="" fill="#795FCB" transform="translate(0,0)"/>
<path d="" fill="#2C2C2C" transform="translate(0,0)"/>
<path d="" fill="#7B61C9" transform="translate(0,0)"/>
<path d="" fill="#2E2D2C" transform="translate(0,0)"/>
<path d="" fill="#7D63CD" transform="translate(0,0)"/>
<path d="" fill="#7961C5" transform="translate(0,0)"/>
<path d="" fill="#2D2C2C" transform="translate(0,0)"/>
<path d="" fill="#755DBF" transform="translate(0,0)"/>
<path d="" fill="#7962C5" transform="translate(0,0)"/>
<path d="" fill="#2C2B2C" transform="translate(0,0)"/>
<path d="" fill="#2B2B2C" transform="translate(0,0)"/>
<path d="" fill="#2B2C2D" transform="translate(0,0)"/>
<path d="" fill="#7961C4" transform="translate(0,0)"/>
<path d="" fill="#7D66C2" transform="translate(0,0)"/>
<path d="" fill="#2C2C2C" transform="translate(0,0)"/>
<path d="" fill="#2C2C2E" transform="translate(0,0)"/>
<path d="" fill="#2C2B2C" transform="translate(0,0)"/>
<path d="" fill="#2C2C2B" transform="translate(0,0)"/>
<path d="" fill="#2D2A2C" transform="translate(0,0)"/>
<path d="" fill="#2E2C2B" transform="translate(0,0)"/>
<path d="" fill="#4E4166" transform="translate(0,0)"/>
<path d="" fill="#4D4468" transform="translate(0,0)"/>
<path d="" fill="#493E64" transform="translate(0,0)"/>
<path d="" fill="#4C4264" transform="translate(0,0)"/>
<path d="" fill="#2C2B2C" transform="translate(0,0)"/>
<path d="" fill="#443E52" transform="translate(0,0)"/>
<path d="" fill="#2C2B2B" transform="translate(0,0)"/>
<path d="" fill="#4C4264" transform="translate(0,0)"/>
<path d="" fill="#2C2D2C" transform="translate(0,0)"/>
<path d="" fill="#2C2A2D" transform="translate(0,0)"/>
<path d="" fill="#493E5E" transform="translate(0,0)"/>
<path d="" fill="#453E56" transform="translate(0,0)"/>
<path d="" fill="#2E2D2B" transform="translate(0,0)"/>
<path d="" fill="#413B51" transform="translate(0,0)"/>
<path d="" fill="#2B2B2C" transform="translate(0,0)"/>
<path d="" fill="#2D2B2B" transform="translate(0,0)"/>
<path d="" fill="#3A3942" transform="translate(0,0)"/>
<path d="" fill="#2B2C2A" transform="translate(0,0)"/>
<path d="" fill="#2C2D2C" transform="translate(0,0)"/>
<path d="" fill="#2C2C2B" transform="translate(0,0)"/>
<path d="" fill="#2B2A2B" transform="translate(0,0)"/>
<path d="" fill="#2C2C2B" transform="translate(0,0)"/>
<path d="" fill="#2D2B2C" transform="translate(0,0)"/>
<path d="" fill="#2C2A2C" transform="translate(0,0)"/>
<path d="" fill="#2B2C2B" transform="translate(0,0)"/>
<path d="" fill="#2B2B2B" transform="translate(0,0)"/>
<path d="" fill="#2A2A2C" transform="translate(0,0)"/>
<path d="" fill="#2B2C2A" transform="translate(0,0)"/>
<path d="" fill="#2C2A2A" transform="translate(0,0)"/>
<path d="" fill="#2B2B2A" transform="translate(0,0)"/>
<path d="" fill="#2B2C29" transform="translate(0,0)"/>
<path d="" fill="#303032" transform="translate(0,0)"/>
<path d="" fill="#2F2F31" transform="translate(0,0)"/>
<path d="" fill="#2F2E33" transform="translate(0,0)"/>
<path d="" fill="#2B2C2B" transform="translate(0,0)"/>
<path d="" fill="#313131" transform="translate(0,0)"/>
<path d="" fill="#2C2B2B" transform="translate(0,0)"/>
<path d="" fill="#302E31" transform="translate(0,0)"/>
<path d="" fill="#2A2A2B" transform="translate(0,0)"/>
<path d="" fill="#2B2A2A" transform="translate(0,0)"/>
<path d="" fill="#2B2B2B" transform="translate(0,0)"/>
<path d="" fill="#292B29" transform="translate(0,0)"/>
<path d="" fill="#302D31" transform="translate(0,0)"/>
<path d="" fill="#2B2C2C" transform="translate(0,0)"/>
<path d="" fill="#2B2C2B" transform="translate(0,0)"/>
<path d="" fill="#2B2C2B" transform="translate(0,0)"/>
<path d="" fill="#2B2A2B" transform="translate(0,0)"/>
<path d="" fill="#2B2B2A" transform="translate(0,0)"/>
<path d="" fill="#2A2929" transform="translate(0,0)"/>
<path d="" fill="#2B2B2B" transform="translate(0,0)"/>
<path d="" fill="#2C2C2A" transform="translate(0,0)"/>
<path d="" fill="#2C2B2A" transform="translate(0,0)"/>
<path d="" fill="#2A2A2A" transform="translate(0,0)"/>
<path d="" fill="#292929" transform="translate(0,0)"/>
<path d="" fill="#2A2C29" transform="translate(0,0)"/>
<path d="" fill="#2C2B2A" transform="translate(0,0)"/>
<path d="" fill="#2A2A2A" transform="translate(0,0)"/>
<path d="" fill="#2A2B2A" transform="translate(0,0)"/>
<path d="" fill="#2B2A2A" transform="translate(0,0)"/>
<path d="" fill="#2B2C29" transform="translate(0,0)"/>
<path d="" fill="#2D2E31" transform="translate(0,0)"/>
<path d="" fill="#2A2B2A" transform="translate(0,0)"/>
<path d="" fill="#2C2C2A" transform="translate(0,0)"/>
<path d="" fill="#2E2C2D" transform="translate(0,0)"/>
<path d="" fill="#2E2B2B" transform="translate(0,0)"/>
<path d="" fill="#2E2D2C" transform="translate(0,0)"/>
<path d="" fill="#2E2D2C" transform="translate(0,0)"/>
<path d="" fill="#2F2E2E" transform="translate(0,0)"/>
<path d="" fill="#2F2E2E" transform="translate(0,0)"/>
<path d="" fill="#2E2E2E" transform="translate(0,0)"/>
<path d="" fill="#2E2E2E" transform="translate(0,0)"/>
<path d="" fill="#2F2D2D" transform="translate(0,0)"/>
<path d="" fill="#2F2D2E" transform="translate(0,0)"/>
<path d="" fill="#302E2E" transform="translate(0,0)"/>
<path d="" fill="#302E2F" transform="translate(0,0)"/>
<path d="" fill="#322F2E" transform="translate(0,0)"/>
<path d="" fill="#342F32" transform="translate(0,0)"/>
<path d="" fill="#2B2B2B" transform="translate(0,0)"/>
<path d="" fill="#2A2B29" transform="translate(0,0)"/>
<path d="" fill="#322E32" transform="translate(0,0)"/>
<path d="" fill="#2B2A29" transform="translate(0,0)"/>
<path d="" fill="#2A2B29" transform="translate(0,0)"/>
<path d="" fill="#2B2A2A" transform="translate(0,0)"/>
<path d="" fill="#2A2A2A" transform="translate(0,0)"/>
<path d="" fill="#303031" transform="translate(0,0)"/>
<path d="" fill="#30302F" transform="translate(0,0)"/>
<path d="" fill="#303131" transform="translate(0,0)"/>
<path d="" fill="#2A2A2A" transform="translate(0,0)"/>
<path d="" fill="#343234" transform="translate(0,0)"/>
<path d="" fill="#363236" transform="translate(0,0)"/>
<path d="" fill="#2B2A2A" transform="translate(0,0)"/>
<path d="" fill="#2A2C2C" transform="translate(0,0)"/>
<path d="" fill="#2B2B2B" transform="translate(0,0)"/>
<path d="" fill="#2B2C2A" transform="translate(0,0)"/>
<path d="" fill="#2A2B2B" transform="translate(0,0)"/>
<path d="" fill="#2A2B2A" transform="translate(0,0)"/>
<path d="" fill="#292A2B" transform="translate(0,0)"/>
<path d="" fill="#2B2B2A" transform="translate(0,0)"/>
<path d="" fill="#2B292B" transform="translate(0,0)"/>
<path d="" fill="#2F3230" transform="translate(0,0)"/>
<path d="" fill="#292A29" transform="translate(0,0)"/>
<path d="" fill="#2B2B29" transform="translate(0,0)"/>
<path d="" fill="#2A292C" transform="translate(0,0)"/>
<path d="" fill="#32302F" transform="translate(0,0)"/>
<path d="" fill="#2B2928" transform="translate(0,0)"/>
<path d="" fill="#2C292A" transform="translate(0,0)"/>
<path d="" fill="#2A2B2B" transform="translate(0,0)"/>
<path d="" fill="#2B2C28" transform="translate(0,0)"/>
<path d="" fill="#2B2B2A" transform="translate(0,0)"/>
<path d="" fill="#2B282A" transform="translate(0,0)"/>
<path d="" fill="#2B2C28" transform="translate(0,0)"/>
<path d="" fill="#31302F" transform="translate(0,0)"/>
<path d="" fill="#2B2A2C" transform="translate(0,0)"/>
<path d="" fill="#2D2D2B" transform="translate(0,0)"/>
<path d="" fill="#2C2B2C" transform="translate(0,0)"/>
<path d="" fill="#2B292A" transform="translate(0,0)"/>
<path d="" fill="#2B2B2A" transform="translate(0,0)"/>
<path d="" fill="#2C2A2A" transform="translate(0,0)"/>
<path d="" fill="#2B292C" transform="translate(0,0)"/>
<path d="" fill="#272627" transform="translate(0,0)"/>
<path d="" fill="#2C2B29" transform="translate(0,0)"/>
<path d="" fill="#282729" transform="translate(0,0)"/>
<path d="" fill="#2A2928" transform="translate(0,0)"/>
<path d="" fill="#2B292A" transform="translate(0,0)"/>
<path d="" fill="#2B2A2B" transform="translate(0,0)"/>
<path d="" fill="#2A2929" transform="translate(0,0)"/>
<path d="" fill="#2B2C2B" transform="translate(0,0)"/>
<path d="" fill="#2C2B2B" transform="translate(0,0)"/>
<path d="" fill="#2B292A" transform="translate(0,0)"/>
<path d="" fill="#30312D" transform="translate(0,0)"/>
<path d="" fill="#2C2D2B" transform="translate(0,0)"/>
<path d="" fill="#30302F" transform="translate(0,0)"/>
<path d="" fill="#292A29" transform="translate(0,0)"/>
<path d="" fill="#2C2D2B" transform="translate(0,0)"/>
<path d="" fill="#2C2C2B" transform="translate(0,0)"/>
<path d="" fill="#2E2D2D" transform="translate(0,0)"/>
<path d="" fill="#2E2C2C" transform="translate(0,0)"/>
<path d="" fill="#31312E" transform="translate(0,0)"/>
<path d="" fill="#302E2E" transform="translate(0,0)"/>
<path d="" fill="#313031" transform="translate(0,0)"/>
<path d="" fill="#322F31" transform="translate(0,0)"/>
<path d="" fill="#313132" transform="translate(0,0)"/>
<path d="" fill="#363434" transform="translate(0,0)"/>
<path d="" fill="#323230" transform="translate(0,0)"/>
<path d="" fill="#353234" transform="translate(0,0)"/>
<path d="" fill="#353234" transform="translate(0,0)"/>
<path d="" fill="#343435" transform="translate(0,0)"/>
<path d="" fill="#363233" transform="translate(0,0)"/>
<path d="" fill="#343230" transform="translate(0,0)"/>
<path d="" fill="#333430" transform="translate(0,0)"/>
<path d="" fill="#333432" transform="translate(0,0)"/>
<path d="" fill="#353334" transform="translate(0,0)"/>
<path d="" fill="#353432" transform="translate(0,0)"/>
<path d="" fill="#353530" transform="translate(0,0)"/>
<path d="" fill="#353430" transform="translate(0,0)"/>
<path d="" fill="#353632" transform="translate(0,0)"/>
<path d="" fill="#353330" transform="translate(0,0)"/>
<path d="" fill="#353431" transform="translate(0,0)"/>
<path d="" fill="#353530" transform="translate(0,0)"/>
<path d="" fill="#353432" transform="translate(0,0)"/>
<path d="" fill="#343431" transform="translate(0,0)"/>
<path d="" fill="#343432" transform="translate(0,0)"/>
<path d="" fill="#323230" transform="translate(0,0)"/>
<path d="" fill="#323230" transform="translate(0,0)"/>
<path d="" fill="#333433" transform="translate(0,0)"/>
<path d="" fill="#333332" transform="translate(0,0)"/>
<path d="" fill="#333131" transform="translate(0,0)"/>
<path d="" fill="#32302F" transform="translate(0,0)"/>
<path d="" fill="#343432" transform="translate(0,0)"/>
<path d="" fill="#31302F" transform="translate(0,0)"/>
<path d="" fill="#313031" transform="translate(0,0)"/>
<path d="" fill="#30322E" transform="translate(0,0)"/>
<path d="" fill="#32322F" transform="translate(0,0)"/>
<path d="" fill="#313232" transform="translate(0,0)"/>
<path d="" fill="#32322F" transform="translate(0,0)"/>
<path d="" fill="#312F2F" transform="translate(0,0)"/>
<path d="" fill="#323031" transform="translate(0,0)"/>
<path d="" fill="#302F2F" transform="translate(0,0)"/>
<path d="" fill="#323231" transform="translate(0,0)"/>
<path d="" fill="#323130" transform="translate(0,0)"/>
</svg>
